<svg width="28" height="28" viewBox="0 0 28 28" >
<path d="M4.2002 14C4.2002 12.8402 5.1404 11.9 6.3002 11.9C7.45999 11.9 8.4002 12.8402 8.4002 14C8.4002 15.1598 7.45999 16.1 6.3002 16.1C5.1404 16.1 4.2002 15.1598 4.2002 14Z" fill="currentColor"/>
<path d="M11.9002 14C11.9002 12.8402 12.8404 11.9 14.0002 11.9C15.16 11.9 16.1002 12.8402 16.1002 14C16.1002 15.1598 15.16 16.1 14.0002 16.1C12.8404 16.1 11.9002 15.1598 11.9002 14Z" fill="currentColor"/>
<path d="M21.7002 11.9C20.5404 11.9 19.6002 12.8402 19.6002 14C19.6002 15.1598 20.5404 16.1 21.7002 16.1C22.86 16.1 23.8002 15.1598 23.8002 14C23.8002 12.8402 22.86 11.9 21.7002 11.9Z" fill="currentColor"/>
<path d="M4.2002 22.1667C4.2002 21.0069 5.1404 20.0667 6.3002 20.0667C7.45999 20.0667 8.4002 21.0069 8.4002 22.1667C8.4002 23.3265 7.45999 24.2667 6.3002 24.2667C5.1404 24.2667 4.2002 23.3265 4.2002 22.1667Z" fill="currentColor"/>
<path d="M11.9002 22.1667C11.9002 21.0069 12.8404 20.0667 14.0002 20.0667C15.16 20.0667 16.1002 21.0069 16.1002 22.1667C16.1002 23.3265 15.16 24.2667 14.0002 24.2667C12.8404 24.2667 11.9002 23.3265 11.9002 22.1667Z" fill="currentColor"/>
<path d="M21.7002 20.0667C20.5404 20.0667 19.6002 21.0069 19.6002 22.1667C19.6002 23.3265 20.5404 24.2667 21.7002 24.2667C22.86 24.2667 23.8002 23.3265 23.8002 22.1667C23.8002 21.0069 22.86 20.0667 21.7002 20.0667Z" fill="currentColor"/>
<path d="M4.2002 5.83333C4.2002 4.67353 5.1404 3.73333 6.3002 3.73333C7.45999 3.73333 8.4002 4.67353 8.4002 5.83333C8.4002 6.99313 7.45999 7.93333 6.3002 7.93333C5.1404 7.93333 4.2002 6.99313 4.2002 5.83333Z" fill="currentColor"/>
<path d="M11.9002 5.83333C11.9002 4.67353 12.8404 3.73333 14.0002 3.73333C15.16 3.73333 16.1002 4.67353 16.1002 5.83333C16.1002 6.99313 15.16 7.93333 14.0002 7.93333C12.8404 7.93333 11.9002 6.99313 11.9002 5.83333Z" fill="currentColor"/>
<path d="M21.7002 3.73333C20.5404 3.73333 19.6002 4.67353 19.6002 5.83333C19.6002 6.99313 20.5404 7.93333 21.7002 7.93333C22.86 7.93333 23.8002 6.99313 23.8002 5.83333C23.8002 4.67353 22.86 3.73333 21.7002 3.73333Z" fill="currentColor"/>
</svg>
