<svg width="14" height="14" viewBox="0 0 14 14" fill="none" xmlns="http://www.w3.org/2000/svg">
<path fill-rule="evenodd" clip-rule="evenodd" d="M10.7188 7.9965C10.1684 10.0503 8.05735 11.2692 6.0035 10.7189C5.32519 10.5371 4.73926 10.186 4.27745 9.7233L4.05938 9.50522L5.76264 9.50492C6.05259 9.50486 6.2876 9.26977 6.28755 8.97982C6.28749 8.68987 6.0524 8.45486 5.76245 8.45492L2.79205 8.45545C2.65281 8.45547 2.51928 8.51081 2.42084 8.60929C2.3224 8.70777 2.26711 8.84132 2.26714 8.98056L2.26777 11.9498C2.26783 12.2398 2.50293 12.4748 2.79288 12.4747C3.08283 12.4747 3.31783 12.2396 3.31777 11.9496L3.31741 10.2482L3.53431 10.4651C4.12303 11.0548 4.87041 11.5023 5.73174 11.7331C8.34573 12.4335 11.0326 10.8822 11.733 8.26826C11.808 7.98819 11.6418 7.70032 11.3618 7.62527C11.0817 7.55023 10.7938 7.71643 10.7188 7.9965ZM11.579 5.39083C11.6775 5.29236 11.7328 5.1588 11.7328 5.01955L11.7323 2.05018C11.7322 1.76023 11.4971 1.52522 11.2072 1.52527C10.9172 1.52532 10.6822 1.76041 10.6823 2.05035L10.6825 3.75196L10.4657 3.53509C9.87698 2.9454 9.12943 2.49779 8.26817 2.26701C5.65419 1.5666 2.96734 3.11785 2.26692 5.73184C2.19188 6.01191 2.35808 6.29978 2.63815 6.37483C2.91822 6.44987 3.2061 6.28367 3.28114 6.0036C3.83147 3.94975 5.94257 2.73091 7.99641 3.28123C8.67475 3.463 9.2607 3.81417 9.72251 4.27685L9.94029 4.49463L8.23791 4.49463C7.94796 4.49463 7.71291 4.72968 7.71291 5.01963C7.71291 5.30958 7.94796 5.54463 8.23791 5.54463H11.2078C11.347 5.54463 11.4806 5.48931 11.579 5.39083Z" fill="#94A3B8"/>
</svg>
