<svg xmlns="http://www.w3.org/2000/svg" width="32" height="32" viewBox="0 0 32 32" fill="none">
  <g filter="url(#filter0_ii_1410_145)">
    <path d="M2.81958 7.79686C2.81958 6.80274 3.62547 5.99686 4.61958 5.99686H12.4296C12.9466 5.99686 13.4435 6.19703 13.8161 6.55539L16.6732 9.30339C17.0923 9.70654 17.6513 9.93173 18.2329 9.93173H25.9712C26.9653 9.93173 27.7712 10.7376 27.7712 11.7317V19.9078L24.2067 29.8838H6.81958C4.61044 29.8838 2.81958 28.093 2.81958 25.8838V7.79686Z" fill="url(#paint0_linear_1410_145)"/>
  </g>
  <g filter="url(#filter1_f_1410_145)">
    <path d="M8.00856 15.5628C8.52664 14.1561 9.88739 13.2188 11.4116 13.2188H25.6241C26.7862 13.2188 26.5159 14.3229 26.1655 15.4102L24.4835 27.102C24.2456 27.8403 23.5476 28.3422 22.7584 28.3422L6.6694 28.3422L6.6593 28.3422C5.93643 28.3402 5.26343 28.1303 4.69914 27.7701L4.69511 27.7676C4.50932 27.5576 3.98357 26.5591 4.25478 25.8653L8.00856 15.5628Z" fill="#FCA23D"/>
  </g>
  <g filter="url(#filter2_ii_1410_145)">
    <path d="M8.30005 15.4886C8.87274 13.904 10.377 12.8482 12.0619 12.8482L28.8638 12.8482C30.1483 12.8482 31.0627 14.0963 30.6754 15.3211L26.5118 28.4868C26.2488 29.3185 25.4772 29.8838 24.6049 29.8838L6.8197 29.8838L6.80853 29.8838C6.00946 29.8816 5.2655 29.6451 4.64172 29.2395L4.63727 29.2366C4.26245 28.9921 3.93121 28.6865 3.65759 28.3339C3.53333 28.1737 3.42096 28.0038 3.32178 27.8256C3.69397 27.798 3.88776 27.6138 3.98163 27.4373L8.30005 15.4886Z" fill="url(#paint1_linear_1410_145)"/>
  </g>
  <defs>
    <filter id="filter0_ii_1410_145" x="2.51958" y="5.99686" width="25.4017" height="24.037" filterUnits="userSpaceOnUse" color-interpolation-filters="sRGB">
      <feFlood flood-opacity="0" result="BackgroundImageFix"/>
      <feBlend mode="normal" in="SourceGraphic" in2="BackgroundImageFix" result="shape"/>
      <feColorMatrix in="SourceAlpha" type="matrix" values="0 0 0 0 0 0 0 0 0 0 0 0 0 0 0 0 0 0 127 0" result="hardAlpha"/>
      <feOffset dx="-0.3" dy="0.15"/>
      <feGaussianBlur stdDeviation="0.3"/>
      <feComposite in2="hardAlpha" operator="arithmetic" k2="-1" k3="1"/>
      <feColorMatrix type="matrix" values="0 0 0 0 1 0 0 0 0 0.843137 0 0 0 0 0.360784 0 0 0 1 0"/>
      <feBlend mode="normal" in2="shape" result="effect1_innerShadow_1410_145"/>
      <feColorMatrix in="SourceAlpha" type="matrix" values="0 0 0 0 0 0 0 0 0 0 0 0 0 0 0 0 0 0 127 0" result="hardAlpha"/>
      <feOffset dx="0.15" dy="0.15"/>
      <feGaussianBlur stdDeviation="0.3"/>
      <feComposite in2="hardAlpha" operator="arithmetic" k2="-1" k3="1"/>
      <feColorMatrix type="matrix" values="0 0 0 0 0.933333 0 0 0 0 0.658824 0 0 0 0 0.313726 0 0 0 1 0"/>
      <feBlend mode="normal" in2="effect1_innerShadow_1410_145" result="effect2_innerShadow_1410_145"/>
    </filter>
    <filter id="filter1_f_1410_145" x="2.17859" y="11.2188" width="26.2881" height="19.1234" filterUnits="userSpaceOnUse" color-interpolation-filters="sRGB">
      <feFlood flood-opacity="0" result="BackgroundImageFix"/>
      <feBlend mode="normal" in="SourceGraphic" in2="BackgroundImageFix" result="shape"/>
      <feGaussianBlur stdDeviation="1" result="effect1_foregroundBlur_1410_145"/>
    </filter>
    <filter id="filter2_ii_1410_145" x="3.02178" y="12.8482" width="28.0434" height="17.3357" filterUnits="userSpaceOnUse" color-interpolation-filters="sRGB">
      <feFlood flood-opacity="0" result="BackgroundImageFix"/>
      <feBlend mode="normal" in="SourceGraphic" in2="BackgroundImageFix" result="shape"/>
      <feColorMatrix in="SourceAlpha" type="matrix" values="0 0 0 0 0 0 0 0 0 0 0 0 0 0 0 0 0 0 127 0" result="hardAlpha"/>
      <feOffset dx="0.3" dy="0.3"/>
      <feGaussianBlur stdDeviation="0.25"/>
      <feComposite in2="hardAlpha" operator="arithmetic" k2="-1" k3="1"/>
      <feColorMatrix type="matrix" values="0 0 0 0 1 0 0 0 0 0.768627 0 0 0 0 0.286275 0 0 0 1 0"/>
      <feBlend mode="normal" in2="shape" result="effect1_innerShadow_1410_145"/>
      <feColorMatrix in="SourceAlpha" type="matrix" values="0 0 0 0 0 0 0 0 0 0 0 0 0 0 0 0 0 0 127 0" result="hardAlpha"/>
      <feOffset dx="-0.3" dy="0.3"/>
      <feGaussianBlur stdDeviation="0.25"/>
      <feComposite in2="hardAlpha" operator="arithmetic" k2="-1" k3="1"/>
      <feColorMatrix type="matrix" values="0 0 0 0 1 0 0 0 0 0.878431 0 0 0 0 0.290196 0 0 0 1 0"/>
      <feBlend mode="normal" in2="effect1_innerShadow_1410_145" result="effect2_innerShadow_1410_145"/>
    </filter>
    <linearGradient id="paint0_linear_1410_145" x1="7.08801" y1="6.6875" x2="9.90051" y2="16.8125" gradientUnits="userSpaceOnUse">
      <stop stop-color="#FFD052"/>
      <stop offset="1" stop-color="#FFBD41"/>
    </linearGradient>
    <linearGradient id="paint1_linear_1410_145" x1="17.0435" y1="12.8482" x2="17.0435" y2="29.8838" gradientUnits="userSpaceOnUse">
      <stop stop-color="#FFDF54"/>
      <stop offset="1" stop-color="#FFBA5F"/>
    </linearGradient>
  </defs>
</svg>