<svg xmlns="http://www.w3.org/2000/svg" width="20" height="20" viewBox="0 0 20 20" fill="none">
  <path d="M5.20834 1.66666C4.18021 1.66666 3.33334 2.51353 3.33334 3.54166V15.5225C3.32232 15.5895 3.32232 15.658 3.33334 15.7251V16.4583C3.33334 17.4864 4.18021 18.3333 5.20834 18.3333H16.0417C16.1245 18.3345 16.2067 18.3192 16.2836 18.2883C16.3604 18.2574 16.4304 18.2116 16.4894 18.1534C16.5483 18.0953 16.5952 18.026 16.6271 17.9496C16.6591 17.8732 16.6756 17.7912 16.6756 17.7083C16.6756 17.6255 16.6591 17.5435 16.6271 17.4671C16.5952 17.3907 16.5483 17.3214 16.4894 17.2632C16.4304 17.2051 16.3604 17.1592 16.2836 17.1283C16.2067 17.0975 16.1245 17.0822 16.0417 17.0833H5.20834C4.85563 17.0833 4.58334 16.811 4.58334 16.4583V16.25H16.0417C16.2074 16.25 16.3664 16.1841 16.4836 16.0669C16.6008 15.9497 16.6667 15.7907 16.6667 15.625V3.54166C16.6667 2.51353 15.8198 1.66666 14.7917 1.66666H5.20834ZM5.20834 2.91666H14.7917C15.1444 2.91666 15.4167 3.18895 15.4167 3.54166V15H4.58334V3.54166C4.58334 3.18895 4.85563 2.91666 5.20834 2.91666ZM7.29167 5.83332C7.20885 5.83215 7.12663 5.84745 7.04977 5.87834C6.97292 5.90922 6.90296 5.95507 6.84398 6.01322C6.785 6.07138 6.73817 6.14067 6.7062 6.21708C6.67423 6.29349 6.65777 6.37549 6.65777 6.45832C6.65777 6.54115 6.67423 6.62315 6.7062 6.69956C6.73817 6.77598 6.785 6.84527 6.84398 6.90342C6.90296 6.96158 6.97292 7.00743 7.04977 7.03831C7.12663 7.06919 7.20885 7.08449 7.29167 7.08332H12.7083C12.7912 7.08449 12.8734 7.06919 12.9502 7.03831C13.0271 7.00743 13.097 6.96158 13.156 6.90342C13.215 6.84527 13.2618 6.77598 13.2938 6.69956C13.3258 6.62315 13.3422 6.54115 13.3422 6.45832C13.3422 6.37549 13.3258 6.29349 13.2938 6.21708C13.2618 6.14067 13.215 6.07138 13.156 6.01322C13.097 5.95507 13.0271 5.90922 12.9502 5.87834C12.8734 5.84745 12.7912 5.83215 12.7083 5.83332H7.29167Z" fill="#A3A3A3"/>
</svg>