<svg xmlns="http://www.w3.org/2000/svg" width="25" height="24" viewBox="0 0 25 24" fill="none">
  <path d="M7.45215 3C6.78524 3 6.1511 3.29662 5.72363 3.80957L4.02148 5.85254C4.02116 5.85254 4.02083 5.85254 4.02051 5.85254C3.6845 6.25664 3.5 6.76676 3.5 7.29297V7.41602V18.25C3.5 18.3444 3.5052 18.4373 3.51465 18.5293C3.51471 18.5299 3.51458 18.5306 3.51465 18.5312C3.64607 19.8257 4.67435 20.8539 5.96875 20.9854C5.96939 20.9854 5.97006 20.9853 5.9707 20.9854C6.06254 20.9946 6.15572 21 6.25 21H18.75C18.845 21 18.9386 20.9949 19.0312 20.9854C20.3257 20.8539 21.3539 19.8257 21.4854 18.5312C21.4854 18.5306 21.4853 18.5299 21.4854 18.5293C21.4948 18.4373 21.5 18.3444 21.5 18.25V7.41602V7.29297C21.5 6.76675 21.3153 6.25688 20.9785 5.85254L19.2764 3.80957C18.8489 3.29662 18.2148 3 17.5479 3H7.45215ZM7.45215 4.5H17.5479C17.7709 4.5 17.9815 4.59849 18.124 4.76953L19.5654 6.5H5.43359L6.87598 4.76953C7.01851 4.59849 7.22906 4.5 7.45215 4.5ZM10.25 10H14.75C15.164 10 15.5 10.3355 15.5 10.75C15.5 11.1645 15.164 11.5 14.75 11.5H10.25C9.836 11.5 9.5 11.1645 9.5 10.75C9.5 10.3355 9.836 10 10.25 10Z" fill="#F43F5E"/>
</svg>