<svg xmlns="http://www.w3.org/2000/svg" width="20" height="20" viewBox="0 0 20 20" fill="none">
  <path d="M7.70829 2.5C6.9104 2.5 6.24996 3.16044 6.24996 3.95833V5H3.12496C2.32706 5 1.66663 5.66044 1.66663 6.45833V16.4583C1.66663 17.2562 2.32706 17.9167 3.12496 17.9167H16.875C17.6729 17.9167 18.3333 17.2562 18.3333 16.4583V6.45833C18.3333 5.66044 17.6729 5 16.875 5H13.75V3.95833C13.75 3.16044 13.0895 2.5 12.2916 2.5H7.70829ZM7.70829 3.75H12.2916C12.4146 3.75 12.5 3.8354 12.5 3.95833V5H7.49996V3.95833C7.49996 3.8354 7.58536 3.75 7.70829 3.75ZM3.12496 6.25H16.875C16.9979 6.25 17.0833 6.3354 17.0833 6.45833V12.0833H11.25V11.875C11.25 11.53 10.97 11.25 10.625 11.25H9.37496C9.02996 11.25 8.74996 11.53 8.74996 11.875V12.0833H2.91663V6.45833C2.91663 6.3354 3.00202 6.25 3.12496 6.25ZM2.91663 13.3333H8.74996V13.5417C8.74996 13.8867 9.02996 14.1667 9.37496 14.1667H10.625C10.97 14.1667 11.25 13.8867 11.25 13.5417V13.3333H17.0833V16.4583C17.0833 16.5813 16.9979 16.6667 16.875 16.6667H3.12496C3.00202 16.6667 2.91663 16.5813 2.91663 16.4583V13.3333Z" fill="#A3A3A3"/>
</svg>