<svg width="15" height="14" viewBox="0 0 15 14" fill="none" xmlns="http://www.w3.org/2000/svg">
<path d="M7.66677 1.16666C4.45027 1.16666 1.83344 3.78349 1.83344 6.99999C1.83344 10.2165 4.45027 12.8333 7.66677 12.8333C10.8833 12.8333 13.5001 10.2165 13.5001 6.99999C13.5001 3.78349 10.8833 1.16666 7.66677 1.16666ZM8.99706 8.91361C8.9116 8.99907 8.7996 9.04166 8.6876 9.04166C8.5756 9.04166 8.4636 8.99907 8.37814 8.91361L6.91981 7.45528C6.83785 7.37303 6.79177 7.26191 6.79177 7.14582V3.93749C6.79177 3.6957 6.98748 3.49999 7.22927 3.49999C7.47106 3.49999 7.66677 3.6957 7.66677 3.93749V6.9647L8.99706 8.29499C9.16769 8.46561 9.16769 8.7427 8.99706 8.91361Z" fill="#94A3B8"/>
</svg>
