<svg xmlns="http://www.w3.org/2000/svg" width="25" height="24" viewBox="0 0 25 24" fill="none">
  <path d="M14.4668 3.98731C14.2535 3.99514 14.0482 4.07102 13.8811 4.20386C13.714 4.3367 13.5938 4.51952 13.5381 4.72559L9.53807 18.7256C9.46529 18.9807 9.49684 19.2543 9.62577 19.4861C9.7547 19.718 9.97046 19.8891 10.2256 19.9619C10.4807 20.0347 10.7543 20.0031 10.9861 19.8742C11.218 19.7453 11.3891 19.5295 11.4619 19.2744L15.4619 5.27442C15.5077 5.12205 15.5164 4.96097 15.4874 4.80454C15.4585 4.64811 15.3926 4.50086 15.2953 4.375C15.198 4.24914 15.072 4.14831 14.928 4.08088C14.7839 4.01345 14.6258 3.98137 14.4668 3.98731ZM7.53221 6.47852C7.27241 6.47279 7.02059 6.5684 6.83006 6.74512L1.83006 11.2578C1.72625 11.3516 1.64326 11.4661 1.58646 11.5939C1.52965 11.7218 1.50031 11.8601 1.50031 12C1.50031 12.1399 1.52965 12.2782 1.58646 12.4061C1.64326 12.5339 1.72625 12.6484 1.83006 12.7422L6.83006 17.2549C6.92689 17.3465 7.04107 17.4179 7.16588 17.4648C7.2907 17.5117 7.42363 17.5331 7.55686 17.5279C7.69008 17.5227 7.82092 17.4909 7.94167 17.4343C8.06242 17.3778 8.17065 17.2977 8.25998 17.1987C8.34932 17.0997 8.41796 16.9839 8.46188 16.858C8.5058 16.7321 8.5241 16.5987 8.5157 16.4656C8.50731 16.3326 8.4724 16.2025 8.41301 16.0831C8.35363 15.9638 8.27097 15.8575 8.16991 15.7705L3.99217 12L8.16991 8.22949C8.32113 8.09655 8.42871 7.92106 8.47856 7.72598C8.52842 7.5309 8.51823 7.32531 8.44932 7.13612C8.38042 6.94693 8.25601 6.78294 8.09238 6.66561C7.92875 6.54827 7.73351 6.48307 7.53221 6.47852ZM17.4375 6.47949C17.239 6.48997 17.0481 6.55938 16.8892 6.67885C16.7303 6.79833 16.6106 6.96245 16.5454 7.15026C16.4802 7.33808 16.4725 7.54106 16.5232 7.73329C16.5739 7.92551 16.6807 8.09827 16.8301 8.22949L21.0078 12L16.8301 15.7705C16.729 15.8575 16.6463 15.9638 16.587 16.0831C16.5276 16.2025 16.4927 16.3326 16.4843 16.4656C16.4759 16.5987 16.4942 16.7321 16.5381 16.858C16.582 16.9839 16.6506 17.0997 16.74 17.1987C16.8293 17.2977 16.9376 17.3778 17.0583 17.4343C17.1791 17.4909 17.3099 17.5227 17.4431 17.5279C17.5763 17.5331 17.7093 17.5117 17.8341 17.4648C17.9589 17.4179 18.0731 17.3465 18.1699 17.2549L23.1699 12.7422C23.2737 12.6484 23.3567 12.5339 23.4135 12.4061C23.4703 12.2782 23.4997 12.1399 23.4997 12C23.4997 11.8601 23.4703 11.7218 23.4135 11.5939C23.3567 11.4661 23.2737 11.3516 23.1699 11.2578L18.1699 6.74512C18.0718 6.65409 17.9564 6.58368 17.8306 6.53805C17.7048 6.49243 17.5711 6.47251 17.4375 6.47949Z" fill="#06B6D4"/>
</svg>