<svg  viewBox="0 0 18 18">
  <path d="M2.69995 9.00002C2.69995 8.25444 3.30437 7.65002 4.04995 7.65002C4.79554 7.65002 5.39995 8.25444 5.39995 9.00002C5.39995 9.74561 4.79554 10.35 4.04995 10.35C3.30437 10.35 2.69995 9.74561 2.69995 9.00002Z" fill="currentColor"/>
  <path d="M7.64995 9.00002C7.64995 8.25444 8.25437 7.65002 8.99995 7.65002C9.74554 7.65002 10.35 8.25444 10.35 9.00002C10.35 9.74561 9.74554 10.35 8.99995 10.35C8.25437 10.35 7.64995 9.74561 7.64995 9.00002Z" fill="currentColor"/>
  <path d="M13.95 7.65002C13.2044 7.65002 12.6 8.25444 12.6 9.00002C12.6 9.74561 13.2044 10.35 13.95 10.35C14.6955 10.35 15.3 9.74561 15.3 9.00002C15.3 8.25444 14.6955 7.65002 13.95 7.65002Z" fill="currentColor"/>
</svg>