<svg width="16" height="16" viewBox="0 0 16 16" >
  <path d="M8.60001 2.20001C8.60001 1.86864 8.33138 1.60001 8.00001 1.60001C7.66864 1.60001 7.40001 1.86864 7.40001 2.20001V9.09087L5.03622 6.58803C4.80869 6.34712 4.42894 6.33627 4.18803 6.5638C3.94712 6.79133 3.93627 7.17107 4.1638 7.41198L7.5638 11.012C7.67715 11.132 7.83493 11.2 8.00001 11.2C8.16508 11.2 8.32287 11.132 8.43622 11.012L11.8362 7.41198C12.0637 7.17107 12.0529 6.79133 11.812 6.5638C11.5711 6.33627 11.1913 6.34712 10.9638 6.58803L8.60001 9.09087V2.20001Z" fill="currentColor"/>
  <path d="M2.80001 10.2C2.80001 9.86864 2.53138 9.60001 2.20001 9.60001C1.86864 9.60001 1.60001 9.86864 1.60001 10.2V12.2C1.60001 13.415 2.58498 14.4 3.80001 14.4H12.2C13.415 14.4 14.4 13.415 14.4 12.2V10.2C14.4 9.86864 14.1314 9.60001 13.8 9.60001C13.4686 9.60001 13.2 9.86864 13.2 10.2V12.2C13.2 12.7523 12.7523 13.2 12.2 13.2H3.80001C3.24772 13.2 2.80001 12.7523 2.80001 12.2V10.2Z" fill="currentColor"/>
</svg>