<svg width="16" height="16" viewBox="0 0 16 16" fill="none" xmlns="http://www.w3.org/2000/svg">
  <path d="M6.16667 1.66666C5.16008 1.66666 4.33334 2.4934 4.33334 3.49999V10.8333C4.33334 11.8399 5.16008 12.6667 6.16667 12.6667H11.5C12.5066 12.6667 13.3333 11.8399 13.3333 10.8333V3.49999C13.3333 2.4934 12.5066 1.66666 11.5 1.66666H6.16667ZM6.16667 2.66666H11.5C11.9661 2.66666 12.3333 3.03391 12.3333 3.49999V10.8333C12.3333 11.2994 11.9661 11.6667 11.5 11.6667H6.16667C5.7006 11.6667 5.33334 11.2994 5.33334 10.8333V3.49999C5.33334 3.03391 5.7006 2.66666 6.16667 2.66666ZM3.66667 3.33332L3.26042 3.60416C2.88942 3.85149 2.66667 4.26786 2.66667 4.71353V11.1667C2.66667 12.9157 4.08434 14.3333 5.83334 14.3333H10.2865C10.7325 14.3333 11.1488 14.1106 11.3958 13.7396L11.6667 13.3333H5.83334C4.63667 13.3333 3.66667 12.3633 3.66667 11.1667V3.33332Z" fill="currentColor"/>
</svg>