<svg width="16" height="16" viewBox="0 0 16 16" fill="none" xmlns="http://www.w3.org/2000/svg">
  <path d="M4.34642 11.1334L5.35585 8.60987C5.5168 8.2075 5.7578 7.84202 6.06424 7.53558L11.5996 2.0006C12.2623 1.33785 13.3368 1.33786 13.9996 2.0006C14.6623 2.66334 14.6623 3.73786 13.9996 4.4006L8.46424 9.93558C8.1578 10.242 7.79231 10.483 7.38994 10.644L4.86637 11.6534C4.53984 11.784 4.21581 11.46 4.34642 11.1334Z" fill="currentColor"/>
  <path d="M2.79998 4.60002C2.79998 4.04774 3.24769 3.60002 3.79998 3.60002H7.99998C8.33135 3.60002 8.59998 3.3314 8.59998 3.00002C8.59998 2.66865 8.33135 2.40002 7.99998 2.40002H3.79998C2.58495 2.40002 1.59998 3.385 1.59998 4.60002V12.2C1.59998 13.4151 2.58495 14.4 3.79998 14.4H11.4C12.615 14.4 13.6 13.4151 13.6 12.2V8.00002C13.6 7.66865 13.3313 7.40002 13 7.40002C12.6686 7.40002 12.4 7.66865 12.4 8.00002V12.2C12.4 12.7523 11.9523 13.2 11.4 13.2H3.79998C3.24769 13.2 2.79998 12.7523 2.79998 12.2V4.60002Z" fill="currentColor"/>
</svg>