<svg xmlns="http://www.w3.org/2000/svg" width="20" height="20" viewBox="0 0 20 20" fill="none">
  <path d="M15 2.0874C14.2522 2.0874 13.5045 2.37089 12.9378 2.93783L3.715 12.1598C3.54001 12.3348 3.41185 12.5524 3.3439 12.7913L2.10774 17.12C2.07725 17.2271 2.07594 17.3404 2.10393 17.4482C2.13191 17.556 2.18819 17.6543 2.26694 17.7331C2.34569 17.8118 2.44404 17.8681 2.55183 17.8961C2.65962 17.9241 2.77293 17.9227 2.88004 17.8923L7.20946 16.6561C7.20974 16.6558 7.21001 16.6555 7.21028 16.6553C7.44758 16.5871 7.66466 16.4605 7.84016 16.285L17.0622 7.06217C18.196 5.92837 18.196 4.07163 17.0622 2.93783C16.4955 2.37089 15.7478 2.0874 15 2.0874ZM15 3.33008C15.4253 3.33008 15.8501 3.49397 16.1776 3.82161C16.1778 3.82161 16.1781 3.82161 16.1784 3.82161C16.8346 4.47781 16.8346 5.52219 16.1784 6.17839L15.3703 6.98649L13.0135 4.62972L13.8216 3.82161C14.1491 3.49397 14.5747 3.33008 15 3.33008ZM12.1297 5.51351L14.4865 7.87028L6.95556 15.4012C6.93113 15.4255 6.90019 15.444 6.86523 15.4541L3.61816 16.3818L4.54589 13.134C4.54589 13.1337 4.54589 13.1334 4.54589 13.1331C4.55544 13.0995 4.57294 13.0695 4.59879 13.0436L12.1297 5.51351Z" fill="#A3A3A3"/>
</svg>