<svg width="250" height="120" viewBox="0 0 250 120" fill="none" xmlns="http://www.w3.org/2000/svg">
<path d="M120 64.5403H129.5C129.139 61.8136 130.041 59.5326 132.204 57.6972C134.688 55.6506 137.637 56.1094 139.22 56.8156C140.804 57.5218 141.98 58.4921 142.796 60.323C143.141 61.0939 143.376 61.7461 143.5 62.2796" stroke="#DBEAFE" stroke-width="3" stroke-linecap="round"/>
<path d="M139.5 66.0475C140.028 64.2119 141.111 63.0118 142.75 62.4471C145.209 61.6001 147.54 62.7281 148.471 63.8631C149.402 64.9981 149.698 65.9098 149.873 66.8613C149.99 67.4957 150.033 68.2291 150 69.0617H152.082C154.018 69.5784 154.994 70.73 155.008 72.5167C155.032 75.7064 152.695 76.5001 151.5 76.5001H112" stroke="#DBEAFE" stroke-width="3" stroke-linecap="round"/>
<path d="M107 70.5H139.5" stroke="#DBEAFE" stroke-width="3" stroke-linecap="round"/>
<path d="M98 70.5H102" stroke="#DBEAFE" stroke-width="3" stroke-linecap="round"/>
<path d="M71 37.5403H80.5C80.1395 34.8136 81.0408 32.5326 83.2039 30.6972C85.6877 28.6506 88.6367 29.1094 90.2205 29.8156C91.8042 30.5218 92.9803 31.4921 93.7957 33.323C94.1411 34.0939 94.3759 34.7461 94.5 35.2796" stroke="#DBEAFE" stroke-width="3" stroke-linecap="round"/>
<path d="M90.5 39.0475C91.0279 37.2119 92.1114 36.0118 93.7504 35.4471C96.2089 34.6001 98.54 35.7281 99.4712 36.8631C100.402 37.9981 100.698 38.9098 100.873 39.8613C100.99 40.4957 101.033 41.2291 101 42.0617H103.082C105.018 42.5784 105.994 43.73 106.008 45.5167C106.032 48.7064 103.695 49.5001 102.5 49.5001H63" stroke="#DBEAFE" stroke-width="3" stroke-linecap="round"/>
<path d="M58 43.5H90.5002" stroke="#DBEAFE" stroke-width="3" stroke-linecap="round"/>
<path d="M49 43.5H53" stroke="#DBEAFE" stroke-width="3" stroke-linecap="round"/>
<path d="M17 102.5H242" stroke="#DBEAFE" stroke-width="3" stroke-linecap="round"/>
<path d="M9 102.5H12" stroke="#DBEAFE" stroke-width="3" stroke-linecap="round"/>
<path d="M127.25 101.967L149.5 83.8816L166.5 96.9432" stroke="#DBEAFE" stroke-width="3" stroke-linecap="round" stroke-linejoin="round"/>
<path d="M149.5 84.3839V101.464" stroke="#DBEAFE" stroke-width="3" stroke-linecap="round" stroke-linejoin="round"/>
<path fill-rule="evenodd" clip-rule="evenodd" d="M166.75 89.4077C166.75 94.3027 166.75 96.8145 166.75 96.9433C166.75 96.8145 166.75 94.3027 166.75 89.4077Z" stroke="#DBEAFE" stroke-width="3" stroke-linecap="round" stroke-linejoin="round"/>
<path d="M161.75 92.4219L166.75 88.403L183.75 101.967" stroke="#DBEAFE" stroke-width="3" stroke-linecap="round" stroke-linejoin="round"/>
<path fill-rule="evenodd" clip-rule="evenodd" d="M61.5 78.4999V53.9999C61.5 50.6862 64.1863 47.9999 67.5 47.9999C70.8137 47.9999 73.5 50.6862 73.5 53.9999V69.4999H81.5V62.7629C81.5 60.5538 83.2909 58.7629 85.5 58.7629C87.7091 58.7629 89.5 60.5538 89.5 62.7629V74.4999C89.5 76.1567 88.1569 77.4999 86.5 77.4999H73.5V107.5C73.5 108.052 73.0523 108.5 72.5 108.5H62.5C61.9477 108.5 61.5 108.052 61.5 107.5V86.4999H49.5C47.8431 86.4999 46.5 85.1567 46.5 83.4999V68.7913C46.5 66.5822 48.2909 64.7913 50.5 64.7913C52.7091 64.7913 54.5 66.5822 54.5 68.7913V78.4999H61.5Z" fill="#DBEAFE"/>
<path fill-rule="evenodd" clip-rule="evenodd" d="M70.5 89.4999H78.5V85.3719C78.5 83.439 80.067 81.8719 82 81.8719C83.933 81.8719 85.5 83.439 85.5 85.3719V93.4999C85.5 95.1568 84.1569 96.4999 82.5 96.4999H70.5" fill="#DBEAFE"/>
<path d="M32 108.5H210" stroke="#93C5FD" stroke-width="3" stroke-linecap="round"/>
<path d="M215.25 108.5H220.026" stroke="#93C5FD" stroke-width="3" stroke-linecap="round"/>
<path d="M71 89.496H76" stroke="#93C5FD" stroke-width="3" stroke-linecap="round"/>
<path d="M71 96.496H76" stroke="#93C5FD" stroke-width="3" stroke-linecap="round"/>
<path fill-rule="evenodd" clip-rule="evenodd" d="M73.5 89.4999V77.4999H86.5C88.1569 77.4999 89.5 76.1567 89.5 74.4999V62.7629C89.5 60.5538 87.7091 58.7629 85.5 58.7629C83.2909 58.7629 81.5 60.5538 81.5 62.7629V69.4999H73.5V53.9999C73.5 50.6862 70.8137 47.9999 67.5 47.9999C64.1863 47.9999 61.5 50.6862 61.5 53.9999V78.4999H54.5V68.7913C54.5 66.5822 52.7091 64.7913 50.5 64.7913C48.2909 64.7913 46.5 66.5822 46.5 68.7913V83.4999C46.5 85.1567 47.8431 86.4999 49.5 86.4999H61.5V107.5C61.5 108.052 61.9477 108.5 62.5 108.5H72.5C73.0523 108.5 73.5 108.052 73.5 107.5V96.4999H82.5C84.1569 96.4999 85.5 95.1567 85.5 93.4999V85.3719C85.5 83.4389 83.933 81.8719 82 81.8719C80.067 81.8719 78.5 83.4389 78.5 85.3719V89.4999H73.5Z" stroke="#93C5FD" stroke-width="3"/>
<path d="M71.5 48.5526L74.3284 45.7108" stroke="#93C5FD" stroke-width="3" stroke-linecap="round"/>
<path d="M63.3284 48.5526L60.5 45.7108" stroke="#93C5FD" stroke-width="3" stroke-linecap="round"/>
<path d="M67.5 43.199V47.2179" stroke="#93C5FD" stroke-width="3" stroke-linecap="round"/>
<path d="M85.5 54.744V58.763" stroke="#93C5FD" stroke-width="3" stroke-linecap="round"/>
<path d="M88.5 59.0977L91.3284 56.2559" stroke="#93C5FD" stroke-width="3" stroke-linecap="round"/>
<path d="M50.5 60.7725V64.7914" stroke="#93C5FD" stroke-width="3" stroke-linecap="round"/>
<path d="M54 66.1261L56.8284 63.2843" stroke="#93C5FD" stroke-width="3" stroke-linecap="round"/>
<path d="M47.3284 66.1261L44.5 63.2843" stroke="#93C5FD" stroke-width="3" stroke-linecap="round"/>
<path d="M196.5 78.8578V101.967" stroke="#DBEAFE" stroke-width="3" stroke-linecap="round"/>
<path d="M195.5 86.5H190.5V77" stroke="#DBEAFE" stroke-width="3" stroke-linecap="round" stroke-linejoin="round"/>
<path d="M197 89.5H202.5V81" stroke="#DBEAFE" stroke-width="3" stroke-linecap="round" stroke-linejoin="round"/>
<path d="M191.5 92.5V96.5H195.5" stroke="#DBEAFE" stroke-width="3" stroke-linecap="round" stroke-linejoin="round"/>
<path fill-rule="evenodd" clip-rule="evenodd" d="M188.098 20.236C180.111 10.7168 165.882 9.50588 156.318 17.5313C146.753 25.5567 145.475 39.7794 153.463 49.2985C161.45 58.8177 175.679 60.0287 185.243 52.0033C194.807 43.9779 196.086 29.7552 188.098 20.236Z" stroke="#DBEAFE" stroke-width="3" stroke-linecap="round" stroke-linejoin="round" stroke-dasharray="67.5 0.5 0.5 9"/>
<path fill-rule="evenodd" clip-rule="evenodd" d="M162.289 20.25C154.398 24.8063 151.711 34.9279 156.289 42.8571C160.867 50.7863 170.976 53.5206 178.868 48.9642C186.759 44.4079 189.446 34.2863 184.868 26.3571C180.29 18.4279 170.181 15.6936 162.289 20.25Z" stroke="#DBEAFE" stroke-width="3" stroke-linecap="round" stroke-linejoin="round" stroke-dasharray="53.5 5"/>
<path d="M170.5 45.6185C176.575 45.6185 181.5 40.6671 181.5 34.5592C181.5 28.4514 176.575 23.5 170.5 23.5C164.425 23.5 159.5 28.4514 159.5 34.5592C159.5 40.6671 164.425 45.6185 170.5 45.6185Z" fill="#DBEAFE" stroke="#93C5FD" stroke-width="3"/>
</svg>
