<svg width="14" height="13" viewBox="0 0 14 13">
  <path fill-rule="evenodd" clip-rule="evenodd" d="M2.39998 3.39998C2.0686 3.39998 1.79998 3.66861 1.79998 3.99998V10.8C1.79998 11.1313 2.0686 11.4 2.39998 11.4H9.19998C9.53135 11.4 9.79998 11.1313 9.79998 10.8V7.59998C9.79998 7.2686 10.0686 6.99998 10.4 6.99998C10.7313 6.99998 11 7.2686 11 7.59998V10.8C11 11.7941 10.1941 12.6 9.19998 12.6H2.39998C1.40586 12.6 0.599976 11.7941 0.599976 10.8V3.99998C0.599976 3.00586 1.40586 2.19998 2.39998 2.19998H6.39998C6.73135 2.19998 6.99998 2.4686 6.99998 2.79998C6.99998 3.13135 6.73135 3.39998 6.39998 3.39998H2.39998Z" fill="currentColor"/>
  <path fill-rule="evenodd" clip-rule="evenodd" d="M3.95505 9.20252C4.17738 9.44825 4.5568 9.46722 4.80252 9.2449L12.2 2.55196V4.79998C12.2 5.13135 12.4686 5.39998 12.8 5.39998C13.1313 5.39998 13.4 5.13135 13.4 4.79998V1.19998C13.4 0.868605 13.1313 0.599976 12.8 0.599976H9.19998C8.8686 0.599976 8.59998 0.868605 8.59998 1.19998C8.59998 1.53135 8.8686 1.79998 9.19998 1.79998H11.2425L3.99743 8.35505C3.7517 8.57737 3.73273 8.9568 3.95505 9.20252Z" fill="currentColor"/>
</svg>