<svg width="16" height="16" viewBox="0 0 16 16" fill="none" xmlns="http://www.w3.org/2000/svg">
<path d="M8 10C9.10457 10 10 9.10459 10 8.00002C10 6.89546 9.10457 6.00002 8 6.00002C6.89543 6.00002 6 6.89546 6 8.00002C6 9.10459 6.89543 10 8 10Z" fill="#64748B"/>
<path fill-rule="evenodd" clip-rule="evenodd" d="M0.531404 8.47233C0.413913 8.16701 0.414015 7.82853 0.531688 7.52329C1.68702 4.52633 4.59464 2.40002 7.99887 2.40002C11.4048 2.40002 14.3136 4.52843 15.4678 7.52772C15.5853 7.83304 15.5852 8.17152 15.4675 8.47677C14.3121 11.4737 11.4045 13.6 8.0003 13.6C4.59438 13.6 1.68558 11.4716 0.531404 8.47233ZM11.2003 8.00002C11.2003 9.76734 9.76761 11.2 8.0003 11.2C6.23299 11.2 4.8003 9.76734 4.8003 8.00002C4.8003 6.23271 6.23299 4.80002 8.0003 4.80002C9.76761 4.80002 11.2003 6.23271 11.2003 8.00002Z" fill="#64748B"/>
</svg>
