<svg width="16" height="16" viewBox="0 0 16 16">
  <path d="M2.83333 2C2.3788 2 2 2.3788 2 2.83333V3.86328C2 4.62883 2.35183 5.35295 2.95312 5.82682C2.95378 5.82726 2.95443 5.82769 2.95508 5.82812L6.33333 8.46419V13.5C6.33338 13.5918 6.35871 13.6819 6.40654 13.7602C6.45437 13.8386 6.52286 13.9023 6.6045 13.9443C6.68613 13.9864 6.77777 14.0051 6.86935 13.9985C6.96094 13.9919 7.04894 13.9602 7.1237 13.9069L9.45703 12.2402C9.52184 12.194 9.57468 12.133 9.61114 12.0622C9.6476 11.9914 9.66664 11.9129 9.66667 11.8333V8.46419L13.0449 5.82812C13.0456 5.82769 13.0462 5.82726 13.0469 5.82682C13.6482 5.35294 14 4.62883 14 3.86328V2.83333C14 2.3788 13.6212 2 13.1667 2H2.83333ZM3 3H13V3.86328C13 4.32306 12.7898 4.75623 12.4284 5.04102L8.85938 7.82552C8.79935 7.87229 8.7508 7.93213 8.7174 8.0005C8.68401 8.06887 8.66665 8.14396 8.66667 8.22005V11.5762L7.33333 12.5286V8.22005C7.33335 8.14396 7.31599 8.06887 7.2826 8.0005C7.2492 7.93213 7.20065 7.87229 7.14062 7.82552L3.57161 5.04102C3.21025 4.75623 3 4.32306 3 3.86328V3Z" fill="currentColor"/>
</svg>