<svg  viewBox="0 0 18 18" >
  <path fill-rule="evenodd" clip-rule="evenodd" d="M3.37505 2.70001C2.5052 2.70001 1.80005 3.40516 1.80005 4.27501V13.725C1.80005 14.5949 2.5052 15.3 3.37505 15.3H14.625C15.4949 15.3 16.2 14.5949 16.2 13.725V6.07501C16.2 5.20516 15.4949 4.50001 14.625 4.50001H10.2728C10.2132 4.50001 10.1559 4.47631 10.1137 4.43411L8.84095 3.16132C8.54558 2.86595 8.14497 2.70001 7.72726 2.70001H3.37505ZM9.00005 7.12501C9.41426 7.12501 9.75005 7.4608 9.75005 7.87501V9.15001H11.025C11.4393 9.15001 11.775 9.4858 11.775 9.90001C11.775 10.3142 11.4393 10.65 11.025 10.65H9.75005V11.925C9.75005 12.3392 9.41426 12.675 9.00005 12.675C8.58583 12.675 8.25005 12.3392 8.25005 11.925V10.65H6.97505C6.56084 10.65 6.22505 10.3142 6.22505 9.90001C6.22505 9.4858 6.56084 9.15001 6.97505 9.15001H8.25005V7.87501C8.25005 7.4608 8.58583 7.12501 9.00005 7.12501Z" fill="currentColor"/>
</svg>