<svg xmlns="http://www.w3.org/2000/svg" width="20" height="20" viewBox="0 0 20 20" fill="none">
  <path d="M3.54163 3.33331C2.5135 3.33331 1.66663 4.18019 1.66663 5.20831V15.1693H1.67314C1.66101 15.9487 2.29512 16.6666 3.12577 16.6666H15.2278C16.007 16.6666 16.7095 16.1804 16.9832 15.4508L19.0698 9.89581V9.89419C19.4264 8.959 18.7086 7.91665 17.7075 7.91665H17.5V7.29165C17.5 6.26352 16.6531 5.41665 15.625 5.41665H10.0179L8.15588 3.86473C8.15561 3.86473 8.15534 3.86473 8.15507 3.86473C7.74334 3.52169 7.22461 3.33331 6.6886 3.33331H3.54163ZM3.54163 4.58331H6.6886C6.93259 4.58331 7.16769 4.66888 7.3551 4.82501L9.39124 6.52179C9.50363 6.61545 9.64532 6.66671 9.79163 6.66665H15.625C15.9777 6.66665 16.25 6.93894 16.25 7.29165V7.91665H5.60543C4.82626 7.91665 4.1238 8.4029 3.85006 9.13247L2.91663 11.6178V5.20831C2.91663 4.85561 3.18892 4.58331 3.54163 4.58331ZM5.60543 9.16665H17.7075C17.8741 9.16665 17.9614 9.29379 17.902 9.44904C17.9014 9.45039 17.9009 9.45175 17.9004 9.4531L15.8129 15.0114C15.7209 15.2568 15.4903 15.4166 15.2278 15.4166H3.12577C2.96006 15.4166 2.87228 15.2904 2.93046 15.1359C2.93073 15.1356 2.931 15.1353 2.93127 15.1351L5.0203 9.57192C5.11239 9.32649 5.34293 9.16665 5.60543 9.16665Z" fill="#A3A3A3"/>
</svg>