<svg width="16" height="16" viewBox="0 0 16 16" >
  <path d="M4.19998 9.59998C4.19998 9.26861 4.4686 8.99998 4.79998 8.99998H4.80798C5.13935 8.99998 5.40798 9.26861 5.40798 9.59998V9.60798C5.40798 9.93935 5.13935 10.208 4.80798 10.208H4.79998C4.4686 10.208 4.19998 9.93935 4.19998 9.60798V9.59998Z" fill="currentColor"/>
  <path d="M4.79998 10.6C4.4686 10.6 4.19998 10.8686 4.19998 11.2V11.208C4.19998 11.5393 4.4686 11.808 4.79998 11.808H4.80798C5.13935 11.808 5.40798 11.5393 5.40798 11.208V11.2C5.40798 10.8686 5.13935 10.6 4.80798 10.6H4.79998Z" fill="currentColor"/>
  <path d="M5.79998 9.59998C5.79998 9.26861 6.0686 8.99998 6.39998 8.99998H6.40798C6.73935 8.99998 7.00798 9.26861 7.00798 9.59998V9.60798C7.00798 9.93935 6.73935 10.208 6.40798 10.208H6.39998C6.0686 10.208 5.79998 9.93935 5.79998 9.60798V9.59998Z" fill="currentColor"/>
  <path d="M6.39998 10.6C6.0686 10.6 5.79998 10.8686 5.79998 11.2V11.208C5.79998 11.5393 6.0686 11.808 6.39998 11.808H6.40798C6.73935 11.808 7.00798 11.5393 7.00798 11.208V11.2C7.00798 10.8686 6.73935 10.6 6.40798 10.6H6.39998Z" fill="currentColor"/>
  <path d="M7.39998 7.99998C7.39998 7.6686 7.6686 7.39998 7.99998 7.39998H8.00798C8.33935 7.39998 8.60798 7.6686 8.60798 7.99998V8.00798C8.60798 8.33935 8.33935 8.60798 8.00798 8.60798H7.99998C7.6686 8.60798 7.39998 8.33935 7.39998 8.00798V7.99998Z" fill="currentColor"/>
  <path d="M7.99998 8.99998C7.6686 8.99998 7.39998 9.26861 7.39998 9.59998V9.60798C7.39998 9.93935 7.6686 10.208 7.99998 10.208H8.00798C8.33935 10.208 8.60798 9.93935 8.60798 9.60798V9.59998C8.60798 9.26861 8.33935 8.99998 8.00798 8.99998H7.99998Z" fill="currentColor"/>
  <path d="M7.39998 11.2C7.39998 10.8686 7.6686 10.6 7.99998 10.6H8.00798C8.33935 10.6 8.60798 10.8686 8.60798 11.2V11.208C8.60798 11.5393 8.33935 11.808 8.00798 11.808H7.99998C7.6686 11.808 7.39998 11.5393 7.39998 11.208V11.2Z" fill="currentColor"/>
  <path d="M9.59998 7.39998C9.26861 7.39998 8.99998 7.6686 8.99998 7.99998V8.00798C8.99998 8.33935 9.26861 8.60798 9.59998 8.60798H9.60798C9.93935 8.60798 10.208 8.33935 10.208 8.00798V7.99998C10.208 7.6686 9.93935 7.39998 9.60798 7.39998H9.59998Z" fill="currentColor"/>
  <path d="M8.99998 9.59998C8.99998 9.26861 9.26861 8.99998 9.59998 8.99998H9.60798C9.93935 8.99998 10.208 9.26861 10.208 9.59998V9.60798C10.208 9.93935 9.93935 10.208 9.60798 10.208H9.59998C9.26861 10.208 8.99998 9.93935 8.99998 9.60798V9.59998Z" fill="currentColor"/>
  <path d="M9.59998 10.6C9.26861 10.6 8.99998 10.8686 8.99998 11.2V11.208C8.99998 11.5393 9.26861 11.808 9.59998 11.808H9.60798C9.93935 11.808 10.208 11.5393 10.208 11.208V11.2C10.208 10.8686 9.93935 10.6 9.60798 10.6H9.59998Z" fill="currentColor"/>
  <path d="M10.6 7.99998C10.6 7.6686 10.8686 7.39998 11.2 7.39998H11.208C11.5393 7.39998 11.808 7.6686 11.808 7.99998V8.00798C11.808 8.33935 11.5393 8.60798 11.208 8.60798H11.2C10.8686 8.60798 10.6 8.33935 10.6 8.00798V7.99998Z" fill="currentColor"/>
  <path d="M11.2 8.99998C10.8686 8.99998 10.6 9.26861 10.6 9.59998V9.60798C10.6 9.93935 10.8686 10.208 11.2 10.208H11.208C11.5393 10.208 11.808 9.93935 11.808 9.60798V9.59998C11.808 9.26861 11.5393 8.99998 11.208 8.99998H11.2Z" fill="currentColor"/>
  <path fill-rule="evenodd" clip-rule="evenodd" d="M4.59998 1.59998C4.93135 1.59998 5.19998 1.8686 5.19998 2.19998V3.19998H10.8V2.19998C10.8 1.8686 11.0686 1.59998 11.4 1.59998C11.7313 1.59998 12 1.8686 12 2.19998V3.19998H12.2C13.415 3.19998 14.4 4.18495 14.4 5.39998V12.2C14.4 13.415 13.415 14.4 12.2 14.4H3.79998C2.58495 14.4 1.59998 13.415 1.59998 12.2V5.39998C1.59998 4.18495 2.58495 3.19998 3.79998 3.19998H3.99998V2.19998C3.99998 1.8686 4.2686 1.59998 4.59998 1.59998ZM3.79998 5.99998C3.24769 5.99998 2.79998 6.44769 2.79998 6.99998V12.2C2.79998 12.7523 3.24769 13.2 3.79998 13.2H12.2C12.7523 13.2 13.2 12.7523 13.2 12.2V6.99998C13.2 6.44769 12.7523 5.99998 12.2 5.99998H3.79998Z" fill="currentColor"/>
</svg>