<svg xmlns="http://www.w3.org/2000/svg" width="20" height="20" viewBox="0 0 20 20" fill="none">
  <path d="M9.97965 1.66667C9.84639 1.67122 9.71807 1.71827 9.61344 1.80095L3.69141 6.46647C2.93978 7.05882 2.5 7.96396 2.5 8.9209V16.875C2.5 17.4432 2.9735 17.9167 3.54167 17.9167H7.70833C8.2765 17.9167 8.75 17.4432 8.75 16.875V12.7083C8.75 12.5854 8.8354 12.5 8.95833 12.5H11.0417C11.1646 12.5 11.25 12.5854 11.25 12.7083V16.875C11.25 17.4432 11.7235 17.9167 12.2917 17.9167H16.4583C17.0265 17.9167 17.5 17.4432 17.5 16.875V8.9209C17.5 7.96396 17.0602 7.05882 16.3086 6.46647L10.3866 1.80095C10.271 1.70964 10.1269 1.66209 9.97965 1.66667ZM10 3.08757L15.5355 7.44873C15.9872 7.80472 16.25 8.34617 16.25 8.9209V16.6667H12.5V12.7083C12.5 11.9104 11.8396 11.25 11.0417 11.25H8.95833C8.16044 11.25 7.5 11.9104 7.5 12.7083V16.6667H3.75V8.9209C3.75 8.34617 4.01281 7.80472 4.46452 7.44873L10 3.08757Z" fill="#A3A3A3"/>
</svg>