<svg width="41" height="40" viewBox="0 0 41 40" fill="none" xmlns="http://www.w3.org/2000/svg">
<path d="M22.4926 37.5C23.9076 36.504 24.8336 34.858 24.8336 33V5.5H37.8336V33C37.8336 35.481 35.8146 37.5 33.3336 37.5H22.4926Z" fill="#BFDBFE"/>
<path d="M37.3335 6V33C37.3335 35.206 35.5395 37 33.3335 37H23.8015C24.7535 35.938 25.3335 34.535 25.3335 33V6H37.3335ZM38.3335 5H24.3335V33C24.3335 35.761 22.0945 38 19.3335 38H33.3335C36.0945 38 38.3335 35.761 38.3335 33V5Z" fill="#3B82F6"/>
<path d="M7.3335 37.5C4.8525 37.5 2.8335 35.481 2.8335 33V1.5H28.8335V33C28.8335 35.313 30.5865 37.223 32.8335 37.472V37.5H7.3335Z" fill="#DBEAFE"/>
<path d="M28.3335 2V33C28.3335 34.634 29.1215 36.087 30.3365 37H7.3335C5.1275 37 3.3335 35.206 3.3335 33V2H28.3335ZM29.3335 1H2.3335V33C2.3335 35.761 4.5725 38 7.3335 38H33.3335V37C31.1245 37 29.3335 35.209 29.3335 33V1Z" fill="#3B82F6"/>
<path d="M33.8335 11H28.8335C28.5585 11 28.3335 10.775 28.3335 10.5C28.3335 10.225 28.5585 10 28.8335 10H33.8335C34.1085 10 34.3335 10.225 34.3335 10.5C34.3335 10.775 34.1085 11 33.8335 11ZM33.8335 14H28.8335C28.5585 14 28.3335 13.775 28.3335 13.5C28.3335 13.225 28.5585 13 28.8335 13H33.8335C34.1085 13 34.3335 13.225 34.3335 13.5C34.3335 13.775 34.1085 14 33.8335 14ZM33.8335 17H28.8335C28.5585 17 28.3335 16.775 28.3335 16.5C28.3335 16.225 28.5585 16 28.8335 16H33.8335C34.1085 16 34.3335 16.225 34.3335 16.5C34.3335 16.775 34.1085 17 33.8335 17ZM33.8335 20H28.8335C28.5585 20 28.3335 19.775 28.3335 19.5C28.3335 19.225 28.5585 19 28.8335 19H33.8335C34.1085 19 34.3335 19.225 34.3335 19.5C34.3335 19.775 34.1085 20 33.8335 20ZM33.8335 23H28.8335C28.5585 23 28.3335 22.775 28.3335 22.5C28.3335 22.225 28.5585 22 28.8335 22H33.8335C34.1085 22 34.3335 22.225 34.3335 22.5C34.3335 22.775 34.1085 23 33.8335 23ZM33.8335 26H28.8335C28.5585 26 28.3335 25.775 28.3335 25.5C28.3335 25.225 28.5585 25 28.8335 25H33.8335C34.1085 25 34.3335 25.225 34.3335 25.5C34.3335 25.775 34.1085 26 33.8335 26ZM33.8335 29H28.8335C28.5585 29 28.3335 28.775 28.3335 28.5C28.3335 28.225 28.5585 28 28.8335 28H33.8335C34.1085 28 34.3335 28.225 34.3335 28.5C34.3335 28.775 34.1085 29 33.8335 29ZM33.8335 32H28.8335C28.5585 32 28.3335 31.775 28.3335 31.5C28.3335 31.225 28.5585 31 28.8335 31H33.8335C34.1085 31 34.3335 31.225 34.3335 31.5C34.3335 31.775 34.1085 32 33.8335 32Z" fill="#3B82F6"/>
<path d="M23.8335 12H17.8335C17.5585 12 17.3335 11.775 17.3335 11.5C17.3335 11.225 17.5585 11 17.8335 11H23.8335C24.1085 11 24.3335 11.225 24.3335 11.5C24.3335 11.775 24.1085 12 23.8335 12ZM23.8335 15H17.8335C17.5585 15 17.3335 14.775 17.3335 14.5C17.3335 14.225 17.5585 14 17.8335 14H23.8335C24.1085 14 24.3335 14.225 24.3335 14.5C24.3335 14.775 24.1085 15 23.8335 15ZM23.8335 18H17.8335C17.5585 18 17.3335 17.775 17.3335 17.5C17.3335 17.225 17.5585 17 17.8335 17H23.8335C24.1085 17 24.3335 17.225 24.3335 17.5C24.3335 17.775 24.1085 18 23.8335 18ZM23.8335 21H17.8335C17.5585 21 17.3335 20.775 17.3335 20.5C17.3335 20.225 17.5585 20 17.8335 20H23.8335C24.1085 20 24.3335 20.225 24.3335 20.5C24.3335 20.775 24.1085 21 23.8335 21ZM23.8335 24H17.8335C17.5585 24 17.3335 23.775 17.3335 23.5C17.3335 23.225 17.5585 23 17.8335 23H23.8335C24.1085 23 24.3335 23.225 24.3335 23.5C24.3335 23.775 24.1085 24 23.8335 24ZM23.8335 27H17.8335C17.5585 27 17.3335 26.775 17.3335 26.5C17.3335 26.225 17.5585 26 17.8335 26H23.8335C24.1085 26 24.3335 26.225 24.3335 26.5C24.3335 26.775 24.1085 27 23.8335 27ZM23.8335 30H17.8335C17.5585 30 17.3335 29.775 17.3335 29.5C17.3335 29.225 17.5585 29 17.8335 29H23.8335C24.1085 29 24.3335 29.225 24.3335 29.5C24.3335 29.775 24.1085 30 23.8335 30ZM23.8335 33H17.8335C17.5585 33 17.3335 32.775 17.3335 32.5C17.3335 32.225 17.5585 32 17.8335 32H23.8335C24.1085 32 24.3335 32.225 24.3335 32.5C24.3335 32.775 24.1085 33 23.8335 33Z" fill="#3B82F6"/>
<path d="M13.8335 12H7.8335C7.5585 12 7.3335 11.775 7.3335 11.5C7.3335 11.225 7.5585 11 7.8335 11H13.8335C14.1085 11 14.3335 11.225 14.3335 11.5C14.3335 11.775 14.1085 12 13.8335 12ZM13.8335 15H7.8335C7.5585 15 7.3335 14.775 7.3335 14.5C7.3335 14.225 7.5585 14 7.8335 14H13.8335C14.1085 14 14.3335 14.225 14.3335 14.5C14.3335 14.775 14.1085 15 13.8335 15ZM13.8335 18H7.8335C7.5585 18 7.3335 17.775 7.3335 17.5C7.3335 17.225 7.5585 17 7.8335 17H13.8335C14.1085 17 14.3335 17.225 14.3335 17.5C14.3335 17.775 14.1085 18 13.8335 18ZM13.8335 21H7.8335C7.5585 21 7.3335 20.775 7.3335 20.5C7.3335 20.225 7.5585 20 7.8335 20H13.8335C14.1085 20 14.3335 20.225 14.3335 20.5C14.3335 20.775 14.1085 21 13.8335 21ZM13.8335 24H7.8335C7.5585 24 7.3335 23.775 7.3335 23.5C7.3335 23.225 7.5585 23 7.8335 23H13.8335C14.1085 23 14.3335 23.225 14.3335 23.5C14.3335 23.775 14.1085 24 13.8335 24ZM13.8335 27H7.8335C7.5585 27 7.3335 26.775 7.3335 26.5C7.3335 26.225 7.5585 26 7.8335 26H13.8335C14.1085 26 14.3335 26.225 14.3335 26.5C14.3335 26.775 14.1085 27 13.8335 27ZM13.8335 30H7.8335C7.5585 30 7.3335 29.775 7.3335 29.5C7.3335 29.225 7.5585 29 7.8335 29H13.8335C14.1085 29 14.3335 29.225 14.3335 29.5C14.3335 29.775 14.1085 30 13.8335 30ZM13.8335 33H7.8335C7.5585 33 7.3335 32.775 7.3335 32.5C7.3335 32.225 7.5585 32 7.8335 32H13.8335C14.1085 32 14.3335 32.225 14.3335 32.5C14.3335 32.775 14.1085 33 13.8335 33Z" fill="#3B82F6"/>
<path d="M23.3335 8H8.3335C7.7835 8 7.3335 7.55 7.3335 7C7.3335 6.45 7.7835 6 8.3335 6H23.3335C23.8835 6 24.3335 6.45 24.3335 7C24.3335 7.55 23.8835 8 23.3335 8Z" fill="#3B82F6"/>
</svg>
