<svg xmlns="http://www.w3.org/2000/svg" width="20" height="20" viewBox="0 0 20 20" fill="none">
  <path d="M9.6989 1.67399C6.33078 1.83263 3.75 4.72641 3.75 8.07536V11.1035L2.64567 13.3252C2.64373 13.3292 2.64183 13.3333 2.63998 13.3374C2.1957 14.2822 2.91488 15.4167 3.95915 15.4167H7.5C7.5 16.7899 8.62673 17.9167 10 17.9167C11.3733 17.9167 12.5 16.7899 12.5 15.4167H16.04C17.0843 15.4167 17.8044 14.2824 17.36 13.3374C17.3582 13.3333 17.3563 13.3292 17.3543 13.3252L16.25 11.1035V7.91667C16.25 4.37242 13.2764 1.50557 9.6989 1.67399ZM9.75749 2.92236C12.6408 2.78662 15 5.06758 15 7.91667V11.25C14.9999 11.3466 15.0222 11.4418 15.0651 11.5283L16.2288 13.8704C16.3037 14.0308 16.2171 14.1667 16.04 14.1667H3.95915C3.7821 14.1667 3.69621 14.0311 3.77116 13.8704V13.8696L4.9349 11.5283C4.9778 11.4418 5.00009 11.3466 5 11.25V8.07536C5 5.3668 7.07477 3.04872 9.75749 2.92236ZM8.75 15.4167H11.25C11.25 16.1142 10.6976 16.6667 10 16.6667C9.30245 16.6667 8.75 16.1142 8.75 15.4167Z" fill="#A3A3A3"/>
</svg>