<svg xmlns="http://www.w3.org/2000/svg" width="24" height="24" viewBox="0 0 24 24" fill="none">
  <path d="M19.249 18H4.75101C4.14851 18 3.59601 17.6965 3.27351 17.1875C2.95101 16.6785 2.91101 16.05 3.16751 15.505L4.50001 12.824V9.6905C4.50001 5.571 7.63551 2.197 11.6385 2.0085C13.714 1.9145 15.6785 2.644 17.176 4.0725C18.675 5.502 19.5 7.4295 19.5 9.5V12.824L20.825 15.4905C21.0885 16.05 21.049 16.679 20.7265 17.188C20.404 17.697 19.8515 18 19.249 18ZM11.674 2.758H11.679H11.674ZM9.04501 19C9.28401 20.4165 10.516 21.5 12 21.5C13.484 21.5 14.7155 20.4165 14.955 19H9.04501Z" fill="#94A3B8"/>
</svg>