<svg width="16" height="16" viewBox="0 0 16 16" fill="none" xmlns="http://www.w3.org/2000/svg">
<path d="M8.60001 2.19998C8.60001 1.8686 8.33138 1.59998 8.00001 1.59998C7.66864 1.59998 7.40001 1.8686 7.40001 2.19998V9.09084L5.03622 6.588C4.80869 6.34709 4.42894 6.33624 4.18803 6.56377C3.94712 6.7913 3.93627 7.17104 4.1638 7.41195L7.5638 11.012C7.67715 11.132 7.83493 11.2 8.00001 11.2C8.16508 11.2 8.32287 11.132 8.43622 11.012L11.8362 7.41195C12.0637 7.17104 12.0529 6.7913 11.812 6.56377C11.5711 6.33624 11.1913 6.34709 10.9638 6.588L8.60001 9.09084V2.19998Z" fill="#64748B"/>
<path d="M2.80001 10.2C2.80001 9.86861 2.53138 9.59998 2.20001 9.59998C1.86864 9.59998 1.60001 9.86861 1.60001 10.2V12.2C1.60001 13.415 2.58498 14.4 3.80001 14.4H12.2C13.415 14.4 14.4 13.415 14.4 12.2V10.2C14.4 9.86861 14.1314 9.59998 13.8 9.59998C13.4686 9.59998 13.2 9.86861 13.2 10.2V12.2C13.2 12.7523 12.7523 13.2 12.2 13.2H3.80001C3.24772 13.2 2.80001 12.7523 2.80001 12.2V10.2Z" fill="#64748B"/>
</svg>
