<svg xmlns="http://www.w3.org/2000/svg" width="20" height="20" viewBox="0 0 20 20" fill="none">
  <path d="M13.5327 1.66666C13.37 1.66904 13.2147 1.73472 13.0997 1.84976L10.0162 4.93326L6.71952 5.8203C5.46817 6.15703 4.49825 7.1535 4.19592 8.41389L2.57645 15.1628C2.43749 15.7414 2.62893 16.2784 2.95813 16.7033C2.98255 16.7629 3.01604 16.8183 3.05741 16.8677C3.05768 16.8679 3.05795 16.8682 3.05822 16.8685C3.08325 16.8949 3.10664 16.9175 3.13309 16.9425C3.18239 16.9842 3.23785 17.018 3.29748 17.0426C3.72224 17.3712 4.25903 17.5623 4.83719 17.4235L11.5852 15.8032C12.8455 15.5009 13.8417 14.5319 14.1788 13.2804L15.0667 9.98371L18.1502 6.90022C18.2673 6.783 18.3332 6.62406 18.3332 6.45832C18.3332 6.29259 18.2673 6.13364 18.1502 6.01643L13.9835 1.84976C13.9244 1.79065 13.8541 1.74399 13.7766 1.71254C13.6992 1.68108 13.6162 1.66548 13.5327 1.66666ZM13.5416 3.17545L16.8245 6.45832L15.625 7.65787L12.3421 4.37499L13.5416 3.17545ZM11.4583 5.25878L14.7412 8.54166L14.0641 9.21793C13.9869 9.29529 13.9313 9.39153 13.9029 9.49706L12.972 12.9557C12.7532 13.7676 12.1111 14.3922 11.2939 14.5882L4.71757 16.1662L9.22766 11.6561C9.27644 11.6631 9.32567 11.6666 9.37496 11.6667C9.65122 11.6667 9.91617 11.5569 10.1115 11.3616C10.3069 11.1662 10.4166 10.9013 10.4166 10.625C10.4166 10.3487 10.3069 10.0838 10.1115 9.88842C9.91617 9.69307 9.65122 9.58332 9.37496 9.58332C9.22587 9.58347 9.07856 9.61562 8.94297 9.6776C8.80738 9.73957 8.68667 9.82993 8.589 9.94257C8.49133 10.0552 8.41898 10.1875 8.37683 10.3305C8.33468 10.4735 8.32372 10.6239 8.34468 10.7715L3.83215 15.284L5.41174 8.70605C5.60774 7.88893 6.23308 7.24626 7.04423 7.02799L10.5021 6.097C10.608 6.06851 10.7045 6.01266 10.782 5.93505L11.4583 5.25878Z" fill="#E5E5E5"/>
</svg>