<svg width="41" height="40" viewBox="0 0 41 40" fill="none" xmlns="http://www.w3.org/2000/svg">
<path d="M2.16687 35.5V4.5H12.4599L15.4599 7.5H39.1669V35.5H2.16687Z" fill="#BFDBFE"/>
<path d="M12.2529 5L14.9599 7.707L15.2529 8H15.6669H38.6669V35H2.66687V5H12.2529ZM12.6669 4H1.66687V36H39.6669V7H15.6669L12.6669 4Z" fill="#3B82F6"/>
<path d="M2.16687 35.5V9.5H12.8179L15.8179 7.5H39.1669V35.5H2.16687Z" fill="#DBEAFE"/>
<path d="M38.6669 8V35H2.66687V10H12.6669H12.9699L13.2219 9.832L15.9699 8H38.6669ZM39.6669 7H15.6669L12.6669 9H1.66687V36H39.6669V7Z" fill="#3B82F6"/>
<path d="M18.8739 28.5L25.6669 21.707L32.4599 28.5H18.8739Z" fill="#93C5FD"/>
<path d="M25.6669 22.414L31.2529 28H20.0809L25.6669 22.414ZM25.6669 21L17.6669 29H33.6669L25.6669 21Z" fill="#3B82F6"/>
<path d="M27.6669 14.5C27.269 14.5 26.8875 14.658 26.6062 14.9393C26.3249 15.2206 26.1669 15.6022 26.1669 16C26.1669 16.3978 26.3249 16.7794 26.6062 17.0607C26.8875 17.342 27.269 17.5 27.6669 17.5C28.0647 17.5 28.4462 17.342 28.7275 17.0607C29.0088 16.7794 29.1669 16.3978 29.1669 16C29.1669 15.6022 29.0088 15.2206 28.7275 14.9393C28.4462 14.658 28.0647 14.5 27.6669 14.5Z" fill="#BFDBFE"/>
<path d="M27.6669 15C28.2179 15 28.6669 15.449 28.6669 16C28.6669 16.551 28.2179 17 27.6669 17C27.1159 17 26.6669 16.551 26.6669 16C26.6669 15.449 27.1159 15 27.6669 15ZM27.6669 14C26.5619 14 25.6669 14.895 25.6669 16C25.6669 17.105 26.5619 18 27.6669 18C28.7719 18 29.6669 17.105 29.6669 16C29.6669 14.895 28.7719 14 27.6669 14Z" fill="#3B82F6"/>
<path d="M7.83185 28.5L16.1668 19.726L24.5018 28.5H7.83185Z" fill="#BFDBFE"/>
<path d="M16.1669 20.452L23.3379 28H8.99587L16.1669 20.452ZM16.1669 19L6.66687 29H25.6669L16.1669 19Z" fill="#3B82F6"/>
</svg>
