<svg width="33" height="32" viewBox="0 0 33 32" fill="none" xmlns="http://www.w3.org/2000/svg">
<path d="M16.6668 2.66666C9.31483 2.66666 3.3335 8.64799 3.3335 16C3.3335 23.352 9.31483 29.3333 16.6668 29.3333C24.0188 29.3333 30.0002 23.352 30.0002 16C30.0002 8.64799 24.0188 2.66666 16.6668 2.66666ZM22.3335 17H17.6668V21.6667C17.6668 22.2193 17.2195 22.6667 16.6668 22.6667C16.1142 22.6667 15.6668 22.2193 15.6668 21.6667V17H11.0002C10.4475 17 10.0002 16.5527 10.0002 16C10.0002 15.4473 10.4475 15 11.0002 15H15.6668V10.3333C15.6668 9.78066 16.1142 9.33332 16.6668 9.33332C17.2195 9.33332 17.6668 9.78066 17.6668 10.3333V15H22.3335C22.8862 15 23.3335 15.4473 23.3335 16C23.3335 16.5527 22.8862 17 22.3335 17Z" fill="#3B82F6"/>
</svg>
