<svg xmlns="http://www.w3.org/2000/svg" width="20" height="20" viewBox="0 0 20 20" fill="none">
  <path d="M10 1.66667C5.40503 1.66667 1.66666 5.40503 1.66666 10C1.66666 14.595 5.40503 18.3333 10 18.3333C14.595 18.3333 18.3333 14.595 18.3333 10C18.3333 5.40503 14.595 1.66667 10 1.66667ZM10 2.91667C13.9194 2.91667 17.0833 6.08058 17.0833 10C17.0833 13.9194 13.9194 17.0833 10 17.0833C6.08057 17.0833 2.91666 13.9194 2.91666 10C2.91666 6.08058 6.08057 2.91667 10 2.91667ZM10 5.41667C8.62672 5.41667 7.5 6.54339 7.5 7.91667V8.125C7.49883 8.20782 7.51413 8.29005 7.54501 8.3669C7.57589 8.44376 7.62175 8.51371 7.6799 8.57269C7.73805 8.63167 7.80735 8.6785 7.88376 8.71047C7.96017 8.74244 8.04217 8.7589 8.125 8.7589C8.20783 8.7589 8.28983 8.74244 8.36624 8.71047C8.44265 8.6785 8.51194 8.63167 8.5701 8.57269C8.62825 8.51371 8.6741 8.44376 8.70498 8.3669C8.73587 8.29005 8.75117 8.20782 8.75 8.125V7.91667C8.75 7.21911 9.30244 6.66667 10 6.66667C10.6976 6.66667 11.25 7.21911 11.25 7.91667C11.25 8.89205 10.9964 9.01427 10.5518 9.36361C10.3294 9.53828 10.0382 9.73967 9.78922 10.0789C9.54021 10.4182 9.375 10.8911 9.375 11.4583C9.37383 11.5412 9.38913 11.6234 9.42001 11.7002C9.45089 11.7771 9.49675 11.847 9.5549 11.906C9.61305 11.965 9.68235 12.0118 9.75876 12.0438C9.83517 12.0758 9.91717 12.0922 10 12.0922C10.0828 12.0922 10.1648 12.0758 10.2412 12.0438C10.3176 12.0118 10.3869 11.965 10.4451 11.906C10.5033 11.847 10.5491 11.7771 10.58 11.7002C10.6109 11.6234 10.6262 11.5412 10.625 11.4583C10.625 11.1028 10.6942 10.9584 10.7967 10.8187C10.8993 10.679 11.0768 10.5403 11.3232 10.3467C11.8161 9.95946 12.5 9.23295 12.5 7.91667C12.5 6.54339 11.3733 5.41667 10 5.41667ZM10 13.3333C9.77898 13.3333 9.56702 13.4211 9.41074 13.5774C9.25446 13.7337 9.16666 13.9457 9.16666 14.1667C9.16666 14.3877 9.25446 14.5996 9.41074 14.7559C9.56702 14.9122 9.77898 15 10 15C10.221 15 10.433 14.9122 10.5893 14.7559C10.7455 14.5996 10.8333 14.3877 10.8333 14.1667C10.8333 13.9457 10.7455 13.7337 10.5893 13.5774C10.433 13.4211 10.221 13.3333 10 13.3333Z" fill="#A3A3A3"/>
</svg>