<svg width="14" height="14" viewBox="0 0 14 14" fill="none" xmlns="http://www.w3.org/2000/svg">
<path d="M4.80741 2.62269C4.75338 2.62409 4.70007 2.63548 4.65019 2.6563C4.65019 2.6563 3.81166 2.99814 3.02096 3.92722C2.23025 4.8563 1.45837 6.39547 1.45837 8.74997C1.45834 8.77132 1.45986 8.79265 1.46293 8.81377C1.45194 9.1458 1.50779 9.47664 1.62716 9.78666C1.74653 10.0967 1.927 10.3795 2.15783 10.6184C2.38866 10.8574 2.66515 11.0474 2.97088 11.1774C3.27661 11.3074 3.60534 11.3745 3.93754 11.375C4.59506 11.375 5.22564 11.1138 5.69058 10.6488C6.15551 10.1839 6.41671 9.55332 6.41671 8.8958C6.41671 8.23829 6.15551 7.6077 5.69058 7.14277C5.22564 6.67783 4.59506 6.41664 3.93754 6.41664C3.43892 6.41677 2.95193 6.56726 2.54016 6.84844C2.79355 5.76831 3.244 5.01566 3.68746 4.4946C4.35509 3.71014 4.9749 3.46864 4.9749 3.46864C5.07121 3.43171 5.15138 3.36193 5.20125 3.27163C5.25112 3.18133 5.26748 3.07632 5.24745 2.97513C5.22742 2.87394 5.17227 2.78308 5.09176 2.71859C5.01125 2.65411 4.91054 2.62014 4.80741 2.62269ZM10.9324 2.62269C10.8784 2.62409 10.8251 2.63548 10.7752 2.6563C10.7752 2.6563 9.93666 2.99814 9.14596 3.92722C8.35525 4.8563 7.58337 6.39547 7.58337 8.74997C7.58333 8.77132 7.58486 8.79265 7.58793 8.81377C7.57694 9.1458 7.63279 9.47664 7.75216 9.78666C7.87153 10.0967 8.052 10.3795 8.28283 10.6184C8.51366 10.8574 8.79015 11.0474 9.09588 11.1774C9.40161 11.3074 9.73034 11.3745 10.0625 11.375C10.7201 11.375 11.3506 11.1138 11.8156 10.6488C12.2805 10.1839 12.5417 9.55332 12.5417 8.8958C12.5417 8.23829 12.2805 7.6077 11.8156 7.14277C11.3506 6.67783 10.7201 6.41664 10.0625 6.41664C9.56392 6.41677 9.07693 6.56726 8.66516 6.84844C8.91854 5.76831 9.369 5.01566 9.81246 4.4946C10.4801 3.71014 11.0999 3.46864 11.0999 3.46864C11.1962 3.43171 11.2764 3.36193 11.3263 3.27163C11.3761 3.18133 11.3925 3.07632 11.3724 2.97513C11.3524 2.87394 11.2973 2.78308 11.2168 2.71859C11.1362 2.65411 11.0355 2.62014 10.9324 2.62269Z" fill="#94A3B8"/>
</svg>
