<svg width="16" height="16" viewBox="0 0 16 16" fill="none" xmlns="http://www.w3.org/2000/svg">
<path d="M4.10196 2.80155C4.13454 2.8005 4.16725 2.79998 4.20009 2.79998H11.8001C11.8329 2.79998 11.8656 2.80051 11.8982 2.80155C11.6516 2.10161 10.9844 1.59998 10.2001 1.59998H5.80009C5.01577 1.59998 4.34861 2.10161 4.10196 2.80155Z" fill="#64748B"/>
<path d="M0.800003 8.19998C0.800003 7.20586 1.60589 6.39998 2.6 6.39998H13.4C14.3941 6.39998 15.2 7.20586 15.2 8.19998V12.6C15.2 13.5941 14.3941 14.4 13.4 14.4H2.6C1.60589 14.4 0.800003 13.5941 0.800003 12.6V8.19998Z" fill="#64748B"/>
<path d="M2.60009 5.19998C2.56725 5.19998 2.53454 5.2005 2.50196 5.20155C2.74861 4.50161 3.41577 3.99998 4.20009 3.99998H11.8001C12.5844 3.99998 13.2516 4.50161 13.4982 5.20155C13.4656 5.20051 13.4329 5.19998 13.4001 5.19998H2.60009Z" fill="#64748B"/>
</svg>
