<svg xmlns="http://www.w3.org/2000/svg" width="20" height="20" viewBox="0 0 20 20" fill="none">
  <path d="M10 1.66667C9.34296 1.66667 8.70944 1.74977 8.10466 1.89047C7.97854 1.9199 7.86468 1.98778 7.77882 2.08473C7.69295 2.18168 7.63932 2.3029 7.62533 2.43165L7.49268 3.64096C7.44929 4.03724 7.22038 4.38786 6.875 4.58741C6.53031 4.78656 6.11193 4.80862 5.74707 4.64844H5.74626L4.63542 4.15935C4.51693 4.10721 4.38518 4.09314 4.25836 4.11909C4.13153 4.14503 4.01589 4.20972 3.92741 4.3042C3.06387 5.22483 2.40112 6.33962 2.02474 7.58383C1.98725 7.70766 1.98911 7.84008 2.03007 7.96282C2.07103 8.08555 2.14907 8.19255 2.25342 8.26905L3.23893 8.9917C3.56075 9.2283 3.75 9.60117 3.75 10C3.75 10.3991 3.56075 10.7722 3.23893 11.0083L2.25342 11.7301C2.14907 11.8066 2.07103 11.9136 2.03007 12.0364C1.98911 12.1591 1.98725 12.2915 2.02474 12.4154C2.40108 13.6594 3.0633 14.7751 3.92741 15.6958C4.01599 15.7902 4.13167 15.8547 4.25849 15.8805C4.38531 15.9063 4.51701 15.8921 4.63542 15.8398L5.74626 15.3508C6.11129 15.1902 6.53007 15.2133 6.875 15.4126C7.22038 15.6122 7.44929 15.9628 7.49268 16.3591L7.62533 17.5684C7.63942 17.6969 7.69301 17.8178 7.77871 17.9146C7.8644 18.0114 7.978 18.0792 8.10384 18.1087C8.70891 18.2499 9.34296 18.3333 10 18.3333C10.657 18.3333 11.2906 18.2502 11.8953 18.1095C12.0215 18.0801 12.1353 18.0122 12.2212 17.9153C12.3071 17.8183 12.3607 17.6971 12.3747 17.5684L12.5073 16.3591C12.5507 15.9628 12.7796 15.6122 13.125 15.4126C13.4697 15.2135 13.8881 15.1906 14.2529 15.3508L15.3646 15.8398C15.483 15.8921 15.6147 15.9063 15.7415 15.8805C15.8683 15.8547 15.984 15.7902 16.0726 15.6958C16.9361 14.7752 17.5989 13.6596 17.9753 12.4154C18.0128 12.2915 18.0109 12.1591 17.9699 12.0364C17.929 11.9136 17.8509 11.8066 17.7466 11.7301L16.7611 11.0083C16.4393 10.7722 16.25 10.3991 16.25 10C16.25 9.60096 16.4393 9.22778 16.7611 8.9917L17.7466 8.26986C17.8509 8.19336 17.929 8.08636 17.9699 7.96363C18.0109 7.8409 18.0128 7.70848 17.9753 7.58464C17.5989 6.34043 16.9361 5.22483 16.0726 4.3042C15.984 4.20985 15.8683 4.14532 15.7415 4.11952C15.6147 4.09372 15.483 4.10792 15.3646 4.16016L14.2529 4.64926C13.8881 4.80943 13.4697 4.78656 13.125 4.58741C12.7796 4.38786 12.5507 4.03724 12.5073 3.64096L12.3747 2.43165C12.3606 2.30315 12.307 2.18219 12.2213 2.08542C12.1356 1.98864 12.022 1.92082 11.8962 1.89128C11.2911 1.75007 10.657 1.66667 10 1.66667ZM10 2.91667C10.406 2.91667 10.7958 2.98954 11.1865 3.05827L11.2646 3.77686C11.3513 4.56808 11.8112 5.27181 12.5 5.66976C13.1892 6.06798 14.0284 6.11376 14.7567 5.79346L15.4175 5.50293C15.9249 6.11226 16.3267 6.8005 16.6073 7.55453L16.0213 7.98422C15.3798 8.45481 15 9.20405 15 10C15 10.796 15.3798 11.5452 16.0213 12.0158L16.6073 12.4455C16.3267 13.1995 15.9249 13.8878 15.4175 14.4971L14.7567 14.2065C14.0284 13.8863 13.1892 13.932 12.5 14.3302C11.8112 14.7282 11.3513 15.4319 11.2646 16.2232L11.1865 16.9417C10.7958 17.0103 10.4058 17.0833 10 17.0833C9.59404 17.0833 9.2042 17.0105 8.81348 16.9417L8.73535 16.2232C8.64874 15.4319 8.18879 14.7282 7.5 14.3302C6.81076 13.932 5.97163 13.8863 5.24333 14.2065L4.58252 14.4971C4.07499 13.8878 3.67331 13.1996 3.39274 12.4455L3.97868 12.0158C4.62019 11.5452 5 10.796 5 10C5 9.20405 4.61988 8.45432 3.97868 7.9834L3.39274 7.55372C3.67347 6.79939 4.0756 6.11161 4.58333 5.50212L5.24333 5.79265C5.97163 6.11295 6.81076 6.06798 7.5 5.66976C8.18879 5.27181 8.64874 4.56808 8.73535 3.77686L8.81348 3.05827C9.20417 2.98973 9.59424 2.91667 10 2.91667ZM10 6.66667C8.16645 6.66667 6.66667 8.16646 6.66667 10C6.66667 11.8336 8.16645 13.3333 10 13.3333C11.8335 13.3333 13.3333 11.8336 13.3333 10C13.3333 8.16646 11.8335 6.66667 10 6.66667ZM10 7.91667C11.158 7.91667 12.0833 8.84201 12.0833 10C12.0833 11.158 11.158 12.0833 10 12.0833C8.842 12.0833 7.91667 11.158 7.91667 10C7.91667 8.84201 8.842 7.91667 10 7.91667Z" fill="#A3A3A3"/>
</svg>