<svg width="16" height="16" viewBox="0 0 16 16" >
  <path d="M10.8333 1.66666C10.0063 1.66666 9.33333 2.33966 9.33333 3.16666V3.33333H1.83333C1.76708 3.33239 1.70129 3.34463 1.63981 3.36934C1.57833 3.39405 1.52237 3.43073 1.47518 3.47725C1.428 3.52377 1.39053 3.57921 1.36495 3.64034C1.33938 3.70147 1.32621 3.76707 1.32621 3.83333C1.32621 3.89959 1.33938 3.96519 1.36495 4.02632C1.39053 4.08745 1.428 4.14289 1.47518 4.18941C1.52237 4.23593 1.57833 4.27261 1.63981 4.29732C1.70129 4.32203 1.76708 4.33427 1.83333 4.33333H9.33333V4.5C9.33333 5.327 10.0063 6 10.8333 6C11.6603 6 12.3333 5.327 12.3333 4.5V4.33333H14.1667C14.2329 4.33427 14.2987 4.32203 14.3602 4.29732C14.4217 4.27261 14.4776 4.23593 14.5248 4.18941C14.572 4.14289 14.6095 4.08745 14.635 4.02632C14.6606 3.96519 14.6738 3.89959 14.6738 3.83333C14.6738 3.76707 14.6606 3.70147 14.635 3.64034C14.6095 3.57921 14.572 3.52377 14.5248 3.47725C14.4776 3.43073 14.4217 3.39405 14.3602 3.36934C14.2987 3.34463 14.2329 3.33239 14.1667 3.33333H12.3333V3.16666C12.3333 2.33966 11.6603 1.66666 10.8333 1.66666ZM5.16666 5.83333C4.33966 5.83333 3.66666 6.50633 3.66666 7.33333V7.5H1.83333C1.76708 7.49906 1.70129 7.5113 1.63981 7.53601C1.57833 7.56071 1.52237 7.59739 1.47518 7.64392C1.428 7.69044 1.39053 7.74588 1.36495 7.807C1.33938 7.86813 1.32621 7.93373 1.32621 8C1.32621 8.06626 1.33938 8.13186 1.36495 8.19299C1.39053 8.25412 1.428 8.30955 1.47518 8.35608C1.52237 8.4026 1.57833 8.43928 1.63981 8.46399C1.70129 8.48869 1.76708 8.50093 1.83333 8.5H3.66666V8.66666C3.66666 9.49366 4.33966 10.1667 5.16666 10.1667C5.99366 10.1667 6.66667 9.49366 6.66667 8.66666V8.5H14.1667C14.2329 8.50093 14.2987 8.48869 14.3602 8.46399C14.4217 8.43928 14.4776 8.4026 14.5248 8.35608C14.572 8.30955 14.6095 8.25412 14.635 8.19299C14.6606 8.13186 14.6738 8.06626 14.6738 8C14.6738 7.93373 14.6606 7.86813 14.635 7.807C14.6095 7.74588 14.572 7.69044 14.5248 7.64392C14.4776 7.59739 14.4217 7.56071 14.3602 7.53601C14.2987 7.5113 14.2329 7.49906 14.1667 7.5H6.66667V7.33333C6.66667 6.50633 5.99366 5.83333 5.16666 5.83333ZM10.1667 10C9.33967 10 8.66667 10.673 8.66667 11.5V11.6667H1.83333C1.76708 11.6657 1.70129 11.678 1.63981 11.7027C1.57833 11.7274 1.52237 11.7641 1.47518 11.8106C1.428 11.8571 1.39053 11.9125 1.36495 11.9737C1.33938 12.0348 1.32621 12.1004 1.32621 12.1667C1.32621 12.2329 1.33938 12.2985 1.36495 12.3597C1.39053 12.4208 1.428 12.4762 1.47518 12.5227C1.52237 12.5693 1.57833 12.6059 1.63981 12.6307C1.70129 12.6554 1.76708 12.6676 1.83333 12.6667H8.66667V12.8333C8.66667 13.6603 9.33967 14.3333 10.1667 14.3333C10.9937 14.3333 11.6667 13.6603 11.6667 12.8333V12.6667H14.1667C14.2329 12.6676 14.2987 12.6554 14.3602 12.6307C14.4217 12.6059 14.4776 12.5693 14.5248 12.5227C14.572 12.4762 14.6095 12.4208 14.635 12.3597C14.6606 12.2985 14.6738 12.2329 14.6738 12.1667C14.6738 12.1004 14.6606 12.0348 14.635 11.9737C14.6095 11.9125 14.572 11.8571 14.5248 11.8106C14.4776 11.7641 14.4217 11.7274 14.3602 11.7027C14.2987 11.678 14.2329 11.6657 14.1667 11.6667H11.6667V11.5C11.6667 10.673 10.9937 10 10.1667 10Z" fill="currentColor"/>
</svg>