<svg width="40" height="40" viewBox="0 0 40 40" fill="none" xmlns="http://www.w3.org/2000/svg">
<path d="M10.5002 10.5H37.5002V37.5H10.5002V10.5Z" fill="#BFDBFE"/>
<path d="M37.0002 11V37H11.0002V11H37.0002ZM38.0002 10H10.0002V38H38.0002V10Z" fill="#3B82F6"/>
<path d="M6.50018 6.5H33.5002V33.5H6.50018V6.5Z" fill="#DBEAFE"/>
<path d="M33.0002 7V33H7.00018V7H33.0002ZM34.0002 6H6.00018V34H34.0002V6Z" fill="#3B82F6"/>
<path d="M2.50018 2.5H29.5002V29.5H2.50018V2.5Z" fill="white"/>
<path d="M29.0002 3V29H3.00018V3H29.0002ZM30.0002 2H2.00018V30H30.0002V2Z" fill="#3B82F6"/>
<path d="M6.00018 6H26.0002V23H6.00018V6Z" fill="#DBEAFE"/>
<path d="M19.0002 14L16.0002 17L22.0002 23H26.0002V21L19.0002 14Z" fill="#93C5FD"/>
<path d="M21.0002 8C20.4698 8 19.961 8.21071 19.586 8.58579C19.2109 8.96086 19.0002 9.46957 19.0002 10C19.0002 10.5304 19.2109 11.0391 19.586 11.4142C19.961 11.7893 20.4698 12 21.0002 12C21.5306 12 22.0393 11.7893 22.4144 11.4142C22.7895 11.0391 23.0002 10.5304 23.0002 10C23.0002 9.46957 22.7895 8.96086 22.4144 8.58579C22.0393 8.21071 21.5306 8 21.0002 8Z" fill="white"/>
<path d="M22.0002 23H6.00018V19L12.0002 13L22.0002 23Z" fill="#BFDBFE"/>
</svg>
