<svg xmlns="http://www.w3.org/2000/svg" width="20" height="20" viewBox="0 0 20 20" fill="none">
  <path d="M10.0041 2.08334C9.88729 2.08261 9.77261 2.11463 9.67307 2.17576C9.57354 2.23689 9.49312 2.32469 9.44095 2.42921L7.29414 6.72283L2.19648 7.50733C2.08238 7.52496 1.97539 7.57385 1.88737 7.64858C1.79936 7.72331 1.73376 7.82096 1.69786 7.93069C1.66196 8.04042 1.65715 8.15796 1.68397 8.27026C1.71079 8.38256 1.76819 8.48523 1.8498 8.5669L5.376 12.0931L4.59069 17.1965C4.57312 17.3106 4.58753 17.4274 4.63233 17.5339C4.67713 17.6404 4.75057 17.7324 4.84448 17.7997C4.93839 17.8669 5.04911 17.9069 5.16434 17.915C5.27957 17.9232 5.39481 17.8992 5.49726 17.8459L10 15.4964L14.5028 17.8459C14.6052 17.8992 14.7205 17.9232 14.8357 17.915C14.951 17.9069 15.0617 17.8669 15.1556 17.7997C15.2495 17.7324 15.3229 17.6404 15.3677 17.5339C15.4125 17.4274 15.4269 17.3106 15.4094 17.1965L14.6241 12.0931L18.1503 8.5669C18.2319 8.48523 18.2893 8.38256 18.3161 8.27026C18.3429 8.15796 18.3381 8.04042 18.3022 7.93069C18.2663 7.82096 18.2007 7.72331 18.1127 7.64858C18.0247 7.57385 17.9177 7.52496 17.8036 7.50733L12.7059 6.72283L10.5591 2.42921C10.5076 2.32593 10.4284 2.23895 10.3304 2.1779C10.2325 2.11685 10.1195 2.08412 10.0041 2.08334ZM10 4.10564L11.7326 7.57081C11.7772 7.6602 11.8427 7.7376 11.9234 7.7965C12.0041 7.85541 12.0977 7.8941 12.1965 7.90935L16.3941 8.55551L13.5165 11.4331C13.447 11.5025 13.3949 11.5874 13.3644 11.6807C13.3339 11.774 13.3257 11.8732 13.3407 11.9702L13.986 16.1662L10.2889 14.2375C10.1997 14.191 10.1006 14.1667 10 14.1667C9.89944 14.1667 9.80033 14.191 9.71113 14.2375L6.01403 16.1662L6.65937 11.9702C6.67431 11.8732 6.66619 11.774 6.63565 11.6807C6.60511 11.5874 6.55302 11.5025 6.48359 11.4331L3.60599 8.55551L7.80358 7.90935C7.90233 7.8941 7.99598 7.85541 8.07669 7.7965C8.1574 7.7376 8.22281 7.6602 8.26744 7.57081L10 4.10564Z" fill="#A3A3A3"/>
</svg>