<svg width="432" height="100" viewBox="0 0 432 100" fill="none" xmlns="http://www.w3.org/2000/svg">
<mask id="path-1-inside-1_2591_27824" fill="white">
<path d="M0 8C0 3.58172 3.58172 0 8 0H424C428.418 0 432 3.58172 432 8V92C432 96.4183 428.418 100 424 100H8C3.58172 100 0 96.4183 0 92V8Z"/>
</mask>
<path d="M0 8C0 3.58172 3.58172 0 8 0H424C428.418 0 432 3.58172 432 8V92C432 96.4183 428.418 100 424 100H8C3.58172 100 0 96.4183 0 92V8Z" fill="white"/>
<path d="M18 15C18.8284 15 19.5 15.6716 19.5 16.5C19.5 17.3284 18.8284 18 18 18C17.1716 18 16.5 17.3284 16.5 16.5C16.5 15.6716 17.1716 15 18 15Z" fill="#94A3B8"/>
<path d="M18 20.5C18.8284 20.5 19.5 21.1716 19.5 22C19.5 22.8284 18.8284 23.5 18 23.5C17.1716 23.5 16.5 22.8284 16.5 22C16.5 21.1716 17.1716 20.5 18 20.5Z" fill="#94A3B8"/>
<path d="M19.5 27.5C19.5 26.6716 18.8284 26 18 26C17.1716 26 16.5 26.6716 16.5 27.5C16.5 28.3284 17.1716 29 18 29C18.8284 29 19.5 28.3284 19.5 27.5Z" fill="#94A3B8"/>
<path d="M333.788 24.558C333.788 25.2773 333.645 25.9057 333.359 26.443C333.073 26.9803 332.665 27.3963 332.137 27.691C331.617 27.9857 331.006 28.133 330.304 28.133H329.927L329.797 26.625H330.304C330.945 26.625 331.443 26.443 331.799 26.079C332.154 25.715 332.332 25.208 332.332 24.558V20.632H333.788V24.558ZM338.366 23.492C338.4 23.492 338.431 23.544 338.457 23.648C338.483 23.7433 338.496 23.9513 338.496 24.272C338.496 24.5753 338.483 24.7747 338.457 24.87C338.431 24.9567 338.4 25 338.366 25H337.937C337.235 25 336.702 24.7963 336.338 24.389C335.974 23.973 335.792 23.3837 335.792 22.621V16.615H337.248V22.53C337.248 22.8593 337.308 23.102 337.43 23.258C337.56 23.414 337.763 23.492 338.041 23.492H338.366ZM339.916 23.492C340.176 23.492 340.38 23.4227 340.527 23.284C340.683 23.1453 340.761 22.959 340.761 22.725V20.632H342.217V22.66C342.217 22.9373 342.287 23.1453 342.425 23.284C342.573 23.4227 342.785 23.492 343.062 23.492H343.543C343.63 23.492 343.673 23.7433 343.673 24.246C343.673 24.7487 343.63 25 343.543 25H342.997C342.633 25 342.321 24.948 342.061 24.844C341.81 24.7313 341.619 24.558 341.489 24.324C341.333 24.558 341.121 24.7313 340.852 24.844C340.592 24.948 340.28 25 339.916 25H338.356C338.27 25 338.226 24.7573 338.226 24.272C338.226 23.96 338.239 23.752 338.265 23.648C338.291 23.544 338.322 23.492 338.356 23.492H339.916ZM338.863 27.834V26.482H340.475V27.834H338.863ZM344.485 23.492C345.143 23.492 345.685 23.4487 346.11 23.362C346.543 23.2667 346.989 23.089 347.449 22.829L348.944 21.958C348.84 21.5853 348.688 21.3297 348.489 21.191C348.298 21.0437 348.008 20.97 347.618 20.97H344.615L344.797 19.462H347.865C348.411 19.462 348.853 19.553 349.191 19.735C349.537 19.917 349.823 20.2203 350.049 20.645C350.274 21.0697 350.469 21.672 350.634 22.452L348.112 24.038C347.522 24.4107 346.959 24.6663 346.422 24.805C345.884 24.935 345.221 25 344.433 25H343.549C343.462 25 343.419 24.7573 343.419 24.272C343.419 23.96 343.432 23.752 343.458 23.648C343.484 23.544 343.514 23.492 343.549 23.492H344.485ZM346.201 18.058V16.706H347.813V18.058H346.201ZM352.257 16.615H353.713V25H352.257V16.615ZM360.198 21.906C360.198 22.2353 360.276 22.4823 360.432 22.647C360.588 22.8117 360.839 22.894 361.186 22.894C361.567 22.894 361.862 22.8247 362.07 22.686C362.278 22.5473 362.382 22.361 362.382 22.127V20.645H361.381C360.999 20.645 360.705 20.7533 360.497 20.97C360.297 21.178 360.198 21.49 360.198 21.906ZM363.838 22.439C363.838 22.8117 363.903 23.0803 364.033 23.245C364.163 23.4097 364.353 23.492 364.605 23.492H364.969C365.012 23.492 365.042 23.544 365.06 23.648C365.086 23.7433 365.099 23.9513 365.099 24.272C365.099 24.5753 365.086 24.7747 365.06 24.87C365.042 24.9567 365.012 25 364.969 25H364.605C364.128 25 363.734 24.9177 363.422 24.753C363.118 24.5797 362.91 24.3023 362.798 23.921C362.616 24.0857 362.373 24.207 362.07 24.285C361.775 24.363 361.459 24.402 361.121 24.402C360.341 24.402 359.747 24.194 359.34 23.778C358.941 23.362 358.742 22.738 358.742 21.906C358.742 21.4293 358.85 20.983 359.067 20.567C359.292 20.151 359.604 19.8217 360.003 19.579C360.41 19.3277 360.869 19.202 361.381 19.202H362.382V18.344H363.838V22.439ZM365.603 23.492C365.932 23.492 366.183 23.414 366.357 23.258C366.539 23.102 366.63 22.881 366.63 22.595V20.632H368.086V22.543C368.086 22.777 368.112 22.946 368.164 23.05C368.216 23.154 368.315 23.2407 368.463 23.31C369.225 21.9667 369.936 21.0003 370.595 20.411C371.262 19.813 371.968 19.514 372.714 19.514C373.199 19.514 373.632 19.631 374.014 19.865C374.404 20.0903 374.703 20.411 374.911 20.827C375.127 21.2343 375.236 21.7023 375.236 22.231C375.236 22.7857 375.119 23.271 374.885 23.687C374.651 24.103 374.321 24.428 373.897 24.662C373.472 24.8873 372.974 25 372.402 25H369.048C368.172 25 367.587 24.7747 367.293 24.324C367.128 24.558 366.907 24.7313 366.63 24.844C366.361 24.948 366.019 25 365.603 25H364.979C364.892 25 364.849 24.7573 364.849 24.272C364.849 23.96 364.862 23.752 364.888 23.648C364.914 23.544 364.944 23.492 364.979 23.492H365.603ZM372.402 23.492C372.844 23.492 373.182 23.3837 373.416 23.167C373.658 22.9417 373.78 22.6297 373.78 22.231C373.78 21.9797 373.728 21.7587 373.624 21.568C373.52 21.3773 373.377 21.23 373.195 21.126C373.021 21.022 372.822 20.97 372.597 20.97C372.189 20.97 371.769 21.1737 371.336 21.581C370.911 21.9797 370.426 22.6167 369.88 23.492H372.402ZM377.242 16.615H378.698V23.492H380.089C380.34 23.492 380.544 23.4227 380.7 23.284C380.856 23.1453 380.934 22.959 380.934 22.725V16.615H382.39V22.66C382.39 22.9373 382.459 23.1453 382.598 23.284C382.745 23.4227 382.953 23.492 383.222 23.492H383.586C383.62 23.492 383.651 23.544 383.677 23.648C383.703 23.7433 383.716 23.9513 383.716 24.272C383.716 24.5753 383.703 24.7747 383.677 24.87C383.651 24.9567 383.62 25 383.586 25H383.157C382.793 25 382.481 24.9437 382.221 24.831C381.969 24.7183 381.783 24.5493 381.662 24.324C381.506 24.558 381.298 24.7313 381.038 24.844C380.778 24.948 380.461 25 380.089 25H377.242V16.615ZM384.526 23.492C385.185 23.492 385.726 23.4487 386.151 23.362C386.584 23.2667 387.031 23.089 387.49 22.829L388.985 21.958C388.881 21.5853 388.729 21.3297 388.53 21.191C388.339 21.0437 388.049 20.97 387.659 20.97H384.656L384.838 19.462H387.906C388.452 19.462 388.894 19.553 389.232 19.735C389.579 19.917 389.865 20.2203 390.09 20.645C390.315 21.0697 390.51 21.672 390.675 22.452L388.153 24.038C387.564 24.4107 387 24.6663 386.463 24.805C385.926 24.935 385.263 25 384.474 25H383.59C383.503 25 383.46 24.7573 383.46 24.272C383.46 23.96 383.473 23.752 383.499 23.648C383.525 23.544 383.555 23.492 383.59 23.492H384.526ZM386.242 18.058V16.706H387.854V18.058H386.242ZM401.989 23.492C402.24 23.492 402.444 23.4227 402.6 23.284C402.756 23.1453 402.834 22.959 402.834 22.725V20.632H404.29V22.79C404.29 23.4833 404.082 24.025 403.666 24.415C403.25 24.805 402.691 25 401.989 25H397.569C396.798 25 396.208 24.7963 395.801 24.389C395.394 23.9817 395.19 23.4053 395.19 22.66V20.632H396.646V22.465C396.646 22.803 396.724 23.0587 396.88 23.232C397.036 23.4053 397.287 23.492 397.634 23.492H401.989ZM399.675 19.683V18.344H401.534V19.683H399.675ZM397.946 19.683V18.344H399.805V19.683H397.946ZM408.284 24.558C408.284 25.2773 408.141 25.9057 407.855 26.443C407.569 26.9803 407.162 27.3963 406.633 27.691C406.113 27.9857 405.502 28.133 404.8 28.133H403.786L403.669 26.625H404.8C405.441 26.625 405.94 26.443 406.295 26.079C406.65 25.715 406.828 25.208 406.828 24.558V20.632H408.284V24.558ZM412.862 23.492C412.896 23.492 412.927 23.544 412.953 23.648C412.979 23.7433 412.992 23.9513 412.992 24.272C412.992 24.5753 412.979 24.7747 412.953 24.87C412.927 24.9567 412.896 25 412.862 25H412.433C411.731 25 411.198 24.7963 410.834 24.389C410.47 23.973 410.288 23.3837 410.288 22.621V16.615H411.744V22.53C411.744 22.8593 411.804 23.102 411.926 23.258C412.056 23.414 412.259 23.492 412.537 23.492H412.862ZM416.389 23.492C416.701 23.492 416.939 23.44 417.104 23.336C417.268 23.232 417.351 23.089 417.351 22.907C417.351 22.7423 417.316 22.595 417.247 22.465C417.177 22.335 417.056 22.1833 416.883 22.01L413.984 19.163V17.941L418.833 16.056L419.249 17.46L415.726 18.799L417.975 21.048C418.261 21.3253 418.469 21.6243 418.599 21.945C418.737 22.2657 418.807 22.6037 418.807 22.959C418.807 23.557 418.594 24.0467 418.17 24.428C417.754 24.8093 417.16 25 416.389 25H412.853C412.766 25 412.723 24.7573 412.723 24.272C412.723 23.96 412.736 23.752 412.762 23.648C412.788 23.544 412.818 23.492 412.853 23.492H416.389Z" fill="#334155"/>
<path d="M232.287 56.18C232.287 56.532 232.371 56.796 232.539 56.972C232.715 57.148 232.983 57.236 233.343 57.236C233.735 57.236 234.043 57.164 234.267 57.02C234.491 56.876 234.603 56.684 234.603 56.444V54.872H233.523C233.131 54.872 232.827 54.988 232.611 55.22C232.395 55.444 232.287 55.764 232.287 56.18ZM235.755 56.72C235.755 57.104 235.823 57.384 235.959 57.56C236.095 57.728 236.295 57.812 236.559 57.812H236.871C236.911 57.812 236.939 57.852 236.955 57.932C236.979 58.012 236.991 58.176 236.991 58.424C236.991 58.664 236.979 58.82 236.955 58.892C236.939 58.964 236.911 59 236.871 59H236.559C236.127 59 235.771 58.916 235.491 58.748C235.211 58.572 235.023 58.296 234.927 57.92C234.759 58.088 234.527 58.216 234.231 58.304C233.935 58.384 233.619 58.424 233.283 58.424C232.587 58.424 232.055 58.24 231.687 57.872C231.327 57.496 231.147 56.94 231.147 56.204C231.147 55.756 231.243 55.344 231.435 54.968C231.635 54.592 231.915 54.292 232.275 54.068C232.643 53.844 233.059 53.732 233.523 53.732H234.603V52.916H235.755V56.72ZM240.131 57.032C240.131 57.64 239.947 58.12 239.579 58.472C239.211 58.824 238.719 59 238.103 59H236.867C236.787 59 236.747 58.808 236.747 58.424C236.747 58.176 236.759 58.012 236.783 57.932C236.807 57.852 236.835 57.812 236.867 57.812H238.103C238.367 57.812 238.579 57.744 238.739 57.608C238.899 57.464 238.979 57.264 238.979 57.008V55.064H240.131V57.032ZM238.235 53.66V52.556H239.603V53.66H238.235ZM244.351 57.812C244.383 57.812 244.411 57.852 244.435 57.932C244.459 58.012 244.471 58.176 244.471 58.424C244.471 58.664 244.459 58.82 244.435 58.892C244.411 58.964 244.383 59 244.351 59H244.003C243.371 59 242.895 58.816 242.575 58.448C242.255 58.072 242.095 57.544 242.095 56.864V51.248H243.235V56.792C243.235 57.136 243.303 57.392 243.439 57.56C243.575 57.728 243.787 57.812 244.075 57.812H244.351ZM245.196 57.812C245.804 57.812 246.304 57.768 246.696 57.68C247.096 57.592 247.508 57.424 247.932 57.176L249.564 56.228C249.452 55.836 249.292 55.564 249.084 55.412C248.876 55.252 248.576 55.172 248.184 55.172H245.388L245.532 53.984H248.364C248.86 53.984 249.264 54.068 249.576 54.236C249.888 54.396 250.148 54.664 250.356 55.04C250.564 55.416 250.744 55.94 250.896 56.612L248.46 58.136C247.932 58.464 247.428 58.692 246.948 58.82C246.468 58.94 245.868 59 245.148 59H244.344C244.264 59 244.224 58.808 244.224 58.424C244.224 58.176 244.236 58.012 244.26 57.932C244.284 57.852 244.312 57.812 244.344 57.812H245.196ZM246.876 52.628V51.524H248.244V52.628H246.876ZM256.345 56.18C256.345 56.532 256.429 56.796 256.597 56.972C256.773 57.148 257.041 57.236 257.401 57.236C257.793 57.236 258.101 57.164 258.325 57.02C258.549 56.876 258.661 56.684 258.661 56.444V54.872H257.581C257.189 54.872 256.885 54.988 256.669 55.22C256.453 55.444 256.345 55.764 256.345 56.18ZM259.813 56.72C259.813 57.104 259.881 57.384 260.017 57.56C260.153 57.728 260.353 57.812 260.617 57.812H260.929C260.969 57.812 260.997 57.852 261.013 57.932C261.037 58.012 261.049 58.176 261.049 58.424C261.049 58.664 261.037 58.82 261.013 58.892C260.997 58.964 260.969 59 260.929 59H260.617C260.185 59 259.829 58.916 259.549 58.748C259.269 58.572 259.081 58.296 258.985 57.92C258.817 58.088 258.585 58.216 258.289 58.304C257.993 58.384 257.677 58.424 257.341 58.424C256.645 58.424 256.113 58.24 255.745 57.872C255.385 57.496 255.205 56.94 255.205 56.204C255.205 55.756 255.301 55.344 255.493 54.968C255.693 54.592 255.973 54.292 256.333 54.068C256.701 53.844 257.117 53.732 257.581 53.732H258.661V52.916H259.813V56.72ZM262.114 53.984H264.946C265.442 53.984 265.846 54.068 266.158 54.236C266.47 54.396 266.73 54.664 266.938 55.04C267.146 55.416 267.326 55.94 267.478 56.612L266.602 57.152C266.674 57.32 266.758 57.452 266.854 57.548C266.958 57.636 267.078 57.704 267.214 57.752C267.35 57.792 267.514 57.812 267.706 57.812H268.486C268.566 57.812 268.606 58.016 268.606 58.424C268.606 58.672 268.594 58.832 268.57 58.904C268.546 58.968 268.518 59 268.486 59H267.67C267.35 59 267.078 58.96 266.854 58.88C266.63 58.8 266.43 58.668 266.254 58.484C266.078 58.292 265.91 58.028 265.75 57.692L265.042 58.136C264.514 58.464 264.01 58.692 263.53 58.82C263.05 58.94 262.45 59 261.73 59H260.926C260.846 59 260.806 58.808 260.806 58.424C260.806 58.176 260.818 58.012 260.842 57.932C260.866 57.852 260.894 57.812 260.926 57.812H261.778C262.386 57.812 262.886 57.768 263.278 57.68C263.678 57.592 264.09 57.424 264.514 57.176L266.146 56.228C266.034 55.836 265.874 55.564 265.666 55.412C265.458 55.252 265.158 55.172 264.766 55.172H261.97L262.114 53.984ZM270.224 57.812C269.992 57.644 269.808 57.42 269.672 57.14C269.544 56.86 269.48 56.568 269.48 56.264C269.48 55.832 269.58 55.44 269.78 55.088C269.988 54.736 270.272 54.46 270.632 54.26C270.992 54.052 271.388 53.948 271.82 53.948C272.268 53.948 272.668 54.044 273.02 54.236C273.372 54.42 273.644 54.684 273.836 55.028C274.036 55.372 274.136 55.764 274.136 56.204C274.136 56.532 274.068 56.832 273.932 57.104C273.804 57.376 273.604 57.612 273.332 57.812H275.132C275.164 57.812 275.192 57.852 275.216 57.932C275.24 58.012 275.252 58.176 275.252 58.424C275.252 58.664 275.24 58.82 275.216 58.892C275.192 58.964 275.164 59 275.132 59H273.524C273.044 59 272.676 58.984 272.42 58.952C272.172 58.92 271.976 58.868 271.832 58.796C271.688 58.868 271.48 58.92 271.208 58.952C270.944 58.984 270.576 59 270.104 59H268.484C268.404 59 268.364 58.808 268.364 58.424C268.364 58.016 268.404 57.812 268.484 57.812H270.224ZM271.82 55.088C271.46 55.088 271.172 55.2 270.956 55.424C270.74 55.64 270.632 55.92 270.632 56.264C270.632 56.584 270.732 56.876 270.932 57.14C271.14 57.404 271.436 57.624 271.82 57.8C272.204 57.616 272.492 57.392 272.684 57.128C272.884 56.856 272.984 56.568 272.984 56.264C272.984 55.896 272.88 55.608 272.672 55.4C272.472 55.192 272.188 55.088 271.82 55.088ZM271.136 52.58V51.476H272.504V52.58H271.136ZM275.645 57.812C275.981 57.812 276.237 57.732 276.413 57.572C276.597 57.412 276.689 57.192 276.689 56.912V55.064H277.841V56.876C277.841 57.108 277.877 57.284 277.949 57.404C278.021 57.516 278.133 57.604 278.285 57.668C279.013 56.372 279.689 55.44 280.313 54.872C280.937 54.304 281.589 54.02 282.269 54.02C282.709 54.02 283.101 54.124 283.445 54.332C283.797 54.54 284.069 54.832 284.261 55.208C284.461 55.584 284.561 56.016 284.561 56.504C284.561 57 284.457 57.436 284.249 57.812C284.041 58.188 283.745 58.48 283.361 58.688C282.977 58.896 282.525 59 282.005 59H278.849C278.025 59 277.481 58.776 277.217 58.328C277.073 58.552 276.869 58.72 276.605 58.832C276.349 58.944 276.029 59 275.645 59H275.129C275.049 59 275.009 58.808 275.009 58.424C275.009 58.176 275.021 58.012 275.045 57.932C275.069 57.852 275.097 57.812 275.129 57.812H275.645ZM282.005 57.812C282.453 57.812 282.797 57.696 283.037 57.464C283.285 57.232 283.409 56.912 283.409 56.504C283.409 56.24 283.357 56.008 283.253 55.808C283.149 55.6 283.001 55.44 282.809 55.328C282.625 55.216 282.417 55.16 282.185 55.16C281.761 55.16 281.329 55.372 280.889 55.796C280.457 56.22 279.961 56.892 279.401 57.812H282.005ZM291.805 58.628C291.805 59.292 291.673 59.872 291.409 60.368C291.145 60.864 290.773 61.244 290.293 61.508C289.813 61.78 289.257 61.916 288.625 61.916H288.289L288.181 60.728H288.613C289.253 60.728 289.753 60.54 290.113 60.164C290.473 59.796 290.653 59.284 290.653 58.628V55.064H291.805V58.628ZM295.923 52.892L298.179 55.496C298.443 55.808 298.631 56.096 298.743 56.36C298.863 56.624 298.923 56.896 298.923 57.176C298.923 57.72 298.735 58.16 298.359 58.496C297.983 58.832 297.451 59 296.763 59H293.403L293.295 57.812H296.763C297.083 57.812 297.331 57.752 297.507 57.632C297.683 57.512 297.771 57.352 297.771 57.152C297.771 57.016 297.735 56.88 297.663 56.744C297.599 56.608 297.479 56.44 297.303 56.24L295.107 53.696L295.923 52.892ZM303.592 56.984C303.592 56.68 303.644 56.384 303.748 56.096C303.852 55.808 304.02 55.504 304.252 55.184C304.492 54.856 304.808 54.496 305.2 54.104L304.672 53.564L305.488 52.712C306.288 53.448 306.892 54.052 307.3 54.524C307.716 54.988 308 55.396 308.152 55.748C308.304 56.1 308.38 56.472 308.38 56.864C308.38 57.296 308.276 57.684 308.068 58.028C307.86 58.372 307.564 58.64 307.18 58.832C306.804 59.024 306.372 59.12 305.884 59.12C305.188 59.12 304.632 58.924 304.216 58.532C303.8 58.14 303.592 57.624 303.592 56.984ZM307.228 56.864C307.228 56.648 307.188 56.444 307.108 56.252C307.036 56.052 306.908 55.84 306.724 55.616C306.548 55.384 306.3 55.124 305.98 54.836C305.532 55.268 305.212 55.648 305.02 55.976C304.828 56.296 304.732 56.612 304.732 56.924C304.732 57.22 304.84 57.464 305.056 57.656C305.272 57.84 305.56 57.932 305.92 57.932C306.176 57.932 306.404 57.888 306.604 57.8C306.804 57.704 306.956 57.576 307.06 57.416C307.172 57.248 307.228 57.064 307.228 56.864ZM312.757 57.812C313.013 57.812 313.221 57.756 313.381 57.644C313.541 57.532 313.621 57.388 313.621 57.212C313.621 57.076 313.561 56.84 313.441 56.504C313.329 56.16 313.037 55.356 312.565 54.092C312.437 53.756 312.349 53.524 312.301 53.396L313.369 52.904L314.761 56.852C314.889 57.204 315.025 57.452 315.169 57.596C315.321 57.74 315.529 57.812 315.793 57.812H316.057C316.137 57.812 316.177 58.016 316.177 58.424C316.177 58.672 316.165 58.832 316.141 58.904C316.117 58.968 316.089 59 316.057 59H315.745C315.385 59 315.081 58.944 314.833 58.832C314.593 58.712 314.401 58.528 314.257 58.28C314.113 58.528 313.917 58.712 313.669 58.832C313.429 58.944 313.125 59 312.757 59H309.985L309.877 57.812H312.757ZM317.011 57.812C317.347 57.812 317.603 57.732 317.779 57.572C317.963 57.412 318.055 57.192 318.055 56.912V55.064H319.195V56.912C319.195 57.208 319.275 57.432 319.435 57.584C319.603 57.736 319.863 57.812 320.215 57.812C320.551 57.812 320.807 57.732 320.983 57.572C321.167 57.412 321.259 57.192 321.259 56.912V55.064H322.411V56.912C322.411 57.2 322.491 57.424 322.651 57.584C322.811 57.736 323.047 57.812 323.359 57.812C323.679 57.812 323.919 57.736 324.079 57.584C324.247 57.424 324.331 57.2 324.331 56.912V55.064H325.483V56.9C325.483 57.556 325.291 58.072 324.907 58.448C324.531 58.816 324.015 59 323.359 59C322.943 59 322.607 58.94 322.351 58.82C322.095 58.7 321.907 58.52 321.787 58.28C321.635 58.52 321.427 58.7 321.163 58.82C320.907 58.94 320.591 59 320.215 59C319.767 59 319.411 58.94 319.146 58.82C318.891 58.7 318.699 58.52 318.571 58.28C318.427 58.52 318.223 58.7 317.959 58.82C317.695 58.94 317.379 59 317.011 59H316.062C315.982 59 315.942 58.808 315.942 58.424C315.942 58.176 315.954 58.012 315.978 57.932C316.002 57.852 316.03 57.812 316.062 57.812H317.011ZM321.187 51.92V50.876H322.387V51.92H321.187ZM321.727 53.66V52.58H323.407V53.66H321.727ZM320.167 53.66V52.58H321.847V53.66H320.167ZM330.147 56.984C330.147 56.68 330.199 56.384 330.303 56.096C330.407 55.808 330.575 55.504 330.807 55.184C331.047 54.856 331.363 54.496 331.755 54.104L331.227 53.564L332.043 52.712C332.843 53.448 333.447 54.052 333.855 54.524C334.271 54.988 334.555 55.396 334.707 55.748C334.859 56.1 334.935 56.472 334.935 56.864C334.935 57.296 334.831 57.684 334.623 58.028C334.415 58.372 334.119 58.64 333.735 58.832C333.359 59.024 332.927 59.12 332.439 59.12C331.743 59.12 331.187 58.924 330.771 58.532C330.355 58.14 330.147 57.624 330.147 56.984ZM333.783 56.864C333.783 56.648 333.743 56.444 333.663 56.252C333.591 56.052 333.463 55.84 333.279 55.616C333.103 55.384 332.855 55.124 332.535 54.836C332.087 55.268 331.767 55.648 331.575 55.976C331.383 56.296 331.287 56.612 331.287 56.924C331.287 57.22 331.395 57.464 331.611 57.656C331.827 57.84 332.115 57.932 332.475 57.932C332.731 57.932 332.959 57.888 333.159 57.8C333.359 57.704 333.511 57.576 333.615 57.416C333.727 57.248 333.783 57.064 333.783 56.864ZM339.059 52.892L341.315 55.496C341.579 55.808 341.767 56.096 341.879 56.36C341.999 56.624 342.059 56.896 342.059 57.176C342.059 57.72 341.871 58.16 341.495 58.496C341.119 58.832 340.587 59 339.899 59H336.539L336.431 57.812H339.899C340.219 57.812 340.467 57.752 340.643 57.632C340.819 57.512 340.907 57.352 340.907 57.152C340.907 57.016 340.871 56.88 340.799 56.744C340.735 56.608 340.615 56.44 340.439 56.24L338.243 53.696L339.059 52.892ZM346.28 57.812C346.312 57.812 346.34 57.852 346.364 57.932C346.388 58.012 346.4 58.176 346.4 58.424C346.4 58.664 346.388 58.82 346.364 58.892C346.34 58.964 346.312 59 346.28 59H345.932C345.3 59 344.824 58.816 344.504 58.448C344.184 58.072 344.024 57.544 344.024 56.864V51.248H345.164V56.792C345.164 57.136 345.232 57.392 345.368 57.56C345.504 57.728 345.716 57.812 346.004 57.812H346.28ZM348.013 57.812C347.781 57.644 347.597 57.42 347.461 57.14C347.333 56.86 347.269 56.568 347.269 56.264C347.269 55.832 347.369 55.44 347.569 55.088C347.777 54.736 348.061 54.46 348.421 54.26C348.781 54.052 349.177 53.948 349.609 53.948C350.057 53.948 350.457 54.044 350.809 54.236C351.161 54.42 351.433 54.684 351.625 55.028C351.825 55.372 351.925 55.764 351.925 56.204C351.925 56.532 351.857 56.832 351.721 57.104C351.593 57.376 351.393 57.612 351.121 57.812H352.921C352.953 57.812 352.981 57.852 353.005 57.932C353.029 58.012 353.041 58.176 353.041 58.424C353.041 58.664 353.029 58.82 353.005 58.892C352.981 58.964 352.953 59 352.921 59H351.313C350.833 59 350.465 58.984 350.209 58.952C349.961 58.92 349.765 58.868 349.621 58.796C349.477 58.868 349.269 58.92 348.997 58.952C348.733 58.984 348.365 59 347.893 59H346.273C346.193 59 346.153 58.808 346.153 58.424C346.153 58.016 346.193 57.812 346.273 57.812H348.013ZM349.609 55.088C349.249 55.088 348.961 55.2 348.745 55.424C348.529 55.64 348.421 55.92 348.421 56.264C348.421 56.584 348.521 56.876 348.721 57.14C348.929 57.404 349.225 57.624 349.609 57.8C349.993 57.616 350.281 57.392 350.473 57.128C350.673 56.856 350.773 56.568 350.773 56.264C350.773 55.896 350.669 55.608 350.461 55.4C350.261 55.192 349.977 55.088 349.609 55.088ZM348.925 52.58V51.476H350.293V52.58H348.925ZM354.358 57.812C354.638 57.812 354.858 57.74 355.018 57.596C355.186 57.452 355.27 57.256 355.27 57.008V55.064H356.422V56.96C356.422 57.24 356.494 57.452 356.638 57.596C356.79 57.74 357.01 57.812 357.298 57.812H357.682C357.762 57.812 357.802 58.012 357.802 58.412C357.802 58.804 357.762 59 357.682 59H357.262C356.91 59 356.614 58.944 356.374 58.832C356.134 58.72 355.958 58.552 355.846 58.328C355.702 58.552 355.502 58.72 355.246 58.832C354.998 58.944 354.702 59 354.358 59H352.918C352.838 59 352.798 58.808 352.798 58.424C352.798 58.176 352.81 58.012 352.834 57.932C352.858 57.852 352.886 57.812 352.918 57.812H354.358ZM354.934 53.66V52.58H356.614V53.66H354.934ZM353.374 53.66V52.58H355.054V53.66H353.374ZM358.636 57.812C358.972 57.812 359.228 57.732 359.404 57.572C359.588 57.412 359.68 57.192 359.68 56.912V55.064H360.82V56.912C360.82 57.208 360.9 57.432 361.06 57.584C361.228 57.736 361.488 57.812 361.84 57.812C362.176 57.812 362.432 57.732 362.608 57.572C362.792 57.412 362.884 57.192 362.884 56.912V55.064H364.036V56.912C364.036 57.2 364.116 57.424 364.276 57.584C364.436 57.736 364.672 57.812 364.984 57.812C365.304 57.812 365.544 57.736 365.704 57.584C365.872 57.424 365.956 57.2 365.956 56.912V55.064H367.108V56.9C367.108 57.556 366.916 58.072 366.532 58.448C366.156 58.816 365.64 59 364.984 59C364.568 59 364.232 58.94 363.976 58.82C363.72 58.7 363.532 58.52 363.412 58.28C363.26 58.52 363.052 58.7 362.788 58.82C362.532 58.94 362.216 59 361.84 59C361.392 59 361.036 58.94 360.771 58.82C360.516 58.7 360.324 58.52 360.196 58.28C360.052 58.52 359.848 58.7 359.584 58.82C359.32 58.94 359.004 59 358.636 59H357.688C357.607 59 357.567 58.808 357.567 58.424C357.567 58.176 357.579 58.012 357.603 57.932C357.627 57.852 357.655 57.812 357.688 57.812H358.636ZM369.067 51.248H370.207V59H369.067V51.248ZM381.33 57.812C381.61 57.812 381.83 57.74 381.99 57.596C382.158 57.452 382.242 57.256 382.242 57.008V55.064H383.382V56.96C383.382 57.24 383.458 57.452 383.61 57.596C383.762 57.74 383.982 57.812 384.27 57.812H384.654C384.734 57.812 384.774 58.016 384.774 58.424C384.774 58.808 384.734 59 384.654 59H384.222C383.878 59 383.586 58.944 383.346 58.832C383.106 58.72 382.926 58.552 382.806 58.328C382.662 58.552 382.466 58.72 382.218 58.832C381.97 58.944 381.674 59 381.33 59H377.154C376.45 59 375.914 58.816 375.546 58.448C375.186 58.072 375.006 57.552 375.006 56.888V55.064H376.146V56.732C376.146 57.084 376.23 57.352 376.398 57.536C376.574 57.72 376.846 57.812 377.214 57.812H381.33ZM378.498 61.556V60.452H379.866V61.556H378.498ZM385.036 57.812C385.3 57.812 385.512 57.74 385.672 57.596C385.84 57.452 385.924 57.256 385.924 57.008V51.248H387.064V57.032C387.064 57.64 386.88 58.12 386.512 58.472C386.144 58.824 385.652 59 385.036 59H384.652C384.572 59 384.532 58.808 384.532 58.424C384.532 58.016 384.572 57.812 384.652 57.812H385.036ZM391.409 57.812C391.441 57.812 391.469 57.852 391.493 57.932C391.517 58.012 391.529 58.176 391.529 58.424C391.529 58.664 391.517 58.82 391.493 58.892C391.469 58.964 391.441 59 391.409 59H391.061C390.429 59 389.953 58.816 389.633 58.448C389.313 58.072 389.153 57.544 389.153 56.864V51.248H390.293V56.792C390.293 57.136 390.361 57.392 390.497 57.56C390.633 57.728 390.845 57.812 391.133 57.812H391.409ZM393.298 57.812C393.394 57.812 393.49 57.812 393.586 57.812C393.682 57.804 393.766 57.792 393.838 57.776C393.47 57.632 393.182 57.476 392.974 57.308C392.766 57.14 392.614 56.952 392.518 56.744C392.43 56.536 392.386 56.288 392.386 56C392.386 55.568 392.486 55.176 392.686 54.824C392.886 54.472 393.162 54.196 393.514 53.996C393.874 53.788 394.274 53.684 394.714 53.684C395.466 53.684 396.046 53.916 396.454 54.38C396.87 54.836 397.078 55.472 397.078 56.288V56.696C397.078 57.464 396.818 58.04 396.298 58.424C395.786 58.808 395.03 59 394.03 59H391.402C391.322 59 391.282 58.808 391.282 58.424C391.282 58.176 391.294 58.012 391.318 57.932C391.342 57.852 391.37 57.812 391.402 57.812H393.298ZM395.554 57.608C395.682 57.496 395.778 57.36 395.842 57.2C395.906 57.032 395.938 56.836 395.938 56.612V56.36C395.938 55.856 395.834 55.476 395.626 55.22C395.418 54.964 395.11 54.836 394.702 54.836C394.486 54.836 394.286 54.888 394.102 54.992C393.926 55.096 393.786 55.236 393.682 55.412C393.578 55.588 393.526 55.78 393.526 55.988C393.526 56.228 393.586 56.436 393.706 56.612C393.826 56.788 394.03 56.956 394.318 57.116C394.614 57.268 395.026 57.432 395.554 57.608ZM394.594 52.46V51.38H396.274V52.46H394.594ZM393.034 52.46V51.38H394.714V52.46H393.034Z" fill="#64748B"/>
<path d="M410.807 50.6227C410.753 50.6241 410.7 50.6355 410.65 50.6563C410.65 50.6563 409.812 50.9981 409.021 51.9272C408.23 52.8563 407.458 54.3955 407.458 56.75C407.458 56.7713 407.46 56.7926 407.463 56.8138C407.452 57.1458 407.508 57.4766 407.627 57.7867C407.747 58.0967 407.927 58.3795 408.158 58.6184C408.389 58.8574 408.665 59.0474 408.971 59.1774C409.277 59.3074 409.605 59.3745 409.938 59.375C410.595 59.375 411.226 59.1138 411.691 58.6488C412.156 58.1839 412.417 57.5533 412.417 56.8958C412.417 56.2383 412.156 55.6077 411.691 55.1428C411.226 54.6778 410.595 54.4166 409.938 54.4166C409.439 54.4168 408.952 54.5673 408.54 54.8484C408.794 53.7683 409.244 53.0157 409.687 52.4946C410.355 51.7101 410.975 51.4686 410.975 51.4686C411.071 51.4317 411.151 51.3619 411.201 51.2716C411.251 51.1813 411.267 51.0763 411.247 50.9751C411.227 50.8739 411.172 50.7831 411.092 50.7186C411.011 50.6541 410.911 50.6201 410.807 50.6227ZM416.932 50.6227C416.878 50.6241 416.825 50.6355 416.775 50.6563C416.775 50.6563 415.937 50.9981 415.146 51.9272C414.355 52.8563 413.583 54.3955 413.583 56.75C413.583 56.7713 413.585 56.7926 413.588 56.8138C413.577 57.1458 413.633 57.4766 413.752 57.7867C413.872 58.0967 414.052 58.3795 414.283 58.6184C414.514 58.8574 414.79 59.0474 415.096 59.1774C415.402 59.3074 415.73 59.3745 416.063 59.375C416.72 59.375 417.351 59.1138 417.816 58.6488C418.281 58.1839 418.542 57.5533 418.542 56.8958C418.542 56.2383 418.281 55.6077 417.816 55.1428C417.351 54.6778 416.72 54.4166 416.063 54.4166C415.564 54.4168 415.077 54.5673 414.665 54.8484C414.919 53.7683 415.369 53.0157 415.812 52.4946C416.48 51.7101 417.1 51.4686 417.1 51.4686C417.196 51.4317 417.276 51.3619 417.326 51.2716C417.376 51.1813 417.392 51.0763 417.372 50.9751C417.352 50.8739 417.297 50.7831 417.217 50.7186C417.136 50.6541 417.036 50.6201 416.932 50.6227Z" fill="#94A3B8"/>
<path d="M339.905 79.868C339.905 79.076 339.865 78.396 339.785 77.828C339.705 77.252 339.545 76.56 339.305 75.752L340.421 75.368C340.669 76.176 340.833 76.884 340.913 77.492C341.001 78.1 341.045 78.884 341.045 79.844V83H339.905V79.868ZM345.258 78.584C345.154 78.448 345.074 78.284 345.018 78.092C344.97 77.892 344.946 77.692 344.946 77.492C344.946 77.1 345.046 76.744 345.246 76.424C345.446 76.096 345.718 75.84 346.062 75.656C346.414 75.464 346.798 75.368 347.214 75.368C347.702 75.368 348.206 75.484 348.726 75.716L348.426 76.772C348.202 76.676 347.994 76.608 347.802 76.568C347.61 76.528 347.43 76.508 347.262 76.508C347.03 76.508 346.822 76.556 346.638 76.652C346.462 76.748 346.326 76.884 346.23 77.06C346.134 77.228 346.086 77.408 346.086 77.6C346.086 77.824 346.126 78.024 346.206 78.2C346.294 78.368 346.406 78.5 346.542 78.596C346.686 78.692 346.842 78.74 347.01 78.74C347.266 78.74 347.542 78.7 347.838 78.62C348.142 78.54 348.458 78.428 348.786 78.284L349.086 79.34C348.254 79.732 347.422 79.928 346.59 79.928C346.134 79.928 345.726 79.88 345.366 79.784C345.006 79.68 344.718 79.544 344.502 79.376C344.51 79.464 344.514 79.56 344.514 79.664C344.514 79.76 344.514 79.868 344.514 79.988V83H343.374V79.868C343.374 79.076 343.334 78.396 343.254 77.828C343.174 77.252 343.014 76.56 342.774 75.752L343.866 75.368C343.97 75.712 344.094 76.22 344.238 76.892C344.27 77.036 344.298 77.184 344.322 77.336C344.354 77.488 344.382 77.632 344.406 77.768C344.438 77.968 344.514 78.136 344.634 78.272C344.762 78.4 344.97 78.504 345.258 78.584ZM353.042 77.096C353.442 77.096 353.822 77.208 354.182 77.432C354.55 77.656 354.846 77.952 355.07 78.32C355.294 78.68 355.406 79.056 355.406 79.448C355.406 79.84 355.294 80.22 355.07 80.588C354.846 80.956 354.55 81.252 354.182 81.476C353.822 81.7 353.442 81.812 353.042 81.812C352.642 81.812 352.258 81.7 351.89 81.476C351.522 81.252 351.226 80.956 351.002 80.588C350.778 80.22 350.666 79.84 350.666 79.448C350.666 79.056 350.778 78.68 351.002 78.32C351.226 77.952 351.522 77.656 351.89 77.432C352.258 77.208 352.642 77.096 353.042 77.096ZM353.042 80.708C353.242 80.708 353.442 80.648 353.642 80.528C353.842 80.4 354.002 80.24 354.122 80.048C354.242 79.856 354.302 79.656 354.302 79.448C354.302 79.24 354.242 79.04 354.122 78.848C354.002 78.656 353.842 78.5 353.642 78.38C353.45 78.26 353.25 78.2 353.042 78.2C352.834 78.2 352.63 78.26 352.43 78.38C352.238 78.5 352.078 78.66 351.95 78.86C351.83 79.052 351.77 79.248 351.77 79.448C351.77 79.656 351.83 79.856 351.95 80.048C352.078 80.24 352.238 80.4 352.43 80.528C352.63 80.648 352.834 80.708 353.042 80.708ZM359.452 79.388C359.252 79.388 359.076 79.36 358.924 79.304C358.78 79.248 358.668 79.172 358.588 79.076C358.596 79.188 358.6 79.312 358.6 79.448C358.6 79.576 358.6 79.708 358.6 79.844V83H357.46V79.868C357.46 79.076 357.42 78.396 357.34 77.828C357.26 77.252 357.1 76.56 356.86 75.752L357.952 75.368L358.504 77.468C358.568 77.716 358.672 77.9 358.816 78.02C358.96 78.14 359.144 78.2 359.368 78.2C359.6 78.2 359.796 78.128 359.956 77.984C360.124 77.832 360.208 77.648 360.208 77.432C360.208 77.144 360.128 76.536 359.968 75.608L361.108 75.368C361.196 75.84 361.256 76.248 361.288 76.592C361.328 76.928 361.348 77.216 361.348 77.456C361.348 77.824 361.264 78.156 361.096 78.452C360.936 78.748 360.712 78.98 360.424 79.148C360.136 79.308 359.812 79.388 359.452 79.388ZM367.67 75.872L363.65 83.108L362.678 82.544L366.698 75.308L367.67 75.872ZM371.734 77.096C372.134 77.096 372.514 77.208 372.874 77.432C373.242 77.656 373.538 77.952 373.762 78.32C373.986 78.68 374.098 79.056 374.098 79.448C374.098 79.84 373.986 80.22 373.762 80.588C373.538 80.956 373.242 81.252 372.874 81.476C372.514 81.7 372.134 81.812 371.734 81.812C371.334 81.812 370.95 81.7 370.582 81.476C370.214 81.252 369.918 80.956 369.694 80.588C369.47 80.22 369.358 79.84 369.358 79.448C369.358 79.056 369.47 78.68 369.694 78.32C369.918 77.952 370.214 77.656 370.582 77.432C370.95 77.208 371.334 77.096 371.734 77.096ZM371.734 80.708C371.934 80.708 372.134 80.648 372.334 80.528C372.534 80.4 372.694 80.24 372.814 80.048C372.934 79.856 372.994 79.656 372.994 79.448C372.994 79.24 372.934 79.04 372.814 78.848C372.694 78.656 372.534 78.5 372.334 78.38C372.142 78.26 371.942 78.2 371.734 78.2C371.526 78.2 371.322 78.26 371.122 78.38C370.93 78.5 370.77 78.66 370.642 78.86C370.522 79.052 370.462 79.248 370.462 79.448C370.462 79.656 370.522 79.856 370.642 80.048C370.77 80.24 370.93 80.4 371.122 80.528C371.322 80.648 371.526 80.708 371.734 80.708ZM375.226 80.876C375.226 80.26 375.418 79.612 375.802 78.932C376.186 78.244 376.826 77.472 377.722 76.616L377.158 76.124L377.878 75.26C378.894 76.052 379.69 76.752 380.266 77.36C380.842 77.96 381.254 78.524 381.502 79.052C381.75 79.572 381.874 80.116 381.874 80.684C381.874 81.156 381.782 81.568 381.598 81.92C381.414 82.264 381.166 82.532 380.854 82.724C380.55 82.908 380.218 83 379.858 83C379.538 83 379.258 82.956 379.018 82.868C378.786 82.772 378.606 82.644 378.478 82.484C378.35 82.644 378.166 82.772 377.926 82.868C377.694 82.956 377.43 83 377.134 83C376.534 83 376.066 82.812 375.73 82.436C375.394 82.06 375.226 81.54 375.226 80.876ZM380.722 80.696C380.722 80.144 380.55 79.608 380.206 79.088C379.862 78.56 379.302 77.976 378.526 77.336C377.79 78.008 377.246 78.624 376.894 79.184C376.542 79.736 376.366 80.28 376.366 80.816C376.366 81.152 376.438 81.404 376.582 81.572C376.734 81.732 376.95 81.812 377.23 81.812C377.51 81.812 377.73 81.728 377.89 81.56C378.05 81.392 378.13 81.16 378.13 80.864V80.06H379.138V80.852C379.138 80.98 379.13 81.1 379.114 81.212C379.106 81.316 379.09 81.412 379.066 81.5C379.146 81.612 379.25 81.692 379.378 81.74C379.514 81.788 379.674 81.812 379.858 81.812C380.114 81.812 380.322 81.716 380.482 81.524C380.642 81.324 380.722 81.048 380.722 80.696ZM388.553 75.872L384.533 83.108L383.561 82.544L387.581 75.308L388.553 75.872ZM389.511 79.868C389.511 79.076 389.471 78.396 389.391 77.828C389.311 77.252 389.151 76.56 388.911 75.752L390.027 75.368C390.275 76.176 390.439 76.884 390.519 77.492C390.607 78.1 390.651 78.884 390.651 79.844V83H389.511V79.868ZM395.931 79.736C395.555 79.904 395.095 79.988 394.551 79.988C393.903 79.988 393.399 79.812 393.039 79.46C392.679 79.1 392.499 78.608 392.499 77.984C392.499 77.528 392.599 77.1 392.799 76.7C392.999 76.292 393.275 75.968 393.627 75.728C393.979 75.488 394.375 75.368 394.815 75.368C395.543 75.368 396.099 75.648 396.483 76.208C396.875 76.76 397.071 77.564 397.071 78.62V83H395.931V79.736ZM395.931 78.536C395.931 77.848 395.835 77.34 395.643 77.012C395.451 76.676 395.155 76.508 394.755 76.508C394.547 76.508 394.355 76.568 394.179 76.688C394.011 76.808 393.879 76.976 393.783 77.192C393.687 77.4 393.639 77.636 393.639 77.9C393.639 78.196 393.727 78.42 393.903 78.572C394.079 78.724 394.339 78.8 394.683 78.8C394.939 78.8 395.167 78.78 395.367 78.74C395.575 78.7 395.763 78.632 395.931 78.536Z" fill="#64748B"/>
<path d="M413 73.1666C409.783 73.1666 407.167 75.7835 407.167 79C407.167 82.2165 409.783 84.8333 413 84.8333C416.216 84.8333 418.833 82.2165 418.833 79C418.833 75.7835 416.216 73.1666 413 73.1666ZM414.33 80.9136C414.245 80.999 414.133 81.0416 414.021 81.0416C413.909 81.0416 413.797 80.999 413.711 80.9136L412.253 79.4553C412.171 79.373 412.125 79.2619 412.125 79.1458V75.9375C412.125 75.6957 412.321 75.5 412.562 75.5C412.804 75.5 413 75.6957 413 75.9375V78.9647L414.33 80.295C414.501 80.4656 414.501 80.7427 414.33 80.9136Z" fill="#94A3B8"/>
<path d="M8 1H424V-1H8V1ZM431 8V92H433V8H431ZM424 99H8V101H424V99ZM1 92V8H-1V92H1ZM8 99C4.134 99 1 95.866 1 92H-1C-1 96.9706 3.02943 101 8 101V99ZM431 92C431 95.866 427.866 99 424 99V101C428.971 101 433 96.9706 433 92H431ZM424 1C427.866 1 431 4.13401 431 8H433C433 3.02944 428.971 -1 424 -1V1ZM8 -1C3.02944 -1 -1 3.02944 -1 8H1C1 4.13401 4.13401 1 8 1V-1Z" fill="#E2E8F0" mask="url(#path-1-inside-1_2591_27824)"/>
</svg>
