<svg width="12" height="12" viewBox="0 0 12 12" >
  <path d="M6 1C3.243 1 1 3.243 1 6C1 8.757 3.243 11 6 11C8.757 11 11 8.757 11 6C11 3.243 8.757 1 6 1ZM8.14025 5.14025L5.64025 7.64025C5.567 7.7135 5.471 7.75 5.375 7.75C5.279 7.75 5.183 7.7135 5.10975 7.64025L3.85975 6.39025C3.71325 6.24375 3.71325 6.0065 3.85975 5.86C4.00625 5.7135 4.2435 5.7135 4.39 5.86L5.37475 6.84475L7.6095 4.61C7.756 4.4635 7.99325 4.4635 8.13975 4.61C8.28625 4.7565 8.2865 4.99375 8.14025 5.14025Z" fill="currentColor"/>
</svg>