<svg width="41" height="40" viewBox="0 0 41 40" fill="none" xmlns="http://www.w3.org/2000/svg">
<path d="M8.4025 10.761L5.0665 9.649L1.9635 4.47701L4.8105 1.63L9.9825 4.733L11.0945 8.06901L22.6265 19.601L19.9345 22.293L8.4025 10.761Z" fill="#BFDBFE"/>
<path d="M4.8885 2.259L9.5675 5.066L10.5835 8.115L10.6585 8.339L10.8255 8.506L21.9195 19.6L19.9335 21.586L8.8395 10.491L8.6725 10.324L8.4485 10.25L5.4005 9.234L2.5925 4.555L4.8885 2.259ZM4.7335 1L1.3335 4.4L4.7325 10.066L8.1315 11.199L19.9335 23L23.3335 19.6L11.5325 7.799L10.3995 4.399L4.7335 1Z" fill="#3B82F6"/>
<path d="M34.8675 38.5C33.8005 38.5 32.7995 38.083 32.0495 37.325L19.0405 24.21L24.6785 18.63L37.6855 31.744C38.4315 32.496 38.8385 33.494 38.8335 34.554C38.8275 35.613 38.4105 36.607 37.6575 37.352C36.9105 38.092 35.9195 38.5 34.8675 38.5Z" fill="#93C5FD"/>
<path d="M24.6745 19.336L37.3305 32.095C37.9815 32.753 38.3385 33.625 38.3335 34.551C38.3285 35.477 37.9645 36.345 37.3065 36.997C36.6525 37.644 35.7865 38 34.8675 38C33.9355 38 33.0605 37.635 32.4035 36.972L19.7485 24.214L24.6745 19.336ZM24.6805 17.922L18.3335 24.207L31.6935 37.676C32.5675 38.558 33.7175 39 34.8675 39C36.0035 39 37.1395 38.57 38.0095 37.707C39.7625 35.971 39.7765 33.144 38.0405 31.391L24.6805 17.922Z" fill="#3B82F6"/>
<path d="M6.76851 38.5C5.44151 38.5 4.19651 37.98 3.26251 37.037C2.33451 36.101 1.82651 34.858 1.83351 33.54C1.84051 32.222 2.35951 30.985 3.29651 30.059L20.6825 12.802L27.6265 19.816L10.2395 37.072C9.31051 37.993 8.07751 38.5 6.76851 38.5ZM6.83451 31.5C5.73551 31.5 4.83851 32.393 4.83351 33.49C4.82851 34.593 5.72151 35.495 6.82351 35.5C7.93051 35.5 8.82851 34.607 8.83351 33.51C8.83851 32.407 7.94551 31.505 6.84351 31.5H6.83451Z" fill="#DBEAFE"/>
<path d="M20.6795 13.509L26.9205 19.812L9.8885 36.716C9.0535 37.544 7.9445 38 6.7685 38C5.5755 38 4.4565 37.533 3.6165 36.686C1.8955 34.948 1.9095 32.135 3.6485 30.413L20.6795 13.509ZM6.8315 36H6.8335C8.2055 36 9.3265 34.884 9.3335 33.512C9.3405 32.134 8.2245 31.007 6.8335 31C5.4615 31 4.3405 32.116 4.3335 33.488C4.3305 34.156 4.5875 34.785 5.0575 35.259C5.5275 35.733 6.1535 35.997 6.8225 36H6.8315ZM20.6855 12.094L2.9445 29.703C0.811499 31.815 0.794499 35.256 2.9065 37.389C3.9695 38.462 5.3685 39 6.7685 39C8.1505 39 9.5325 38.476 10.5925 37.427L28.3335 19.819L20.6855 12.094ZM6.8335 35C6.8305 35 6.8285 35 6.8255 35C5.9975 34.996 5.3295 34.321 5.3335 33.493C5.3375 32.667 6.0085 32 6.8335 32C6.8365 32 6.8385 32 6.8415 32C7.6695 32.004 8.3375 32.679 8.3335 33.507C8.3295 34.333 7.6585 35 6.8335 35Z" fill="#3B82F6"/>
<path d="M30.8855 20.526C28.1585 20.525 25.3565 19.273 23.1945 17.09C19.3025 13.159 18.7055 7.419 21.8605 4.294C23.5485 2.623 26.4915 1.5 29.1835 1.5C30.2525 1.5 31.2305 1.668 32.0995 2L25.7175 8.324L27.3235 12.993L31.9785 14.646L38.3585 8.322C39.6295 11.745 38.2125 16.332 35.9745 18.549C34.6695 19.843 32.9095 20.526 30.8855 20.526Z" fill="#DBEAFE"/>
<path d="M29.1845 2C29.8875 2 30.5475 2.077 31.1585 2.228L25.5895 7.747L25.1435 8.19L25.3475 8.784L26.7725 12.928L26.9295 13.384L27.3835 13.545L31.5145 15.013L32.1065 15.223L32.5525 14.781L38.1175 9.266C38.8405 12.347 37.5755 16.261 35.6215 18.195C34.4115 19.393 32.7725 20.027 30.8835 20.027C28.2895 20.027 25.6155 18.829 23.5465 16.739C21.7285 14.903 20.6015 12.613 20.3725 10.291C20.1515 8.046 20.8035 6.043 22.2095 4.651C23.8135 3.065 26.6155 2 29.1845 2ZM29.1845 1C26.2855 1 23.2545 2.211 21.5085 3.94C18.1505 7.265 18.7465 13.31 22.8375 17.442C25.1725 19.8 28.1415 21.026 30.8845 21.026C32.9485 21.026 34.8845 20.332 36.3255 18.905C38.8765 16.379 40.3375 11.087 38.5265 7.453L31.8485 14.071L27.7175 12.603L26.2925 8.459L32.9705 1.841C31.8295 1.258 30.5205 1 29.1845 1Z" fill="#3B82F6"/>
<path d="M34.8335 34.5L26.8185 26.485" stroke="#3B82F6" stroke-miterlimit="10" stroke-linecap="round"/>
</svg>
