<svg xmlns="http://www.w3.org/2000/svg" width="20" height="20" viewBox="0 0 20 20" fill="none">
  <path d="M10 1.66667C7.70626 1.66667 5.83337 3.53956 5.83337 5.83334C5.83337 8.12712 7.70626 10 10 10C12.2938 10 14.1667 8.12712 14.1667 5.83334C14.1667 3.53956 12.2938 1.66667 10 1.66667ZM10 2.91667C11.6183 2.91667 12.9167 4.2151 12.9167 5.83334C12.9167 7.45157 11.6183 8.75001 10 8.75001C8.38181 8.75001 7.08337 7.45157 7.08337 5.83334C7.08337 4.2151 8.38181 2.91667 10 2.91667ZM5.20837 11.6667C4.18025 11.6667 3.33337 12.5135 3.33337 13.5417V14.0413C3.33337 15.2667 4.11034 16.3658 5.29545 17.1216C6.48056 17.8773 8.10206 18.3333 10 18.3333C11.898 18.3333 13.5195 17.8773 14.7046 17.1216C15.8897 16.3658 16.6667 15.2667 16.6667 14.0413V13.5417C16.6667 12.5135 15.8198 11.6667 14.7917 11.6667H5.20837ZM5.20837 12.9167H14.7917C15.1444 12.9167 15.4167 13.189 15.4167 13.5417V14.0413C15.4167 14.7352 14.9698 15.4699 14.0324 16.0677C13.095 16.6655 11.6954 17.0833 10 17.0833C8.30469 17.0833 6.90504 16.6655 5.96765 16.0677C5.03026 15.4699 4.58337 14.7352 4.58337 14.0413V13.5417C4.58337 13.189 4.85567 12.9167 5.20837 12.9167Z" fill="#A3A3A3"/>
</svg>