<svg xmlns="http://www.w3.org/2000/svg" width="20" height="20" viewBox="0 0 20 20" fill="none">
  <path d="M10 1.66667C7.70621 1.66667 5.83333 3.53955 5.83333 5.83333C5.83333 8.12712 7.70621 10 10 10C12.2938 10 14.1667 8.12712 14.1667 5.83333C14.1667 3.53955 12.2938 1.66667 10 1.66667ZM5.20833 11.6667C4.18021 11.6667 3.33333 12.5135 3.33333 13.5417V14.0413C3.33333 15.2667 4.1103 16.3658 5.29541 17.1216C6.48052 17.8773 8.10202 18.3333 10 18.3333C11.898 18.3333 13.5195 17.8773 14.7046 17.1216C15.8897 16.3658 16.6667 15.2667 16.6667 14.0413V13.5417C16.6667 12.5135 15.8198 11.6667 14.7917 11.6667H5.20833Z" fill="#FAFAFA"/>
</svg>