<svg width="16" height="16" viewBox="0 0 16 16" fill="none" xmlns="http://www.w3.org/2000/svg">
<g id="chart" clip-path="url(#clip0_2913_2576)">
<path id="vector" d="M7.99198 0.992836C7.85949 0.994906 7.73323 1.04948 7.64095 1.14457C7.54866 1.23967 7.4979 1.3675 7.4998 1.5V2H1.4998C1.43354 1.99906 1.36776 2.0113 1.30628 2.03601C1.24479 2.06071 1.18883 2.0974 1.14165 2.14392C1.09446 2.19044 1.05699 2.24588 1.03142 2.307C1.00585 2.36813 0.992676 2.43373 0.992676 2.5C0.992676 2.56626 1.00585 2.63186 1.03142 2.69299C1.05699 2.75412 1.09446 2.80956 1.14165 2.85608C1.18883 2.9026 1.24479 2.93928 1.30628 2.96399C1.36776 2.98869 1.43354 3.00093 1.4998 3H1.66646V10.1667C1.66646 11.1777 2.48913 12 3.4998 12H5.52454L4.38586 14.2767C4.3547 14.3356 4.33563 14.4002 4.32978 14.4666C4.32393 14.533 4.3314 14.5999 4.35178 14.6633C4.37215 14.7268 4.405 14.7855 4.44841 14.8361C4.49181 14.8867 4.54489 14.9281 4.60453 14.9579C4.66416 14.9876 4.72915 15.0052 4.79566 15.0095C4.86218 15.0138 4.92888 15.0047 4.99185 14.9829C5.05482 14.961 5.11278 14.9268 5.16233 14.8822C5.21189 14.8377 5.25203 14.7836 5.2804 14.7233L6.64172 12H9.35787L10.7192 14.7233C10.7476 14.7836 10.7877 14.8377 10.8373 14.8822C10.8868 14.9268 10.9448 14.961 11.0077 14.9829C11.0707 15.0047 11.1374 15.0138 11.2039 15.0095C11.2704 15.0052 11.3354 14.9876 11.3951 14.9579C11.4547 14.9281 11.5078 14.8867 11.5512 14.8361C11.5946 14.7855 11.6274 14.7268 11.6478 14.6633C11.6682 14.5999 11.6757 14.533 11.6698 14.4666C11.664 14.4002 11.6449 14.3356 11.6137 14.2767L10.4751 12H12.4998C13.5105 12 14.3331 11.1777 14.3331 10.1667V3H14.4998C14.5661 3.00093 14.6318 2.98869 14.6933 2.96399C14.7548 2.93928 14.8108 2.9026 14.8579 2.85608C14.9051 2.80956 14.9426 2.75412 14.9682 2.69299C14.9937 2.63186 15.0069 2.56626 15.0069 2.5C15.0069 2.43373 14.9937 2.36813 14.9682 2.307C14.9426 2.24588 14.9051 2.19044 14.8579 2.14392C14.8108 2.0974 14.7548 2.06071 14.6933 2.03601C14.6318 2.0113 14.5661 1.99906 14.4998 2H8.4998V1.5C8.50076 1.43308 8.48827 1.36664 8.46308 1.30463C8.4379 1.24263 8.40052 1.1863 8.35316 1.13901C8.3058 1.09171 8.24943 1.05441 8.18739 1.0293C8.12535 1.00419 8.0589 0.99179 7.99198 0.992836ZM11.4998 4.66666C11.6277 4.66666 11.7556 4.71548 11.8533 4.81315C12.0486 5.00848 12.0483 5.32485 11.8533 5.52018L8.18665 9.18685C8.08898 9.28451 7.96113 9.33333 7.83313 9.33333C7.70513 9.33333 7.57728 9.28451 7.47961 9.18685L6.16646 7.87369L4.85331 9.18685C4.65798 9.38218 4.34161 9.38218 4.14628 9.18685C3.95095 8.99185 3.95095 8.67481 4.14628 8.47981L5.81295 6.81315C6.00828 6.61782 6.32465 6.61782 6.51998 6.81315L7.83313 8.1263L11.1463 4.81315C11.2439 4.71548 11.3719 4.66666 11.4998 4.66666Z" fill="#3B82F6"/>
</g>
<defs>
<clipPath id="clip0_2913_2576">
<rect width="16" height="16" fill="white"/>
</clipPath>
</defs>
</svg>
