<svg width="20" height="20" viewBox="0 0 20 20" fill="none" xmlns="http://www.w3.org/2000/svg">
<path d="M11.6389 3.32275C11.4611 3.32928 11.2901 3.39252 11.1508 3.50322C11.0116 3.61392 10.9114 3.76627 10.865 3.93799L7.53163 15.6047C7.47098 15.8172 7.49727 16.0452 7.60472 16.2384C7.71216 16.4317 7.89195 16.5743 8.10455 16.6349C8.31715 16.6956 8.54513 16.6693 8.73834 16.5618C8.93156 16.4544 9.07417 16.2746 9.13482 16.062L12.4682 4.39534C12.5063 4.26838 12.5136 4.13414 12.4894 4.00378C12.4653 3.87343 12.4104 3.75071 12.3293 3.64583C12.2482 3.54095 12.1433 3.45692 12.0232 3.40073C11.9031 3.34454 11.7714 3.31781 11.6389 3.32275ZM5.86009 5.39876C5.64359 5.39399 5.43373 5.47367 5.27496 5.62093L1.10829 9.38151C1.02178 9.45965 0.952622 9.55507 0.905288 9.6616C0.857953 9.76814 0.833496 9.88342 0.833496 10C0.833496 10.1166 0.857953 10.2319 0.905288 10.3384C0.952622 10.4449 1.02178 10.5403 1.10829 10.6185L5.27496 14.3791C5.35565 14.4554 5.4508 14.5149 5.55481 14.554C5.65882 14.5931 5.7696 14.611 5.88062 14.6066C5.99164 14.6022 6.10068 14.5757 6.2013 14.5286C6.30192 14.4815 6.39211 14.4147 6.46656 14.3322C6.54101 14.2498 6.59821 14.1532 6.63481 14.0483C6.67141 13.9434 6.68666 13.8322 6.67966 13.7214C6.67267 13.6105 6.64357 13.5021 6.59408 13.4026C6.5446 13.3031 6.47572 13.2146 6.3915 13.1421L2.91005 10L6.3915 6.85791C6.51752 6.74713 6.60717 6.60088 6.64871 6.43832C6.69026 6.27575 6.68176 6.10443 6.62434 5.94677C6.56692 5.7891 6.46325 5.65245 6.32689 5.55467C6.19053 5.45689 6.02783 5.40256 5.86009 5.39876ZM14.1145 5.39958C13.949 5.40831 13.79 5.46615 13.6575 5.56571C13.5251 5.66527 13.4254 5.80204 13.3711 5.95855C13.3167 6.11506 13.3103 6.28421 13.3525 6.4444C13.3948 6.60459 13.4838 6.74856 13.6083 6.85791L17.0897 10L13.6083 13.1421C13.5241 13.2146 13.4552 13.3031 13.4057 13.4026C13.3562 13.5021 13.3271 13.6105 13.3201 13.7214C13.3131 13.8322 13.3284 13.9434 13.365 14.0483C13.4016 14.1532 13.4588 14.2498 13.5332 14.3322C13.6077 14.4147 13.6979 14.4815 13.7985 14.5286C13.8991 14.5757 14.0081 14.6022 14.1192 14.6066C14.2302 14.611 14.341 14.5931 14.445 14.554C14.549 14.5149 14.6441 14.4554 14.7248 14.3791L18.8915 10.6185C18.978 10.5403 19.0472 10.4449 19.0945 10.3384C19.1418 10.2319 19.1663 10.1166 19.1663 10C19.1663 9.88342 19.1418 9.76814 19.0945 9.6616C19.0472 9.55507 18.978 9.45965 18.8915 9.38151L14.7248 5.62093C14.6431 5.54507 14.5469 5.4864 14.4421 5.44838C14.3373 5.41035 14.2258 5.39376 14.1145 5.39958Z" fill="#94A3B8"/>
</svg>
