<svg width="16" height="16" viewBox="0 0 16 16" fill="none" xmlns="http://www.w3.org/2000/svg">
<path fill-rule="evenodd" clip-rule="evenodd" d="M2.3999 2.8C2.3999 2.13726 2.93716 1.6 3.5999 1.6H9.10285C9.42111 1.6 9.72633 1.72643 9.95137 1.95147L13.2484 5.24853C13.4735 5.47357 13.5999 5.77879 13.5999 6.09705V13.2C13.5999 13.8627 13.0626 14.4 12.3999 14.4H3.5999C2.93716 14.4 2.3999 13.8627 2.3999 13.2V2.8ZM11.0851 7.3529C11.28 7.08491 11.2208 6.70966 10.9528 6.51476C10.6848 6.31985 10.3096 6.3791 10.1147 6.6471L7.32766 10.4792L5.82417 8.97573C5.58985 8.74142 5.20995 8.74142 4.97564 8.97573C4.74132 9.21005 4.74132 9.58995 4.97564 9.82426L6.97564 11.8243C7.09972 11.9483 7.2719 12.0119 7.44684 11.9982C7.62177 11.9844 7.78193 11.8948 7.88514 11.7529L11.0851 7.3529Z" fill="white"/>
</svg>
