<svg width="16" height="16" viewBox="0 0 16 16" fill="none" xmlns="http://www.w3.org/2000/svg">
<g id="arrow_path">
<path id="vector" fill-rule="evenodd" clip-rule="evenodd" d="M12.2499 9.13886C11.621 11.4861 9.20829 12.8791 6.86104 12.2501C6.08582 12.0424 5.41619 11.6411 4.88841 11.1123L4.63918 10.8631L6.58577 10.8628C6.91714 10.8627 7.18572 10.594 7.18566 10.2627C7.1856 9.93128 6.91692 9.6627 6.58555 9.66276L3.19081 9.66337C3.03167 9.6634 2.87907 9.72664 2.76657 9.83919C2.65407 9.95173 2.59088 10.1044 2.59092 10.2635L2.59163 13.657C2.5917 13.9883 2.86038 14.2569 3.19176 14.2568C3.52313 14.2568 3.7917 13.9881 3.79163 13.6567L3.79122 11.7122L4.0391 11.9601C4.71193 12.6341 5.56607 13.1455 6.55046 13.4092C9.53787 14.2097 12.6086 12.4369 13.409 9.44944C13.4948 9.12936 13.3048 8.80036 12.9848 8.7146C12.6647 8.62883 12.3357 8.81878 12.2499 9.13886ZM13.2331 6.16095C13.3456 6.04841 13.4088 5.89577 13.4088 5.73662L13.4082 2.34307C13.4081 2.0117 13.1395 1.74311 12.8081 1.74316C12.4767 1.74322 12.2081 2.01189 12.2082 2.34326L12.2085 4.28796L11.9607 4.04011C11.2879 3.36617 10.4335 2.85461 9.44923 2.59087C6.46182 1.7904 3.39114 3.56326 2.59066 6.55067C2.5049 6.87075 2.69485 7.19975 3.01493 7.28552C3.335 7.37128 3.66401 7.18133 3.74977 6.86125C4.37872 4.514 6.7914 3.12104 9.13865 3.74998C9.9139 3.95771 10.5836 4.35905 11.1113 4.88783L11.3602 5.13672L9.41464 5.13672C9.08327 5.13672 8.81464 5.40535 8.81464 5.73672C8.81464 6.06809 9.08327 6.33672 9.41464 6.33672H12.8088C12.9679 6.33672 13.1205 6.27349 13.2331 6.16095Z" fill="#94A3B8"/>
</g>
</svg>
