<svg width="16" height="16" viewBox="0 0 16 16" fill="none" xmlns="http://www.w3.org/2000/svg">
<g id="arrow_uturn_right">
<path id="vector" fill-rule="evenodd" clip-rule="evenodd" d="M9.76597 1.78571C9.53717 2.02541 9.546 2.40521 9.7857 2.63401L13.1024 5.8H5.09999C2.72516 5.8 0.799988 7.72517 0.799988 10.1C0.799988 12.4748 2.72516 14.4 5.09999 14.4H7.39999C7.73136 14.4 7.99999 14.1314 7.99999 13.8C7.99999 13.4686 7.73136 13.2 7.39999 13.2H5.09999C3.3879 13.2 1.99999 11.8121 1.99999 10.1C1.99999 8.38792 3.3879 7 5.09999 7H13.1024L9.7857 10.166C9.546 10.3948 9.53717 10.7746 9.76597 11.0143C9.99478 11.254 10.3746 11.2628 10.6143 11.034L15.0143 6.83401C15.1329 6.7208 15.2 6.56397 15.2 6.4C15.2 6.23603 15.1329 6.0792 15.0143 5.96599L10.6143 1.76599C10.3746 1.53718 9.99478 1.54602 9.76597 1.78571Z" fill="currentColor"/>
</g>
</svg>
