<svg width="16" height="16" viewBox="0 0 16 16" fill="none" xmlns="http://www.w3.org/2000/svg">
<g id="cancel_circle">
<path id="vector" d="M7.99992 1.33331C4.32394 1.33331 1.33325 4.324 1.33325 7.99998C1.33325 11.676 4.32394 14.6666 7.99992 14.6666C11.6759 14.6666 14.6666 11.676 14.6666 7.99998C14.6666 4.324 11.6759 1.33331 7.99992 1.33331ZM7.99992 2.33331C11.1355 2.33331 13.6666 4.86444 13.6666 7.99998C13.6666 11.1355 11.1355 13.6666 7.99992 13.6666C4.86438 13.6666 2.33325 11.1355 2.33325 7.99998C2.33325 4.86444 4.86438 2.33331 7.99992 2.33331ZM10.162 5.32615C10.03 5.32927 9.90453 5.38451 9.81307 5.4798L7.99992 7.29295L6.18677 5.4798C6.14016 5.4318 6.0844 5.39365 6.02278 5.36759C5.96116 5.34153 5.89494 5.32811 5.82804 5.3281C5.72854 5.32813 5.6313 5.35784 5.54877 5.41344C5.46625 5.46904 5.40218 5.54799 5.36478 5.6402C5.32738 5.73241 5.31834 5.83369 5.33882 5.93106C5.3593 6.02844 5.40836 6.11749 5.47974 6.18683L7.29289 7.99998L5.47974 9.81313C5.43175 9.8592 5.39344 9.91439 5.36705 9.97545C5.34066 10.0365 5.32672 10.1022 5.32604 10.1688C5.32536 10.2353 5.33797 10.3013 5.36311 10.3628C5.38826 10.4244 5.42544 10.4804 5.47247 10.5274C5.51951 10.5745 5.57547 10.6116 5.63705 10.6368C5.69864 10.6619 5.76463 10.6745 5.83115 10.6739C5.89767 10.6732 5.96338 10.6592 6.02445 10.6328C6.08551 10.6065 6.14069 10.5681 6.18677 10.5202L7.99992 8.70701L9.81307 10.5202C9.85914 10.5681 9.91433 10.6065 9.97539 10.6328C10.0365 10.6592 10.1022 10.6732 10.1687 10.6739C10.2352 10.6745 10.3012 10.6619 10.3628 10.6368C10.4244 10.6116 10.4803 10.5745 10.5274 10.5274C10.5744 10.4804 10.6116 10.4244 10.6367 10.3628C10.6619 10.3013 10.6745 10.2353 10.6738 10.1688C10.6731 10.1022 10.6592 10.0365 10.6328 9.97545C10.6064 9.91439 10.5681 9.8592 10.5201 9.81313L8.70695 7.99998L10.5201 6.18683C10.5928 6.11704 10.6427 6.02692 10.6633 5.92826C10.6839 5.82961 10.6742 5.72703 10.6355 5.63398C10.5968 5.54093 10.5309 5.46175 10.4464 5.40682C10.3619 5.35189 10.2628 5.32377 10.162 5.32615Z" fill="#94A3B8"/>
</g>
</svg>
