<svg width="24" height="24" viewBox="0 0 24 24" fill="none" xmlns="http://www.w3.org/2000/svg">
<g id="code">
<path id="vector" d="M14.2424 3.99023C14.0826 3.99262 13.9277 4.04602 13.8003 4.14264C13.6729 4.23926 13.5798 4.37405 13.5344 4.52734L9.03439 19.0273C9.00129 19.1224 8.98764 19.2231 8.99426 19.3235C9.00089 19.4239 9.02765 19.5219 9.07295 19.6118C9.11825 19.7017 9.18117 19.7815 9.25796 19.8465C9.33475 19.9115 9.42384 19.9604 9.51993 19.9903C9.61601 20.0202 9.71713 20.0305 9.81726 20.0205C9.91739 20.0105 10.0145 19.9804 10.1028 19.9321C10.191 19.8838 10.2687 19.8182 10.3311 19.7393C10.3935 19.6604 10.4394 19.5697 10.466 19.4727L14.966 4.97265C15.003 4.85921 15.0124 4.73859 14.9934 4.6208C14.9744 4.50301 14.9276 4.39146 14.8568 4.29539C14.786 4.19933 14.6934 4.12153 14.5865 4.06846C14.4797 4.01538 14.3617 3.98856 14.2424 3.99023ZM6.75509 6.49218C6.56007 6.49297 6.37302 6.56968 6.23361 6.70605L1.23361 11.4561C1.15981 11.5261 1.10103 11.6105 1.06087 11.704C1.02071 11.7975 1 11.8982 1 12C1 12.1018 1.02071 12.2025 1.06087 12.296C1.10103 12.3895 1.15981 12.4739 1.23361 12.5439L6.23361 17.2939C6.30504 17.3618 6.38913 17.4149 6.4811 17.4503C6.57306 17.4856 6.67108 17.5025 6.76957 17.5C6.86806 17.4975 6.96509 17.4756 7.05511 17.4355C7.14513 17.3955 7.22639 17.3381 7.29424 17.2667C7.36208 17.1952 7.41519 17.1111 7.45054 17.0192C7.48588 16.9272 7.50276 16.8292 7.50021 16.7307C7.49766 16.6322 7.47574 16.5352 7.43569 16.4451C7.39565 16.3551 7.33826 16.2739 7.26681 16.206L2.83908 12L7.26681 7.79394C7.37808 7.69145 7.45575 7.55772 7.48964 7.41029C7.52353 7.26286 7.51205 7.10863 7.45671 6.96784C7.40136 6.82705 7.30474 6.70629 7.17953 6.6214C7.05432 6.53651 6.90637 6.49147 6.75509 6.49218ZM17.2229 6.49316C17.0737 6.49708 16.9291 6.54539 16.8076 6.63192C16.686 6.71845 16.593 6.83926 16.5405 6.97891C16.488 7.11856 16.4783 7.27071 16.5127 7.41589C16.5471 7.56107 16.624 7.6927 16.7336 7.79394L21.1613 12L16.7336 16.206C16.6622 16.2739 16.6048 16.3551 16.5647 16.4451C16.5247 16.5352 16.5028 16.6322 16.5002 16.7307C16.4977 16.8292 16.5145 16.9272 16.5499 17.0192C16.5852 17.1111 16.6383 17.1952 16.7062 17.2667C16.774 17.3381 16.8553 17.3955 16.9453 17.4355C17.0353 17.4756 17.1324 17.4975 17.2309 17.5C17.3293 17.5025 17.4274 17.4856 17.5193 17.4503C17.6113 17.4149 17.6954 17.3618 17.7668 17.2939L22.7668 12.5439C22.8406 12.4739 22.8994 12.3895 22.9396 12.296C22.9797 12.2025 23.0004 12.1018 23.0004 12C23.0004 11.8982 22.9797 11.7975 22.9396 11.704C22.8994 11.6105 22.8406 11.5261 22.7668 11.4561L17.7668 6.70605C17.695 6.63599 17.6098 6.58105 17.5164 6.54448C17.423 6.50791 17.3232 6.49046 17.2229 6.49316Z" fill="#A3A3A3"/>
</g>
</svg>
