<svg width="20" height="20" viewBox="0 0 20 20">
  <path d="M5.79346 2.5C5.2377 2.5 4.70925 2.74718 4.35303 3.17464L2.93457 4.87712C2.9343 4.87712 2.93403 4.87712 2.93376 4.87712C2.65375 5.21387 2.5 5.63896 2.5 6.07747V15.2083C2.5 16.4666 3.53343 17.5 4.79167 17.5H15.2083C16.4666 17.5 17.5 16.4666 17.5 15.2083V6.07747C17.5 5.63896 17.3461 5.21406 17.0654 4.87712L15.647 3.17464C15.2908 2.74718 14.7623 2.5 14.2065 2.5H5.79346ZM5.79346 3.75H14.2065C14.3925 3.75 14.5679 3.83207 14.6867 3.97461L15.8879 5.41667H4.11133L5.31331 3.97461C5.4321 3.83207 5.60755 3.75 5.79346 3.75ZM3.75 6.66667H16.25V15.2083C16.25 15.7909 15.7909 16.25 15.2083 16.25H4.79167C4.20907 16.25 3.75 15.7909 3.75 15.2083V6.66667ZM8.125 8.33333C8.04218 8.33216 7.95995 8.34746 7.8831 8.37835C7.80624 8.40923 7.73629 8.45508 7.67731 8.51323C7.61833 8.57139 7.57149 8.64068 7.53953 8.71709C7.50756 8.7935 7.4911 8.8755 7.4911 8.95833C7.4911 9.04116 7.50756 9.12316 7.53953 9.19957C7.57149 9.27599 7.61833 9.34528 7.67731 9.40343C7.73629 9.46159 7.80624 9.50744 7.8831 9.53832C7.95995 9.5692 8.04218 9.5845 8.125 9.58333H11.875C11.9578 9.5845 12.04 9.5692 12.1169 9.53832C12.1938 9.50744 12.2637 9.46159 12.3227 9.40343C12.3817 9.34528 12.4285 9.27599 12.4605 9.19957C12.4924 9.12316 12.5089 9.04116 12.5089 8.95833C12.5089 8.8755 12.4924 8.7935 12.4605 8.71709C12.4285 8.64068 12.3817 8.57139 12.3227 8.51323C12.2637 8.45508 12.1938 8.40923 12.1169 8.37835C12.04 8.34746 11.9578 8.33216 11.875 8.33333H8.125Z" fill="currentColor"/>
</svg>