<svg width="16" height="16" viewBox="0 0 16 16" fill="none" xmlns="http://www.w3.org/2000/svg">
  <path d="M1.59998 3.40001C1.59998 2.40589 2.40586 1.60001 3.39998 1.60001H8.59998C9.59409 1.60001 10.4 2.40589 10.4 3.40001V4.40001H7.39998C5.74312 4.40001 4.39998 5.74315 4.39998 7.40001V10.4H3.39998C2.40586 10.4 1.59998 9.59412 1.59998 8.60001V3.40001Z" fill="currentColor"/>
  <path d="M7.39998 5.60001C6.40586 5.60001 5.59998 6.40589 5.59998 7.40001V12.6C5.59998 13.5941 6.40586 14.4 7.39998 14.4H12.6C13.5941 14.4 14.4 13.5941 14.4 12.6V7.40001C14.4 6.40589 13.5941 5.60001 12.6 5.60001H7.39998Z" fill="currentColor"/>
</svg>