<svg width="28" height="28" viewBox="0 0 28 28" fill="none" xmlns="http://www.w3.org/2000/svg">
<g id="folder">
<path id="vector" d="M4.95825 4.66667C3.511 4.66667 2.33325 5.84442 2.33325 7.29167V20.7083C2.33325 20.9516 2.37679 21.1822 2.43921 21.4056C2.46313 21.3169 2.48743 21.2282 2.5201 21.1413L3.23104 19.25L3.85881 17.5775L5.44588 13.3529C5.95572 11.9949 7.27241 11.0833 8.72257 11.0833H24.4999V10.2083C24.4999 8.76109 23.3222 7.58334 21.8749 7.58334H14.025L11.4171 5.40951C10.8419 4.93001 10.1124 4.66667 9.36401 4.66667H4.95825ZM8.72257 12.8333C7.99341 12.8333 7.34031 13.2856 7.08423 13.9681L4.15959 21.7565C3.87259 22.5189 4.43614 23.3333 5.25106 23.3333H22.1939C22.9231 23.3333 23.5762 22.8811 23.8323 22.1986L26.7546 14.417C27.0469 13.6534 26.4833 12.8333 25.6654 12.8333H8.72257Z" fill="currentcolor"/>
</g>
</svg>
