<svg width="28" height="28" viewBox="0 0 28 28" fill="none" xmlns="http://www.w3.org/2000/svg">
<path d="M4.9585 4.66667C3.51912 4.66667 2.3335 5.8523 2.3335 7.29167V21.237H2.34261C2.32563 22.3282 3.21339 23.3333 4.3763 23.3333H21.3192C22.41 23.3333 23.3934 22.6526 23.7767 21.6312L26.6979 13.8542V13.8519C27.1972 12.5426 26.1923 11.0833 24.7907 11.0833H24.5002V10.2083C24.5002 8.76896 23.3145 7.58334 21.8752 7.58334H14.0252L11.4185 5.41065C11.4181 5.41065 11.4177 5.41065 11.4173 5.41065C10.8409 4.9304 10.1147 4.66667 9.36426 4.66667H4.9585ZM4.9585 6.41667H9.36426C9.70584 6.41667 10.035 6.53646 10.2974 6.75505L13.1479 9.13054C13.3053 9.26166 13.5037 9.33342 13.7085 9.33334H21.8752C22.369 9.33334 22.7502 9.71455 22.7502 10.2083V11.0833H7.84782C6.75699 11.0833 5.77354 11.7641 5.3903 12.7855L4.0835 16.265V7.29167C4.0835 6.79788 4.4647 6.41667 4.9585 6.41667ZM7.84782 12.8333H24.7907C25.0239 12.8333 25.1462 13.0113 25.063 13.2287C25.0622 13.2306 25.0615 13.2325 25.0607 13.2344L22.1383 21.016C22.0094 21.3596 21.6867 21.5833 21.3192 21.5833H4.3763C4.1443 21.5833 4.02141 21.4066 4.10286 21.1903C4.10324 21.1899 4.10362 21.1895 4.104 21.1891L7.02865 13.4007C7.15757 13.0571 7.48032 12.8333 7.84782 12.8333Z" fill="#737373"/>
</svg>
