<svg width="28" height="28" viewBox="0 0 28 28" fill="none" xmlns="http://www.w3.org/2000/svg">
<path d="M7.2915 2.33333C5.85213 2.33333 4.6665 3.51895 4.6665 4.95833V23.0417C4.6665 24.481 5.85213 25.6667 7.2915 25.6667H20.7082C22.1475 25.6667 23.3332 24.481 23.3332 23.0417V10.7917C23.3331 10.5596 23.2409 10.3371 23.0768 10.173L23.0677 10.1639L15.4935 2.58968C15.3294 2.42558 15.1069 2.33337 14.8748 2.33333H7.2915ZM7.2915 4.08333H13.9998V9.04166C13.9998 10.481 15.1855 11.6667 16.6248 11.6667H21.5832V23.0417C21.5832 23.5355 21.202 23.9167 20.7082 23.9167H7.2915C6.79771 23.9167 6.4165 23.5355 6.4165 23.0417V4.95833C6.4165 4.46454 6.79771 4.08333 7.2915 4.08333ZM15.7498 5.32063L20.3459 9.91666H16.6248C16.131 9.91666 15.7498 9.53545 15.7498 9.04166V5.32063Z" fill="currentColor"/>
</svg>
