<svg width="20" height="20" viewBox="0 0 20 20" >
  <path d="M3.54175 2.91666C2.51362 2.91666 1.66675 3.76353 1.66675 4.79166V15.2083C1.66675 16.2364 2.51362 17.0833 3.54175 17.0833H16.4584C17.4865 17.0833 18.3334 16.2364 18.3334 15.2083V4.79166C18.3334 3.76353 17.4865 2.91666 16.4584 2.91666H3.54175ZM3.54175 4.16666H6.66675V15.8333H3.54175C3.18904 15.8333 2.91675 15.561 2.91675 15.2083V4.79166C2.91675 4.43895 3.18904 4.16666 3.54175 4.16666ZM7.91675 4.16666H12.0834V15.8333H7.91675V4.16666ZM13.3334 4.16666H16.4584C16.8111 4.16666 17.0834 4.43895 17.0834 4.79166V15.2083C17.0834 15.561 16.8111 15.8333 16.4584 15.8333H13.3334V4.16666Z" fill="currentColor"/>
</svg>