<svg width="16" height="16" viewBox="0 0 16 16" fill="none" xmlns="http://www.w3.org/2000/svg">
  <path fill-rule="evenodd" clip-rule="evenodd" d="M9.59995 2.93333C9.93132 2.93333 10.2 3.20196 10.2 3.53333L10.2 12.4667C10.2 12.798 9.93132 13.0667 9.59995 13.0667C9.26858 13.0667 8.99995 12.798 8.99995 12.4667L8.99995 3.53333C8.99995 3.20196 9.26858 2.93333 9.59995 2.93333ZM6.39995 2.93333C6.73132 2.93333 6.99995 3.20196 6.99995 3.53333L6.99995 12.4667C6.99995 12.798 6.73132 13.0667 6.39995 13.0667C6.06858 13.0667 5.79995 12.798 5.79995 12.4667L5.79995 3.53333C5.79995 3.20196 6.06858 2.93333 6.39995 2.93333Z" fill="currentColor"/>
</svg>