<svg width="16" height="16" viewBox="0 0 16 16" fill="none" xmlns="http://www.w3.org/2000/svg">
  <path fill-rule="evenodd" clip-rule="evenodd" d="M2.62426 1.77574C2.38995 1.54143 2.01005 1.54143 1.77574 1.77574C1.54142 2.01006 1.54142 2.38996 1.77574 2.62427L13.3757 14.2243C13.61 14.4586 13.9899 14.4586 14.2243 14.2243C14.4586 13.99 14.4586 13.6101 14.2243 13.3757L12.8281 11.9796C14.0051 11.0875 14.9276 9.87718 15.4675 8.47675C15.5852 8.1715 15.5853 7.83302 15.4678 7.52771C14.3136 4.52841 11.4048 2.40001 7.99887 2.40001C6.62566 2.40001 5.33325 2.746 4.20408 3.35556L2.62426 1.77574ZM6.20155 5.35303L7.07494 6.22642C7.35161 6.08179 7.66633 6.00001 8.00015 6.00001C9.10472 6.00001 10.0001 6.89544 10.0001 8.00001C10.0001 8.33383 9.91836 8.64854 9.77374 8.92522L10.6473 9.79875C10.9963 9.28616 11.2003 8.6669 11.2003 8.00001C11.2003 6.2327 9.76761 4.80001 8.0003 4.80001C7.3334 4.80001 6.71415 5.00401 6.20155 5.35303Z" fill="currentColor"/>
  <path d="M8.59871 11.1441L10.6169 13.1623C9.79699 13.4459 8.91664 13.6 8.0003 13.6C4.59438 13.6 1.68558 11.4716 0.531404 8.47231C0.413913 8.16699 0.414015 7.82851 0.531688 7.52327C0.924827 6.50346 1.52086 5.58447 2.27033 4.81576L4.85616 7.40159C4.81948 7.59545 4.8003 7.79549 4.8003 8.00001C4.8003 9.76732 6.23299 11.2 8.0003 11.2C8.20482 11.2 8.40486 11.1808 8.59871 11.1441Z" fill="currentColor"/>
</svg>