<svg width="20" height="20" viewBox="0 0 20 20">
  <path d="M11.8686 3.3252C11.7354 3.32719 11.6063 3.37169 11.5002 3.45221C11.394 3.53272 11.3164 3.64504 11.2786 3.77279L7.52858 15.8561C7.50099 15.9353 7.48962 16.0192 7.49514 16.1029C7.50066 16.1866 7.52296 16.2683 7.56071 16.3432C7.59846 16.418 7.6509 16.4846 7.71489 16.5388C7.77888 16.5929 7.85312 16.6337 7.93319 16.6586C8.01326 16.6835 8.09753 16.6921 8.18097 16.6837C8.26441 16.6754 8.34532 16.6504 8.41888 16.6101C8.49245 16.5698 8.55716 16.5152 8.60917 16.4494C8.66118 16.3836 8.69942 16.3081 8.72161 16.2272L12.4716 4.14388C12.5024 4.04935 12.5102 3.94883 12.4944 3.85067C12.4786 3.75251 12.4396 3.65955 12.3806 3.5795C12.3216 3.49944 12.2444 3.43461 12.1554 3.39038C12.0663 3.34615 11.968 3.32381 11.8686 3.3252ZM5.62916 5.41016C5.46665 5.41081 5.31077 5.47474 5.19459 5.58838L1.02793 9.54671C0.966424 9.60511 0.917447 9.67541 0.883979 9.75334C0.850511 9.83126 0.833252 9.91519 0.833252 10C0.833252 10.0848 0.850511 10.1687 0.883979 10.2467C0.917447 10.3246 0.966424 10.3949 1.02793 10.4533L5.19459 14.4116C5.25412 14.4682 5.3242 14.5124 5.40083 14.5419C5.47747 14.5714 5.55915 14.5854 5.64123 14.5833C5.7233 14.5812 5.80416 14.563 5.87918 14.5296C5.9542 14.4962 6.02191 14.4484 6.07845 14.3889C6.13499 14.3294 6.17925 14.2593 6.2087 14.1826C6.23815 14.106 6.25222 14.0243 6.25009 13.9422C6.24797 13.8602 6.2297 13.7793 6.19633 13.7043C6.16296 13.6293 6.11514 13.5616 6.0556 13.505L2.36582 10L6.0556 6.49495C6.14832 6.40955 6.21305 6.2981 6.24129 6.17524C6.26953 6.05238 6.25996 5.92386 6.21384 5.80653C6.16772 5.68921 6.08721 5.58858 5.98286 5.51784C5.87852 5.4471 5.75522 5.40956 5.62916 5.41016ZM14.3523 5.41097C14.228 5.41424 14.1075 5.4545 14.0062 5.52661C13.9049 5.59871 13.8275 5.69939 13.7837 5.81576C13.7399 5.93214 13.7318 6.05892 13.7605 6.17991C13.7892 6.3009 13.8533 6.41059 13.9446 6.49495L17.6344 10L13.9446 13.505C13.8851 13.5616 13.8372 13.6293 13.8039 13.7043C13.7705 13.7793 13.7522 13.8602 13.7501 13.9422C13.748 14.0243 13.762 14.106 13.7915 14.1826C13.8209 14.2593 13.8652 14.3294 13.9217 14.3889C13.9783 14.4484 14.046 14.4962 14.121 14.5296C14.196 14.563 14.2769 14.5812 14.359 14.5833C14.441 14.5854 14.5227 14.5714 14.5994 14.5419C14.676 14.5124 14.7461 14.4682 14.8056 14.4116L18.9723 10.4533C19.0338 10.3949 19.0827 10.3246 19.1162 10.2467C19.1497 10.1687 19.1669 10.0848 19.1669 10C19.1669 9.91519 19.1497 9.83126 19.1162 9.75334C19.0827 9.67541 19.0338 9.60511 18.9723 9.54671L14.8056 5.58838C14.7457 5.52999 14.6748 5.48421 14.5969 5.45374C14.5191 5.42326 14.4359 5.40872 14.3523 5.41097Z" fill="currentColor"/>
</svg>