<svg width="24" height="24" viewBox="0 0 24 24" fill="none" xmlns="http://www.w3.org/2000/svg">
<g id="menu">
<path id="vector" d="M2.74994 4.50001C2.65056 4.49861 2.55188 4.51697 2.45966 4.55403C2.36743 4.59109 2.28349 4.64611 2.21271 4.71589C2.14194 4.78568 2.08573 4.86883 2.04737 4.96052C2.00901 5.05222 1.98926 5.15062 1.98926 5.25001C1.98926 5.34941 2.00901 5.44781 2.04737 5.5395C2.08573 5.6312 2.14194 5.71435 2.21271 5.78413C2.28349 5.85392 2.36743 5.90894 2.45966 5.946C2.55188 5.98306 2.65056 6.00142 2.74994 6.00001H21.2499C21.3493 6.00142 21.448 5.98306 21.5402 5.946C21.6324 5.90894 21.7164 5.85392 21.7872 5.78413C21.8579 5.71435 21.9141 5.6312 21.9525 5.5395C21.9909 5.44781 22.0106 5.34941 22.0106 5.25001C22.0106 5.15062 21.9909 5.05222 21.9525 4.96052C21.9141 4.86883 21.8579 4.78568 21.7872 4.71589C21.7164 4.64611 21.6324 4.59109 21.5402 4.55403C21.448 4.51697 21.3493 4.49861 21.2499 4.50001H2.74994ZM2.74994 11.25C2.65056 11.2486 2.55188 11.267 2.45966 11.304C2.36743 11.3411 2.28349 11.3961 2.21271 11.4659C2.14194 11.5357 2.08573 11.6188 2.04737 11.7105C2.00901 11.8022 1.98926 11.9006 1.98926 12C1.98926 12.0994 2.00901 12.1978 2.04737 12.2895C2.08573 12.3812 2.14194 12.4644 2.21271 12.5341C2.28349 12.6039 2.36743 12.6589 2.45966 12.696C2.55188 12.7331 2.65056 12.7514 2.74994 12.75H21.2499C21.3493 12.7514 21.448 12.7331 21.5402 12.696C21.6324 12.6589 21.7164 12.6039 21.7872 12.5341C21.8579 12.4644 21.9141 12.3812 21.9525 12.2895C21.9909 12.1978 22.0106 12.0994 22.0106 12C22.0106 11.9006 21.9909 11.8022 21.9525 11.7105C21.9141 11.6188 21.8579 11.5357 21.7872 11.4659C21.7164 11.3961 21.6324 11.3411 21.5402 11.304C21.448 11.267 21.3493 11.2486 21.2499 11.25H2.74994ZM2.74994 18C2.65056 17.9986 2.55188 18.017 2.45966 18.054C2.36743 18.0911 2.28349 18.1461 2.21271 18.2159C2.14194 18.2857 2.08573 18.3688 2.04737 18.4605C2.00901 18.5522 1.98926 18.6506 1.98926 18.75C1.98926 18.8494 2.00901 18.9478 2.04737 19.0395C2.08573 19.1312 2.14194 19.2144 2.21271 19.2841C2.28349 19.3539 2.36743 19.4089 2.45966 19.446C2.55188 19.4831 2.65056 19.5014 2.74994 19.5H21.2499C21.3493 19.5014 21.448 19.4831 21.5402 19.446C21.6324 19.4089 21.7164 19.3539 21.7872 19.2841C21.8579 19.2144 21.9141 19.1312 21.9525 19.0395C21.9909 18.9478 22.0106 18.8494 22.0106 18.75C22.0106 18.6506 21.9909 18.5522 21.9525 18.4605C21.9141 18.3688 21.8579 18.2857 21.7872 18.2159C21.7164 18.1461 21.6324 18.0911 21.5402 18.054C21.448 18.017 21.3493 17.9986 21.2499 18H2.74994Z" fill="#A3A3A3"/>
</g>
</svg>
