<svg width="16" height="16" viewBox="0 0 16 16" fill="none" xmlns="http://www.w3.org/2000/svg">
<g id="move_handle">
<g id="vector">
<path d="M2.40005 10.3333C2.40005 9.67059 2.93731 9.13333 3.60005 9.13333C4.2628 9.13333 4.80005 9.67059 4.80005 10.3333C4.80005 10.9961 4.2628 11.5333 3.60005 11.5333C2.93731 11.5333 2.40005 10.9961 2.40005 10.3333Z" fill="#2563EB"/>
<path d="M6.80005 10.3333C6.80005 9.67059 7.33731 9.13333 8.00005 9.13333C8.6628 9.13333 9.20005 9.67059 9.20005 10.3333C9.20005 10.9961 8.6628 11.5333 8.00005 11.5333C7.33731 11.5333 6.80005 10.9961 6.80005 10.3333Z" fill="#2563EB"/>
<path d="M12.4001 9.13333C11.7373 9.13333 11.2001 9.67059 11.2001 10.3333C11.2001 10.9961 11.7373 11.5333 12.4001 11.5333C13.0628 11.5333 13.6001 10.9961 13.6001 10.3333C13.6001 9.67059 13.0628 9.13333 12.4001 9.13333Z" fill="#2563EB"/>
</g>
<g id="vector_2">
<path d="M2.40005 5.66666C2.40005 5.00392 2.93731 4.46666 3.60005 4.46666C4.2628 4.46666 4.80005 5.00392 4.80005 5.66666C4.80005 6.3294 4.2628 6.86666 3.60005 6.86666C2.93731 6.86666 2.40005 6.3294 2.40005 5.66666Z" fill="#2563EB"/>
<path d="M6.80005 5.66666C6.80005 5.00392 7.33731 4.46666 8.00005 4.46666C8.6628 4.46666 9.20005 5.00392 9.20005 5.66666C9.20005 6.3294 8.6628 6.86666 8.00005 6.86666C7.33731 6.86666 6.80005 6.3294 6.80005 5.66666Z" fill="#2563EB"/>
<path d="M12.4001 4.46666C11.7373 4.46666 11.2001 5.00392 11.2001 5.66666C11.2001 6.3294 11.7373 6.86666 12.4001 6.86666C13.0628 6.86666 13.6001 6.3294 13.6001 5.66666C13.6001 5.00392 13.0628 4.46666 12.4001 4.46666Z" fill="#2563EB"/>
</g>
</g>
</svg>
