<svg width="14" height="14" viewBox="0 0 14 14" >
<path d="M2.10007 9.04167C2.10007 8.46177 2.57017 7.99167 3.15007 7.99167C3.72997 7.99167 4.20007 8.46177 4.20007 9.04167C4.20007 9.62157 3.72997 10.0917 3.15007 10.0917C2.57017 10.0917 2.10007 9.62157 2.10007 9.04167Z" fill="currentColor"/>
<path d="M5.95007 9.04167C5.95007 8.46177 6.42017 7.99167 7.00007 7.99167C7.57997 7.99167 8.05007 8.46177 8.05007 9.04167C8.05007 9.62157 7.57997 10.0917 7.00007 10.0917C6.42017 10.0917 5.95007 9.62157 5.95007 9.04167Z" fill="currentColor"/>
<path d="M10.8501 7.99167C10.2702 7.99167 9.80007 8.46177 9.80007 9.04167C9.80007 9.62157 10.2702 10.0917 10.8501 10.0917C11.43 10.0917 11.9001 9.62157 11.9001 9.04167C11.9001 8.46177 11.43 7.99167 10.8501 7.99167Z" fill="currentColor"/>
<path d="M2.10007 4.95833C2.10007 4.37843 2.57017 3.90833 3.15007 3.90833C3.72997 3.90833 4.20007 4.37843 4.20007 4.95833C4.20007 5.53823 3.72997 6.00833 3.15007 6.00833C2.57017 6.00833 2.10007 5.53823 2.10007 4.95833Z" fill="currentColor"/>
<path d="M5.95007 4.95833C5.95007 4.37843 6.42017 3.90833 7.00007 3.90833C7.57997 3.90833 8.05007 4.37843 8.05007 4.95833C8.05007 5.53823 7.57997 6.00833 7.00007 6.00833C6.42017 6.00833 5.95007 5.53823 5.95007 4.95833Z" fill="currentColor"/>
<path d="M10.8501 3.90833C10.2702 3.90833 9.80007 4.37843 9.80007 4.95833C9.80007 5.53823 10.2702 6.00833 10.8501 6.00833C11.43 6.00833 11.9001 5.53823 11.9001 4.95833C11.9001 4.37843 11.43 3.90833 10.8501 3.90833Z" fill="currentColor"/>
</svg>
