<svg width="25" height="24" viewBox="0 0 25 24" fill="none" xmlns="http://www.w3.org/2000/svg">
<g id="desktop">
<path id="vector" d="M2.90002 7.2C2.90002 5.87452 3.97454 4.8 5.30002 4.8H19.7C21.0255 4.8 22.1 5.87452 22.1 7.2V15.6C22.1 16.9255 21.0255 18 19.7 18H5.30002C3.97454 18 2.90002 16.9255 2.90002 15.6V7.2ZM5.30002 6C4.63728 6 4.10002 6.53726 4.10002 7.2V15.6C4.10002 16.2627 4.63728 16.8 5.30002 16.8H19.7C20.3628 16.8 20.9 16.2627 20.9 15.6V7.2C20.9 6.53726 20.3628 6 19.7 6H5.30002ZM6.50002 19.8C6.50002 19.4686 6.76865 19.2 7.10002 19.2H17.9C18.2314 19.2 18.5 19.4686 18.5 19.8C18.5 20.1314 18.2314 20.4 17.9 20.4H7.10002C6.76865 20.4 6.50002 20.1314 6.50002 19.8Z" fill="#2563EB"/>
</g>
</svg>
