<svg width="24" height="24" viewBox="0 0 24 24" fill="none" xmlns="http://www.w3.org/2000/svg">
<path fill-rule="evenodd" clip-rule="evenodd" d="M2.3999 5.1C2.3999 3.60883 3.60873 2.4 5.0999 2.4H18.8999C20.3911 2.4 21.5999 3.60883 21.5999 5.1V15.3C21.5999 16.7912 20.3911 18 18.8999 18H15.1737C15.41 18.7942 15.875 19.4901 16.4938 20.0121C16.7826 20.2558 16.8885 20.654 16.7588 21.0089C16.629 21.3639 16.2914 21.6 15.9135 21.6H8.08647C7.70854 21.6 7.37087 21.3639 7.24115 21.0089C7.11143 20.654 7.21729 20.2558 7.50616 20.0121C8.12493 19.4901 8.58996 18.7942 8.8262 18H5.0999C3.60873 18 2.3999 16.7912 2.3999 15.3V5.1ZM4.1999 5.1C4.1999 4.60294 4.60285 4.2 5.0999 4.2H18.8999C19.397 4.2 19.7999 4.60294 19.7999 5.1V14.1C19.7999 14.5971 19.397 15 18.8999 15H5.0999C4.60285 15 4.1999 14.5971 4.1999 14.1V5.1Z" fill="#475569"/>
</svg>
