<svg width="25" height="24" viewBox="0 0 25 24" fill="none" xmlns="http://www.w3.org/2000/svg">
<path id="vector" d="M11.3 16.8C10.9686 16.8 10.7 17.0686 10.7 17.4C10.7 17.7314 10.9686 18 11.3 18H13.7C14.0314 18 14.3 17.7314 14.3 17.4C14.3 17.0686 14.0314 16.8 13.7 16.8H11.3ZM8.9 2.4C7.57452 2.4 6.5 3.47452 6.5 4.8V19.2C6.5 20.5255 7.57452 21.6 8.9 21.6H16.1C17.4255 21.6 18.5 20.5255 18.5 19.2V4.8C18.5 3.47452 17.4255 2.4 16.1 2.4H8.9ZM7.7 4.8C7.7 4.13726 8.23726 3.6 8.9 3.6H16.1C16.7627 3.6 17.3 4.13726 17.3 4.8V19.2C17.3 19.8627 16.7627 20.4 16.1 20.4H8.9C8.23726 20.4 7.7 19.8627 7.7 19.2V4.8Z" fill="currentcolor"/>
</svg>
