<svg width="24" height="24" viewBox="0 0 24 24" fill="none" xmlns="http://www.w3.org/2000/svg">
<path d="M9.60005 19.5C9.60005 19.0029 10.003 18.6 10.5 18.6H13.5C13.9971 18.6 14.4 19.0029 14.4 19.5C14.4 19.9971 13.9971 20.4 13.5 20.4H10.5C10.003 20.4 9.60005 19.9971 9.60005 19.5Z" fill="#94A3B8"/>
<path fill-rule="evenodd" clip-rule="evenodd" d="M4.80005 4.8C4.80005 2.81178 6.41182 1.2 8.40005 1.2H15.6C17.5883 1.2 19.2 2.81178 19.2 4.8V19.2C19.2 21.1882 17.5883 22.8 15.6 22.8H8.40005C6.41182 22.8 4.80005 21.1882 4.80005 19.2V4.8ZM9.60005 3V3.9C9.60005 4.39706 10.003 4.8 10.5 4.8H13.5C13.9971 4.8 14.4 4.39706 14.4 3.9V3H15.6C16.5942 3 17.4 3.80589 17.4 4.8V19.2C17.4 20.1941 16.5942 21 15.6 21H8.40005C7.40594 21 6.60005 20.1941 6.60005 19.2V4.8C6.60005 3.80589 7.40594 3 8.40005 3H9.60005Z" fill="#94A3B8"/>
</svg>
