<svg width="28" height="28" viewBox="0 0 28 28"  xmlns="http://www.w3.org/2000/svg">
<path id="vector" d="M14 2.33333C7.56704 2.33333 2.33337 7.56699 2.33337 14C2.33337 20.433 7.56704 25.6667 14 25.6667C20.433 25.6667 25.6667 20.433 25.6667 14C25.6667 7.56699 20.433 2.33333 14 2.33333ZM18.9584 14.875H14.875V18.9583C14.875 19.4419 14.4836 19.8333 14 19.8333C13.5165 19.8333 13.125 19.4419 13.125 18.9583V14.875H9.04171C8.55812 14.875 8.16671 14.4836 8.16671 14C8.16671 13.5164 8.55812 13.125 9.04171 13.125H13.125V9.04166C13.125 8.55808 13.5165 8.16666 14 8.16666C14.4836 8.16666 14.875 8.55808 14.875 9.04166V13.125H18.9584C19.442 13.125 19.8334 13.5164 19.8334 14C19.8334 14.4836 19.442 14.875 18.9584 14.875Z" fill="currentcolor"/>
</svg>
