<svg width="28" height="28" viewBox="0 0 28 28" fill="none" xmlns="http://www.w3.org/2000/svg">
<path d="M14.0002 2.33334C7.5672 2.33334 2.3335 7.56705 2.3335 14C2.3335 20.433 7.5672 25.6667 14.0002 25.6667C20.4331 25.6667 25.6668 20.433 25.6668 14C25.6668 7.56705 20.4331 2.33334 14.0002 2.33334ZM14.0002 4.08334C19.4874 4.08334 23.9168 8.51281 23.9168 14C23.9168 19.4872 19.4874 23.9167 14.0002 23.9167C8.51297 23.9167 4.0835 19.4872 4.0835 14C4.0835 8.51281 8.51297 4.08334 14.0002 4.08334ZM13.9865 8.15414C13.7546 8.15776 13.5337 8.25326 13.3722 8.41968C13.2107 8.58609 13.1218 8.8098 13.1252 9.04167V13.125H9.04183C8.92588 13.1234 8.81076 13.1448 8.70317 13.188C8.59557 13.2313 8.49764 13.2954 8.41506 13.3769C8.33249 13.4583 8.26692 13.5553 8.22217 13.6623C8.17741 13.7692 8.15437 13.884 8.15437 14C8.15437 14.116 8.17741 14.2308 8.22217 14.3377C8.26692 14.4447 8.33249 14.5417 8.41506 14.6231C8.49764 14.7046 8.59557 14.7687 8.70317 14.812C8.81076 14.8552 8.92588 14.8766 9.04183 14.875H13.1252V18.9583C13.1235 19.0743 13.1449 19.1894 13.1882 19.297C13.2314 19.4046 13.2956 19.5025 13.377 19.5851C13.4584 19.6677 13.5554 19.7332 13.6624 19.778C13.7694 19.8228 13.8842 19.8458 14.0002 19.8458C14.1161 19.8458 14.2309 19.8228 14.3379 19.778C14.4449 19.7332 14.5419 19.6677 14.6233 19.5851C14.7047 19.5025 14.7689 19.4046 14.8121 19.297C14.8554 19.1894 14.8768 19.0743 14.8752 18.9583V14.875H18.9585C19.0744 14.8766 19.1896 14.8552 19.2972 14.812C19.4048 14.7687 19.5027 14.7046 19.5853 14.6231C19.6678 14.5417 19.7334 14.4447 19.7782 14.3377C19.8229 14.2308 19.846 14.116 19.846 14C19.846 13.884 19.8229 13.7692 19.7782 13.6623C19.7334 13.5553 19.6678 13.4583 19.5853 13.3769C19.5027 13.2954 19.4048 13.2313 19.2972 13.188C19.1896 13.1448 19.0744 13.1234 18.9585 13.125H14.8752V9.04167C14.8768 8.92456 14.855 8.8083 14.8109 8.69978C14.7668 8.59127 14.7014 8.49271 14.6185 8.40994C14.5357 8.32717 14.437 8.26188 14.3285 8.21794C14.2199 8.174 14.1036 8.15231 13.9865 8.15414Z" fill="currentColor"/>
</svg>
