<svg width="16" height="16" viewBox="0 0 16 16" fill="none" xmlns="http://www.w3.org/2000/svg">
<g id="plus">
<path id="vector" d="M8.59995 3.80001C8.59995 3.46864 8.33132 3.20001 7.99995 3.20001C7.66858 3.20001 7.39995 3.46864 7.39995 3.80001V7.40001H3.79995C3.46858 7.40001 3.19995 7.66864 3.19995 8.00001C3.19995 8.33138 3.46858 8.60001 3.79995 8.60001L7.39995 8.60001V12.2C7.39995 12.5314 7.66858 12.8 7.99995 12.8C8.33132 12.8 8.59995 12.5314 8.59995 12.2V8.60001L12.2 8.60001C12.5313 8.60001 12.8 8.33138 12.8 8.00001C12.8 7.66864 12.5313 7.40001 12.2 7.40001H8.59995V3.80001Z" fill="#3B82F6"/>
</g>
</svg>
