<svg width="20" height="20" viewBox="0 0 20 20" fill="none" xmlns="http://www.w3.org/2000/svg">
<path d="M6.0319 2.49105C6.00134 2.4918 5.97088 2.49479 5.94075 2.5H4.79167C3.53343 2.5 2.5 3.53343 2.5 4.79167V15.2083C2.5 16.4666 3.53343 17.5 4.79167 17.5H5.52246C5.58956 17.511 5.658 17.511 5.7251 17.5H14.2725C14.3396 17.511 14.408 17.511 14.4751 17.5H15.2083C16.4666 17.5 17.5 16.4666 17.5 15.2083V6.45833C17.5 6.37006 17.4812 6.2828 17.4451 6.20228C17.4089 6.12177 17.356 6.04983 17.29 5.99121L13.54 2.65788C13.4257 2.55623 13.278 2.50005 13.125 2.5H12.8109C12.7438 2.48898 12.6753 2.48898 12.6082 2.5H6.14421C6.10712 2.49364 6.06953 2.49065 6.0319 2.49105ZM4.79167 3.75H5.41667V6.04167C5.41667 6.83957 6.0771 7.5 6.875 7.5H11.875C12.6729 7.5 13.3333 6.83957 13.3333 6.04167V4.14632L16.25 6.7391V15.2083C16.25 15.7909 15.7909 16.25 15.2083 16.25H15V11.4583C15 10.6604 14.3396 10 13.5417 10H6.45833C5.66044 10 5 10.6604 5 11.4583V16.25H4.79167C4.20907 16.25 3.75 15.7909 3.75 15.2083V4.79167C3.75 4.20907 4.20907 3.75 4.79167 3.75ZM6.66667 3.75H12.0833V6.04167C12.0833 6.1646 11.9979 6.25 11.875 6.25H6.875C6.75206 6.25 6.66667 6.1646 6.66667 6.04167V3.75ZM6.45833 11.25H13.5417C13.6646 11.25 13.75 11.3354 13.75 11.4583V16.25H6.25V11.4583C6.25 11.3354 6.3354 11.25 6.45833 11.25Z" fill="#94A3B8"/>
</svg>
