<svg width="20" height="20" viewBox="0 0 20 20" fill="none" xmlns="http://www.w3.org/2000/svg">
<path d="M11.4674 2.5C14.7967 2.5 17.509 5.21235 17.509 8.54167C17.509 11.871 14.7967 14.5833 11.4674 14.5833C10.0272 14.5833 8.70332 14.0746 7.66366 13.2292L3.57593 17.3169C3.51834 17.3769 3.44936 17.4248 3.37303 17.4578C3.2967 17.4907 3.21455 17.5082 3.1314 17.509C3.04825 17.5099 2.96577 17.4941 2.88879 17.4627C2.8118 17.4312 2.74186 17.3848 2.68306 17.326C2.62426 17.2672 2.57779 17.1972 2.54636 17.1202C2.51493 17.0433 2.49917 16.9608 2.50002 16.8776C2.50086 16.7945 2.51829 16.7123 2.55128 16.636C2.58427 16.5597 2.63216 16.4907 2.69214 16.4331L6.77987 12.3454C5.93443 11.3057 5.4257 9.98182 5.4257 8.54167C5.4257 5.21235 8.13805 2.5 11.4674 2.5ZM11.4674 3.75C8.8136 3.75 6.6757 5.8879 6.6757 8.54167C6.6757 9.83442 7.18562 11.0024 8.01278 11.8628C8.06376 11.9003 8.10876 11.9453 8.14624 11.9963C9.00665 12.8234 10.1746 13.3333 11.4674 13.3333C14.1211 13.3333 16.259 11.1954 16.259 8.54167C16.259 5.8879 14.1211 3.75 11.4674 3.75Z" fill="currentcolor"/>
</svg>
