<svg width="28" height="28" viewBox="0 0 28 28" fill="none" xmlns="http://www.w3.org/2000/svg">
<path d="M13.9998 2.33334C13.0799 2.33334 12.193 2.44968 11.3463 2.64666C11.1697 2.68787 11.0103 2.7829 10.8901 2.91863C10.7699 3.05435 10.6948 3.22406 10.6752 3.40431L10.4895 5.09734C10.4288 5.65214 10.1083 6.14301 9.62478 6.42237C9.14221 6.70118 8.55648 6.73207 8.04568 6.50782H8.04454L6.48936 5.82309C6.32348 5.75009 6.13903 5.7304 5.96148 5.76672C5.78393 5.80305 5.62203 5.89361 5.49815 6.02589C4.2892 7.31477 3.36134 8.87546 2.83442 10.6174C2.78193 10.7907 2.78454 10.9761 2.84188 11.1479C2.89922 11.3198 3.00848 11.4696 3.15457 11.5767L4.53429 12.5884C4.98483 12.9196 5.24978 13.4416 5.24978 14C5.24978 14.5587 4.98483 15.0811 4.53429 15.4116L3.15457 16.4222C3.00848 16.5293 2.89922 16.6791 2.84188 16.8509C2.78454 17.0228 2.78193 17.2081 2.83442 17.3815C3.36129 19.1232 4.2884 20.6851 5.49815 21.9741C5.62217 22.1062 5.78412 22.1966 5.96167 22.2327C6.13922 22.2688 6.3236 22.2489 6.48936 22.1758L8.04454 21.4911C8.55559 21.2663 9.14188 21.2986 9.62478 21.5776C10.1083 21.857 10.4288 22.3479 10.4895 22.9027L10.6752 24.5957C10.695 24.7756 10.77 24.945 10.89 25.0804C11.0099 25.2159 11.169 25.3109 11.3452 25.3522C12.1922 25.5499 13.0799 25.6667 13.9998 25.6667C14.9196 25.6667 15.8066 25.5503 16.6533 25.3534C16.8298 25.3122 16.9892 25.2171 17.1094 25.0814C17.2297 24.9457 17.3047 24.776 17.3243 24.5957L17.51 22.9027C17.5708 22.3479 17.8912 21.857 18.3748 21.5776C18.8574 21.2988 19.4431 21.2668 19.9539 21.4911L21.5102 22.1758C21.676 22.2489 21.8603 22.2688 22.0379 22.2327C22.2154 22.1966 22.3774 22.1062 22.5014 21.9741C23.7104 20.6852 24.6382 19.1234 25.1651 17.3815C25.2176 17.2081 25.215 17.0228 25.1577 16.8509C25.1003 16.6791 24.9911 16.5293 24.845 16.4222L23.4653 15.4116C23.0147 15.0811 22.7498 14.5587 22.7498 14C22.7498 13.4413 23.0147 12.9189 23.4653 12.5884L24.845 11.5778C24.9911 11.4707 25.1003 11.3209 25.1577 11.1491C25.215 10.9773 25.2176 10.7919 25.1651 10.6185C24.6382 8.8766 23.7104 7.31477 22.5014 6.02589C22.3774 5.8938 22.2154 5.80346 22.0379 5.76734C21.8603 5.73121 21.676 5.75109 21.5102 5.82423L19.9539 6.50896C19.4431 6.73321 18.8574 6.70118 18.3748 6.42237C17.8912 6.14301 17.5708 5.65214 17.51 5.09734L17.3243 3.40431C17.3046 3.22442 17.2296 3.05507 17.1096 2.91958C16.9896 2.7841 16.8306 2.68915 16.6544 2.6478C15.8073 2.4501 14.9196 2.33334 13.9998 2.33334ZM13.9998 4.08334C14.5681 4.08334 15.1139 4.18536 15.6609 4.28159L15.7703 5.28761C15.8916 6.39531 16.5355 7.38054 17.4998 7.93767C18.4647 8.49517 19.6395 8.55927 20.6591 8.11085L21.5843 7.70411C22.2947 8.55716 22.8571 9.5207 23.2499 10.5763L22.4296 11.1779C21.5315 11.8367 20.9998 12.8857 20.9998 14C20.9998 15.1143 21.5315 16.1633 22.4296 16.8221L23.2499 17.4237C22.8571 18.4793 22.2947 19.4429 21.5843 20.2959L20.6591 19.8892C19.6395 19.4408 18.4647 19.5048 17.4998 20.0623C16.5355 20.6195 15.8916 21.6047 15.7703 22.7124L15.6609 23.7184C15.1139 23.8144 14.5678 23.9167 13.9998 23.9167C13.4314 23.9167 12.8857 23.8147 12.3386 23.7184L12.2293 22.7124C12.108 21.6047 11.4641 20.6195 10.4998 20.0623C9.53485 19.5048 8.36006 19.4408 7.34044 19.8892L6.41531 20.2959C5.70477 19.443 5.14241 18.4794 4.74962 17.4237L5.56993 16.8221C6.46805 16.1633 6.99978 15.1143 6.99978 14C6.99978 12.8857 6.46762 11.8361 5.56993 11.1768L4.74962 10.5752C5.14264 9.51915 5.70563 8.55625 6.41645 7.70297L7.34044 8.10971C8.36006 8.55813 9.53485 8.49517 10.4998 7.93767C11.4641 7.38054 12.108 6.39531 12.2293 5.28761L12.3386 4.28159C12.8856 4.18563 13.4317 4.08334 13.9998 4.08334ZM13.9998 9.33334C11.4328 9.33334 9.33311 11.433 9.33311 14C9.33311 16.567 11.4328 18.6667 13.9998 18.6667C16.5667 18.6667 18.6664 16.567 18.6664 14C18.6664 11.433 16.5667 9.33334 13.9998 9.33334ZM13.9998 11.0833C15.621 11.0833 16.9164 12.3788 16.9164 14C16.9164 15.6212 15.621 16.9167 13.9998 16.9167C12.3786 16.9167 11.0831 15.6212 11.0831 14C11.0831 12.3788 12.3786 11.0833 13.9998 11.0833Z" fill="currentcolor"/>
</svg>
