<svg width="28" height="28" viewBox="0 0 28 28" xmlns="http://www.w3.org/2000/svg">
<path id="vector" d="M22.831 15.3312C22.4151 15.0261 22.1666 14.5361 22.1666 14.0198C22.1666 13.5036 22.4151 13.0136 22.8305 12.7091L24.752 11.3003C25.0582 11.0752 25.1848 10.6791 25.0652 10.318C24.5705 8.83168 23.7883 7.47601 22.7395 6.28776C22.4869 6.0031 22.0797 5.91326 21.7315 6.0661L19.5679 7.01751C19.0965 7.22518 18.5476 7.19543 18.1002 6.93701C17.6534 6.67918 17.3535 6.21951 17.297 5.70676L17.0368 3.33143C16.9954 2.95343 16.7142 2.64543 16.342 2.56901C14.8271 2.25926 13.2352 2.25401 11.6935 2.56318C11.319 2.63843 11.0372 2.94643 10.9958 3.32618L10.738 5.68635C10.6814 6.19968 10.3815 6.65935 9.93354 6.91718C9.48671 7.17501 8.93954 7.20593 8.46646 6.99768L6.29121 6.04101C5.94588 5.88818 5.53754 5.97685 5.28496 6.26093C4.23263 7.44451 3.44688 8.79843 2.94696 10.2836C2.82563 10.6441 2.95162 11.0425 3.25904 11.2683L5.16829 12.6683C5.58479 12.9739 5.83329 13.4639 5.83329 13.9802C5.83329 14.4964 5.58479 14.9864 5.16946 15.2909L3.24796 16.6997C2.94171 16.9248 2.81513 17.3209 2.93471 17.682C3.42938 19.1683 4.21163 20.524 5.26046 21.7123C5.51304 21.9975 5.92138 22.0879 6.26846 21.9339L8.43204 20.9825C8.90338 20.7748 9.45171 20.8046 9.89971 21.063C10.3465 21.3208 10.6464 21.7805 10.703 22.2933L10.9631 24.6686C11.0045 25.0466 11.2857 25.3546 11.6579 25.431C12.4244 25.5873 13.2119 25.6667 14 25.6667C14.7688 25.6667 15.5446 25.5891 16.3059 25.4363C16.6804 25.361 16.9621 25.053 17.0035 24.6733L17.262 22.3131C17.3185 21.7998 17.6184 21.3401 18.0664 21.0823C18.5132 20.825 19.061 20.7947 19.5335 21.0018L21.7087 21.9584C22.0552 22.1118 22.4624 22.0232 22.715 21.7385C23.7673 20.5549 24.553 19.201 25.053 17.7158C25.1743 17.3553 25.0483 16.9569 24.7409 16.7312L22.831 15.3312ZM14 18.0833C11.7448 18.0833 9.91663 16.2552 9.91663 14C9.91663 11.7448 11.7448 9.91668 14 9.91668C16.2551 9.91668 18.0833 11.7448 18.0833 14C18.0833 16.2552 16.2551 18.0833 14 18.0833Z" fill="currentcolor"/>
</svg>
