<svg width="16" height="16" viewBox="0 0 16 16" fill="none" xmlns="http://www.w3.org/2000/svg">
<g id="square-2-stack">
<g id="vector">
<path d="M1.60001 3.40001C1.60001 2.40589 2.40589 1.60001 3.40001 1.60001H8.60001C9.59412 1.60001 10.4 2.40589 10.4 3.40001V4.40001H7.40001C5.74315 4.40001 4.40001 5.74315 4.40001 7.40001V10.4H3.40001C2.40589 10.4 1.60001 9.59412 1.60001 8.60001V3.40001Z" fill="#2563EB"/>
<path d="M7.40001 5.60001C6.40589 5.60001 5.60001 6.40589 5.60001 7.40001V12.6C5.60001 13.5941 6.40589 14.4 7.40001 14.4H12.6C13.5941 14.4 14.4 13.5941 14.4 12.6V7.40001C14.4 6.40589 13.5941 5.60001 12.6 5.60001H7.40001Z" fill="#2563EB"/>
</g>
</g>
</svg>
