<svg width="25" height="24" viewBox="0 0 25 24" fill="none" xmlns="http://www.w3.org/2000/svg">
<g id="tablet">
<path id="vector" d="M10.7 14.4C10.3687 14.4 10.1 14.6686 10.1 15C10.1 15.3314 10.3687 15.6 10.7 15.6H14.3C14.6314 15.6 14.9 15.3314 14.9 15C14.9 14.6686 14.6314 14.4 14.3 14.4H10.7ZM5.30002 4.8C3.97454 4.8 2.90002 5.87452 2.90002 7.2V16.8C2.90002 18.1255 3.97454 19.2 5.30002 19.2H19.7C21.0255 19.2 22.1 18.1255 22.1 16.8V7.2C22.1 5.87452 21.0255 4.8 19.7 4.8H5.30002ZM4.10002 7.2C4.10002 6.53726 4.63728 6 5.30002 6H19.7C20.3628 6 20.9 6.53726 20.9 7.2V16.8C20.9 17.4627 20.3628 18 19.7 18H5.30002C4.63728 18 4.10002 17.4627 4.10002 16.8V7.2Z" fill="currentcolor"/>
</g>
</svg>
