<svg width="24" height="24" viewBox="0 0 24 24" fill="none" xmlns="http://www.w3.org/2000/svg">
<path fill-rule="evenodd" clip-rule="evenodd" d="M5.9999 1.2C4.01168 1.2 2.3999 2.81178 2.3999 4.8V19.2C2.3999 21.1882 4.01168 22.8 5.9999 22.8H17.9999C19.9881 22.8 21.5999 21.1882 21.5999 19.2V4.8C21.5999 2.81178 19.9881 1.2 17.9999 1.2H5.9999ZM4.1999 4.8C4.1999 3.80589 5.00579 3 5.9999 3H17.9999C18.994 3 19.7999 3.80589 19.7999 4.8V19.2C19.7999 20.1941 18.994 21 17.9999 21H5.9999C5.00579 21 4.1999 20.1941 4.1999 19.2V4.8ZM10.4999 18.6C10.0028 18.6 9.5999 19.0029 9.5999 19.5C9.5999 19.9971 10.0028 20.4 10.4999 20.4H13.4999C13.997 20.4 14.3999 19.9971 14.3999 19.5C14.3999 19.0029 13.997 18.6 13.4999 18.6H10.4999Z" fill="#94A3B8"/>
</svg>
