<svg width="16" height="16" viewBox="0 0 16 16" fill="none" xmlns="http://www.w3.org/2000/svg">
  <path fill-rule="evenodd" clip-rule="evenodd" d="M7.00002 0.800003C5.785 0.800003 4.80002 1.78498 4.80002 3V3.35416C4.1638 3.41578 3.53284 3.49558 2.90769 3.59304C2.58027 3.64408 2.35623 3.95088 2.40727 4.2783C2.45832 4.60572 2.76512 4.82976 3.09253 4.77872L3.21086 4.7605L3.88406 13.1754C3.97553 14.3188 4.93006 15.2 6.07705 15.2H9.92283C11.0698 15.2 12.0244 14.3188 12.1158 13.1754L12.789 4.76045L12.9077 4.77872C13.2351 4.82976 13.5419 4.60572 13.5929 4.2783C13.644 3.95088 13.42 3.64408 13.0925 3.59304C12.4673 3.49557 11.8363 3.41576 11.2 3.35414V3C11.2 1.78498 10.2151 0.800003 9.00002 0.800003H7.00002ZM8.00011 3.2C8.6716 3.2 9.33843 3.22019 10 3.25999V3C10 2.44772 9.55231 2 9.00002 2H7.00002C6.44774 2 6.00002 2.44772 6.00002 3V3.26C6.66168 3.22019 7.32857 3.2 8.00011 3.2ZM7.01349 6.17003C6.99693 5.75614 6.64799 5.43405 6.23411 5.4506C5.82023 5.46716 5.49813 5.8161 5.51469 6.22998L5.7547 12.23C5.77125 12.6439 6.12019 12.966 6.53407 12.9494C6.94796 12.9328 7.27005 12.5839 7.2535 12.17L7.01349 6.17003ZM10.4855 6.22998C10.5021 5.8161 10.18 5.46716 9.76607 5.4506C9.35219 5.43405 9.00325 5.75614 8.9867 6.17003L8.7467 12.17C8.73014 12.5839 9.05224 12.9328 9.46612 12.9494C9.88 12.966 10.2289 12.6439 10.2455 12.23L10.4855 6.22998Z" fill="currentColor"/>
</svg>