<svg width="16" height="16" viewBox="0 0 16 16" fill="none" xmlns="http://www.w3.org/2000/svg">
<g id="trash">
<path id="vector" fill-rule="evenodd" clip-rule="evenodd" d="M4.79999 3C4.79999 1.78498 5.78497 0.800003 6.99999 0.800003H8.99999C10.215 0.800003 11.2 1.78498 11.2 3V3.35414C11.8363 3.41576 12.4673 3.49557 13.0925 3.59304C13.4199 3.64408 13.644 3.95088 13.5929 4.2783C13.5419 4.60572 13.2351 4.82976 12.9077 4.77872L12.789 4.76045L12.1158 13.1754C12.0243 14.3188 11.0698 15.2 9.9228 15.2H6.07702C4.93003 15.2 3.9755 14.3188 3.88403 13.1754L3.21083 4.7605L3.0925 4.77872C2.76509 4.82976 2.45829 4.60572 2.40724 4.2783C2.3562 3.95088 2.58024 3.64408 2.90766 3.59304C3.53281 3.49558 4.16377 3.41578 4.79999 3.35416V3ZM9.99999 3.25999C9.3384 3.22019 8.67156 3.2 8.00008 3.2C7.32854 3.2 6.66165 3.22019 5.99999 3.26V3C5.99999 2.44772 6.44771 2 6.99999 2H8.99999C9.55228 2 9.99999 2.44772 9.99999 3V3.25999ZM9.51385 12.6996C9.78978 12.7103 10.0222 12.4953 10.0329 12.2194L10.2661 6.2194C10.2768 5.94347 10.0618 5.71109 9.78589 5.70036C9.50996 5.68964 9.27757 5.90463 9.26685 6.18057L9.03364 12.1806C9.02292 12.4565 9.23791 12.6889 9.51385 12.6996ZM6.69956 6.18056C6.68883 5.90463 6.45645 5.68964 6.18052 5.70036C5.90458 5.71109 5.68959 5.94347 5.70031 6.2194L5.93351 12.2194C5.94424 12.4953 6.17662 12.7103 6.45256 12.6996C6.72849 12.6889 6.94348 12.4565 6.93276 12.1806L6.69956 6.18056Z" fill="#2563EB"/>
</g>
</svg>
