<svg xmlns="http://www.w3.org/2000/svg" width="28" height="28" viewBox="0 0 28 28" fill="currentColor">
  <path fill-rule="evenodd" clip-rule="evenodd" d="M4.19995 14C4.19995 13.4201 4.67005 12.95 5.24995 12.95L20.143 12.95L14.3222 7.40687C13.9042 7.00494 13.8911 6.34024 14.2931 5.92223C14.695 5.50422 15.3597 5.49119 15.7777 5.89312L23.4777 13.2431C23.6836 13.4411 23.8 13.7144 23.8 14C23.8 14.2856 23.6836 14.5589 23.4777 14.7569L15.7777 22.1069C15.3597 22.5088 14.695 22.4958 14.2931 22.0778C13.8911 21.6598 13.9042 20.9951 14.3222 20.5931L20.143 15.05L5.24995 15.05C4.67005 15.05 4.19995 14.5799 4.19995 14Z"/>
</svg>