<svg width="12" height="12" viewBox="0 0 12 12" fill="none" xmlns="http://www.w3.org/2000/svg">
<path d="M9.74553 1.74266C9.6134 1.74578 9.48788 1.80108 9.39641 1.89647L5.99992 5.29296L2.60344 1.89647C2.55678 1.84852 2.50098 1.81041 2.43934 1.78441C2.37769 1.75841 2.31145 1.74504 2.24455 1.7451C2.14512 1.74523 2.04799 1.77499 1.96556 1.83058C1.88313 1.88617 1.81915 1.96508 1.78178 2.05722C1.74441 2.14935 1.73536 2.25053 1.75578 2.34784C1.77619 2.44515 1.82515 2.53416 1.89641 2.6035L5.29289 5.99999L1.89641 9.39647C1.84842 9.44254 1.81011 9.49773 1.78371 9.55879C1.75732 9.61986 1.74338 9.68558 1.7427 9.7521C1.74202 9.81862 1.75463 9.8846 1.77977 9.94619C1.80492 10.0078 1.8421 10.0637 1.88914 10.1108C1.93618 10.1578 1.99213 10.195 2.05372 10.2201C2.11531 10.2453 2.18129 10.2579 2.24781 10.2572C2.31433 10.2565 2.38005 10.2426 2.44112 10.2162C2.50218 10.1898 2.55736 10.1515 2.60344 10.1035L5.99992 6.70702L9.39641 10.1035C9.44248 10.1515 9.49766 10.1898 9.55873 10.2162C9.61979 10.2426 9.68551 10.2565 9.75203 10.2572C9.81855 10.2579 9.88454 10.2453 9.94613 10.2201C10.0077 10.195 10.0637 10.1578 10.1107 10.1108C10.1577 10.0637 10.1949 10.0078 10.2201 9.94619C10.2452 9.8846 10.2578 9.81862 10.2571 9.7521C10.2565 9.68557 10.2425 9.61986 10.2161 9.55879C10.1897 9.49773 10.1514 9.44254 10.1034 9.39647L6.70695 5.99999L10.1034 2.6035C10.1762 2.53374 10.2262 2.44361 10.2468 2.34494C10.2674 2.24628 10.2578 2.14368 10.2191 2.0506C10.1804 1.95752 10.1145 1.87831 10.0299 1.82336C9.94544 1.76841 9.8463 1.74028 9.74553 1.74266Z" fill="#94A3B8"/>
</svg>
