<svg width="24" height="24" viewBox="0 0 24 24"  xmlns="http://www.w3.org/2000/svg">
  <path d="M20.7502 0.333328H14.3335C13.4055 0.333328 12.5153 0.701995 11.859 1.35824L1.35905 11.8582C-0.0077031 13.225 -0.0077031 15.4411 1.35905 16.8078L7.19238 22.6412C7.87546 23.3248 8.77146 23.6667 9.66688 23.6667C10.5623 23.6667 11.4583 23.3248 12.1414 22.6417L22.6414 12.1417C23.2982 11.4849 23.6669 10.5947 23.6669 9.66608V3.24999C23.6669 1.63941 22.3608 0.333328 20.7502 0.333328ZM17.8335 7.91666C16.867 7.91666 16.0835 7.13324 16.0835 6.16666C16.0835 5.20008 16.867 4.41666 17.8335 4.41666C18.8001 4.41666 19.5835 5.20008 19.5835 6.16666C19.5835 7.13324 18.8001 7.91666 17.8335 7.91666Z" fill="currentColor"/>
</svg>