<svg width="20" height="20" viewBox="0 0 20 20" >
  <path d="M3.12492 2.08334C2.55075 2.08334 2.08325 2.55084 2.08325 3.12501V5.62501C2.08325 6.19918 2.55075 6.66668 3.12492 6.66668H5.62492C6.19909 6.66668 6.66659 6.19918 6.66659 5.62501V3.12501C6.66659 2.55084 6.19909 2.08334 5.62492 2.08334H3.12492ZM8.54159 3.75001C8.45877 3.74884 8.37654 3.76414 8.29968 3.79502C8.22283 3.82591 8.15288 3.87176 8.0939 3.92991C8.03492 3.98806 7.98808 4.05736 7.95611 4.13377C7.92415 4.21018 7.90768 4.29218 7.90768 4.37501C7.90768 4.45784 7.92415 4.53984 7.95611 4.61625C7.98808 4.69266 8.03492 4.76196 8.0939 4.82011C8.15288 4.87826 8.22283 4.92411 8.29968 4.955C8.37654 4.98588 8.45877 5.00118 8.54159 5.00001H17.2916C17.3744 5.00118 17.4566 4.98588 17.5335 4.955C17.6103 4.92411 17.6803 4.87826 17.7393 4.82011C17.7983 4.76196 17.8451 4.69266 17.8771 4.61625C17.909 4.53984 17.9255 4.45784 17.9255 4.37501C17.9255 4.29218 17.909 4.21018 17.8771 4.13377C17.8451 4.05736 17.7983 3.98806 17.7393 3.92991C17.6803 3.87176 17.6103 3.82591 17.5335 3.79502C17.4566 3.76414 17.3744 3.74884 17.2916 3.75001H8.54159ZM3.12492 7.70834C2.55075 7.70834 2.08325 8.17584 2.08325 8.75001V11.25C2.08325 11.8242 2.55075 12.2917 3.12492 12.2917H5.62492C6.19909 12.2917 6.66659 11.8242 6.66659 11.25V8.75001C6.66659 8.17584 6.19909 7.70834 5.62492 7.70834H3.12492ZM8.54159 9.37501C8.45877 9.37384 8.37654 9.38914 8.29968 9.42002C8.22283 9.45091 8.15288 9.49676 8.0939 9.55491C8.03492 9.61306 7.98808 9.68236 7.95611 9.75877C7.92415 9.83518 7.90768 9.91718 7.90768 10C7.90768 10.0828 7.92415 10.1648 7.95611 10.2413C7.98808 10.3177 8.03492 10.387 8.0939 10.4451C8.15288 10.5033 8.22283 10.5491 8.29968 10.58C8.37654 10.6109 8.45877 10.6262 8.54159 10.625H17.2916C17.3744 10.6262 17.4566 10.6109 17.5335 10.58C17.6103 10.5491 17.6803 10.5033 17.7393 10.4451C17.7983 10.387 17.8451 10.3177 17.8771 10.2413C17.909 10.1648 17.9255 10.0828 17.9255 10C17.9255 9.91718 17.909 9.83518 17.8771 9.75877C17.8451 9.68236 17.7983 9.61306 17.7393 9.55491C17.6803 9.49676 17.6103 9.45091 17.5335 9.42002C17.4566 9.38914 17.3744 9.37384 17.2916 9.37501H8.54159ZM3.12492 13.3333C2.55675 13.3333 2.08325 13.8068 2.08325 14.375V16.875C2.08325 17.4432 2.55675 17.9167 3.12492 17.9167H5.62492C6.19308 17.9167 6.66659 17.4432 6.66659 16.875V14.375C6.66659 13.8068 6.19308 13.3333 5.62492 13.3333H3.12492ZM3.33325 14.5833H5.41659V16.6667H3.33325V14.5833ZM8.54159 15C8.45877 14.9988 8.37654 15.0141 8.29968 15.045C8.22283 15.0759 8.15288 15.1218 8.0939 15.1799C8.03492 15.2381 7.98808 15.3074 7.95611 15.3838C7.92415 15.4602 7.90768 15.5422 7.90768 15.625C7.90768 15.7078 7.92415 15.7898 7.95611 15.8663C7.98808 15.9427 8.03492 16.012 8.0939 16.0701C8.15288 16.1283 8.22283 16.1741 8.29968 16.205C8.37654 16.2359 8.45877 16.2512 8.54159 16.25H17.2916C17.3744 16.2512 17.4566 16.2359 17.5335 16.205C17.6103 16.1741 17.6803 16.1283 17.7393 16.0701C17.7983 16.012 17.8451 15.9427 17.8771 15.8663C17.909 15.7898 17.9255 15.7078 17.9255 15.625C17.9255 15.5422 17.909 15.4602 17.8771 15.3838C17.8451 15.3074 17.7983 15.2381 17.7393 15.1799C17.6803 15.1218 17.6103 15.0759 17.5335 15.045C17.4566 15.0141 17.3744 14.9988 17.2916 15H8.54159Z" fill="currentColor"/>
</svg>