<svg width="20" height="20" viewBox="0 0 20 20">
  <path d="M3.95841 3.33334C2.70018 3.33334 1.66675 4.36677 1.66675 5.62501V14.375C1.66675 15.6332 2.70018 16.6667 3.95841 16.6667H16.0417C17.3 16.6667 18.3334 15.6332 18.3334 14.375V5.62501C18.3334 4.36677 17.3 3.33334 16.0417 3.33334H3.95841ZM3.95841 4.58334H16.0417C16.6243 4.58334 17.0834 5.04242 17.0834 5.62501V14.375C17.0834 14.9576 16.6243 15.4167 16.0417 15.4167H3.95841C3.37582 15.4167 2.91675 14.9576 2.91675 14.375V5.62501C2.91675 5.04242 3.37582 4.58334 3.95841 4.58334ZM7.50008 7.08334C6.35133 7.08334 5.41675 8.01793 5.41675 9.16668C5.41675 10.3154 6.35133 11.25 7.50008 11.25C7.53695 11.25 7.57273 11.2462 7.60913 11.2443C7.18953 11.6093 6.72675 11.6614 6.63338 11.6675C6.2913 11.6858 6.02715 11.9768 6.04256 12.3202C6.05798 12.6647 6.34856 12.9259 6.69523 12.9159C7.6944 12.8704 9.58342 12.0515 9.58342 9.27654C9.58342 9.26427 9.58004 9.25283 9.57935 9.24073C9.58023 9.2159 9.58342 9.19172 9.58342 9.16668C9.58342 8.01793 8.64883 7.08334 7.50008 7.08334ZM12.5001 7.08334C11.3513 7.08334 10.4167 8.01793 10.4167 9.16668C10.4167 10.3154 11.3513 11.25 12.5001 11.25C12.5369 11.25 12.5727 11.2462 12.6091 11.2443C12.1895 11.6093 11.7268 11.6614 11.6334 11.6675C11.2913 11.6858 11.0271 11.9768 11.0426 12.3202C11.058 12.6647 11.3486 12.9259 11.6952 12.9159C12.6944 12.8704 14.5834 12.0515 14.5834 9.27654C14.5834 9.26427 14.58 9.25283 14.5793 9.24073C14.5802 9.2159 14.5834 9.19172 14.5834 9.16668C14.5834 8.01793 13.6488 7.08334 12.5001 7.08334ZM7.50008 8.33334C7.95966 8.33334 8.33342 8.70709 8.33342 9.16668C8.33342 9.62626 7.95966 10 7.50008 10C7.0405 10 6.66675 9.62626 6.66675 9.16668C6.66675 8.70709 7.0405 8.33334 7.50008 8.33334ZM12.5001 8.33334C12.9597 8.33334 13.3334 8.70709 13.3334 9.16668C13.3334 9.62626 12.9597 10 12.5001 10C12.0405 10 11.6667 9.62626 11.6667 9.16668C11.6667 8.70709 12.0405 8.33334 12.5001 8.33334Z" fill="currentColor"/>
</svg>