<svg width="20" height="20" viewBox="0 0 20 20" >
  <path d="M4.37492 2.08334C3.11117 2.08334 2.08325 3.11168 2.08325 4.37501C2.08325 5.63834 3.11117 6.66668 4.37492 6.66668C5.63867 6.66668 6.66659 5.63834 6.66659 4.37501C6.66659 3.11168 5.63867 2.08334 4.37492 2.08334ZM8.54159 3.75001C8.45877 3.74884 8.37654 3.76414 8.29968 3.79502C8.22283 3.82591 8.15288 3.87176 8.0939 3.92991C8.03492 3.98806 7.98808 4.05736 7.95611 4.13377C7.92415 4.21018 7.90768 4.29218 7.90768 4.37501C7.90768 4.45784 7.92415 4.53984 7.95611 4.61625C7.98808 4.69266 8.03492 4.76196 8.0939 4.82011C8.15288 4.87826 8.22283 4.92411 8.29968 4.955C8.37654 4.98588 8.45877 5.00118 8.54159 5.00001H17.2916C17.3744 5.00118 17.4566 4.98588 17.5335 4.955C17.6103 4.92411 17.6803 4.87826 17.7393 4.82011C17.7983 4.76196 17.8451 4.69266 17.8771 4.61625C17.909 4.53984 17.9255 4.45784 17.9255 4.37501C17.9255 4.29218 17.909 4.21018 17.8771 4.13377C17.8451 4.05736 17.7983 3.98806 17.7393 3.92991C17.6803 3.87176 17.6103 3.82591 17.5335 3.79502C17.4566 3.76414 17.3744 3.74884 17.2916 3.75001H8.54159ZM4.37492 7.70834C3.66311 7.70834 3.05012 7.99777 2.6578 8.43914C2.26547 8.8805 2.08325 9.44445 2.08325 10C2.08325 10.5556 2.26547 11.1195 2.6578 11.5609C3.05012 12.0022 3.66311 12.2917 4.37492 12.2917C5.08672 12.2917 5.69972 12.0022 6.09204 11.5609C6.48436 11.1195 6.66659 10.5556 6.66659 10C6.66659 9.44445 6.48436 8.8805 6.09204 8.43914C5.69972 7.99777 5.08672 7.70834 4.37492 7.70834ZM4.37492 8.95834C4.77422 8.95834 4.99456 9.08558 5.1578 9.26922C5.32103 9.45285 5.41659 9.72223 5.41659 10C5.41659 10.2778 5.32103 10.5472 5.1578 10.7308C4.99456 10.9144 4.77422 11.0417 4.37492 11.0417C3.97561 11.0417 3.75527 10.9144 3.59204 10.7308C3.42881 10.5472 3.33325 10.2778 3.33325 10C3.33325 9.72223 3.42881 9.45285 3.59204 9.26922C3.75527 9.08558 3.97561 8.95834 4.37492 8.95834ZM8.54159 9.37501C8.45877 9.37384 8.37654 9.38914 8.29968 9.42002C8.22283 9.45091 8.15288 9.49676 8.0939 9.55491C8.03492 9.61306 7.98808 9.68236 7.95611 9.75877C7.92415 9.83518 7.90768 9.91718 7.90768 10C7.90768 10.0828 7.92415 10.1648 7.95611 10.2413C7.98808 10.3177 8.03492 10.387 8.0939 10.4451C8.15288 10.5033 8.22283 10.5491 8.29968 10.58C8.37654 10.6109 8.45877 10.6262 8.54159 10.625H17.2916C17.3744 10.6262 17.4566 10.6109 17.5335 10.58C17.6103 10.5491 17.6803 10.5033 17.7393 10.4451C17.7983 10.387 17.8451 10.3177 17.8771 10.2413C17.909 10.1648 17.9255 10.0828 17.9255 10C17.9255 9.91718 17.909 9.83518 17.8771 9.75877C17.8451 9.68236 17.7983 9.61306 17.7393 9.55491C17.6803 9.49676 17.6103 9.45091 17.5335 9.42002C17.4566 9.38914 17.3744 9.37384 17.2916 9.37501H8.54159ZM4.37492 13.3333C3.66311 13.3333 3.05012 13.6228 2.6578 14.0641C2.26547 14.5055 2.08325 15.0695 2.08325 15.625C2.08325 16.1806 2.26547 16.7445 2.6578 17.1859C3.05012 17.6272 3.66311 17.9167 4.37492 17.9167C5.08672 17.9167 5.69972 17.6272 6.09204 17.1859C6.48436 16.7445 6.66659 16.1806 6.66659 15.625C6.66659 15.0695 6.48436 14.5055 6.09204 14.0641C5.69972 13.6228 5.08672 13.3333 4.37492 13.3333ZM4.37492 14.5833C4.77422 14.5833 4.99456 14.7106 5.1578 14.8942C5.32103 15.0779 5.41659 15.3472 5.41659 15.625C5.41659 15.9028 5.32103 16.1722 5.1578 16.3558C4.99456 16.5394 4.77422 16.6667 4.37492 16.6667C3.97561 16.6667 3.75527 16.5394 3.59204 16.3558C3.42881 16.1722 3.33325 15.9028 3.33325 15.625C3.33325 15.3472 3.42881 15.0779 3.59204 14.8942C3.75527 14.7106 3.97561 14.5833 4.37492 14.5833ZM8.54159 15C8.45877 14.9988 8.37654 15.0141 8.29968 15.045C8.22283 15.0759 8.15288 15.1218 8.0939 15.1799C8.03492 15.2381 7.98808 15.3074 7.95611 15.3838C7.92415 15.4602 7.90768 15.5422 7.90768 15.625C7.90768 15.7078 7.92415 15.7898 7.95611 15.8663C7.98808 15.9427 8.03492 16.012 8.0939 16.0701C8.15288 16.1283 8.22283 16.1741 8.29968 16.205C8.37654 16.2359 8.45877 16.2512 8.54159 16.25H17.2916C17.3744 16.2512 17.4566 16.2359 17.5335 16.205C17.6103 16.1741 17.6803 16.1283 17.7393 16.0701C17.7983 16.012 17.8451 15.9427 17.8771 15.8663C17.909 15.7898 17.9255 15.7078 17.9255 15.625C17.9255 15.5422 17.909 15.4602 17.8771 15.3838C17.8451 15.3074 17.7983 15.2381 17.7393 15.1799C17.6803 15.1218 17.6103 15.0759 17.5335 15.045C17.4566 15.0141 17.3744 14.9988 17.2916 15H8.54159Z" fill="currentColor"/>
</svg>