<svg width="20" height="20" viewBox="0 0 20 20">
  <path d="M5.83325 5.00003C3.07923 5.00003 0.833252 7.246 0.833252 10C0.833252 12.7541 3.07923 15 5.83325 15H9.27075C9.33838 15.0112 9.40739 15.0112 9.47502 15H14.1666C14.1908 15.0001 14.215 14.9987 14.239 14.996C16.9595 14.9566 19.1666 12.7296 19.1666 10C19.1666 7.26961 16.9582 5.04133 14.2366 5.00328C14.2133 5.00089 14.19 4.9998 14.1666 5.00003H5.83325ZM5.83325 6.25003H5.92684L2.08813 10.0887C2.08744 10.059 2.08325 10.03 2.08325 10C2.08325 7.92155 3.75478 6.25003 5.83325 6.25003ZM7.6936 6.25003H9.4685L3.1241 12.5944C2.82922 12.2865 2.58677 11.9283 2.4104 11.5332C2.41676 11.5274 2.423 11.5214 2.42912 11.5153L7.67733 6.26712C7.68286 6.26152 7.68829 6.25583 7.6936 6.25003ZM14.1666 6.25003C16.2451 6.25003 17.9166 7.92155 17.9166 10C17.9166 12.0785 16.2451 13.75 14.1666 13.75C12.0881 13.75 10.4166 12.0785 10.4166 10C10.4166 7.92155 12.0881 6.25003 14.1666 6.25003ZM9.83309 7.65302C9.44517 8.36299 9.16658 9.13666 9.16658 10C9.16658 10.0427 9.18993 10.0781 9.191 10.1205L5.35229 13.7158C4.92023 13.6609 4.51303 13.5336 4.14054 13.3456L9.83309 7.65302ZM9.48234 11.5593C9.63034 12.001 9.8545 12.3837 10.113 12.7613L9.12427 13.75H7.14429L9.48234 11.5593ZM10.9179 13.7248C10.9279 13.7335 10.9387 13.7414 10.9488 13.75H10.8927L10.9179 13.7248Z" fill="currentColor"/>
</svg>