<svg width="20" height="20" viewBox="0 0 20 20">
  <path d="M4.3652 2.49106C4.19958 2.49365 4.04176 2.56187 3.92641 2.68073C3.81105 2.7996 3.74759 2.95939 3.74997 3.12501V3.43914C3.73894 3.50624 3.73894 3.57468 3.74997 3.64178V3.95835C3.7484 4.10695 3.79984 4.25126 3.89505 4.36537C3.99026 4.47948 4.12301 4.55594 4.26949 4.58102C4.41598 4.6061 4.56661 4.57817 4.69436 4.50224C4.82211 4.42631 4.91863 4.30734 4.9666 4.16668H9.37497V16.25H8.54163C8.45881 16.2488 8.37659 16.2641 8.29973 16.295C8.22288 16.3259 8.15292 16.3718 8.09394 16.4299C8.03496 16.4881 7.98813 16.5574 7.95616 16.6338C7.92419 16.7102 7.90773 16.7922 7.90773 16.875C7.90773 16.9578 7.92419 17.0398 7.95616 17.1163C7.98813 17.1927 8.03496 17.262 8.09394 17.3201C8.15292 17.3783 8.22288 17.4241 8.29973 17.455C8.37659 17.4859 8.45881 17.5012 8.54163 17.5H9.89743C9.96452 17.511 10.033 17.511 10.1001 17.5H11.4583C11.5411 17.5012 11.6233 17.4859 11.7002 17.455C11.7771 17.4241 11.847 17.3783 11.906 17.3201C11.965 17.262 12.0118 17.1927 12.0438 17.1163C12.0757 17.0398 12.0922 16.9578 12.0922 16.875C12.0922 16.7922 12.0757 16.7102 12.0438 16.6338C12.0118 16.5574 11.965 16.4881 11.906 16.4299C11.847 16.3718 11.7771 16.3259 11.7002 16.295C11.6233 16.2641 11.5411 16.2488 11.4583 16.25H10.625V4.16668H15.0333C15.0813 4.30734 15.1778 4.42631 15.3056 4.50224C15.4333 4.57817 15.584 4.6061 15.7304 4.58102C15.8769 4.55594 16.0097 4.47948 16.1049 4.36537C16.2001 4.25126 16.2515 4.10695 16.25 3.95835V3.64422C16.261 3.57712 16.261 3.50868 16.25 3.44158V3.12501C16.2515 2.97641 16.2001 2.8321 16.1049 2.71799C16.0097 2.60388 15.8769 2.52742 15.7304 2.50234C15.584 2.47726 15.4333 2.50519 15.3056 2.58112C15.1778 2.65705 15.0813 2.77602 15.0333 2.91668H10.1025C10.0354 2.90566 9.96696 2.90566 9.89987 2.91668H4.9666C4.92436 2.79118 4.84336 2.68234 4.73527 2.60584C4.62719 2.52935 4.4976 2.48916 4.3652 2.49106Z" fill="currentColor"/>
</svg>