<svg xmlns="http://www.w3.org/2000/svg" width="16" height="16" viewBox="0 0 16 16" fill="currentColor">
  <path fill-rule="evenodd" clip-rule="evenodd" d="M6.234 1.78571C6.4628 2.02541 6.45397 2.40521 6.21427 2.63401L2.89753 5.8H10.9C13.2748 5.8 15.2 7.72517 15.2 10.1C15.2 12.4748 13.2748 14.4 10.9 14.4H8.59999C8.26862 14.4 7.99999 14.1314 7.99999 13.8C7.99999 13.4686 8.26862 13.2 8.59999 13.2H10.9C12.6121 13.2 14 11.8121 14 10.1C14 8.38792 12.6121 7 10.9 7H2.89753L6.21427 10.166C6.45397 10.3948 6.4628 10.7746 6.234 11.0143C6.0052 11.254 5.6254 11.2628 5.3857 11.034L0.985702 6.83401C0.867094 6.7208 0.799988 6.56397 0.799988 6.4C0.799988 6.23603 0.867094 6.0792 0.985702 5.96599L5.3857 1.76599C5.6254 1.53718 6.0052 1.54602 6.234 1.78571Z"/>
</svg>