<svg xmlns="http://www.w3.org/2000/svg" width="16" height="16" viewBox="0 0 16 16" fill="none">
  <path d="M9.17393 2C11.8374 2 14.0073 4.16988 14.0073 6.83333C14.0073 9.49679 11.8374 11.6667 9.17393 11.6667C8.02181 11.6667 6.96269 11.2597 6.13096 10.5833L2.86078 13.8535C2.81471 13.9015 2.75952 13.9398 2.69846 13.9662C2.63739 13.9926 2.57168 14.0065 2.50516 14.0072C2.43864 14.0079 2.37265 13.9953 2.31106 13.9701C2.24948 13.945 2.19353 13.9078 2.14649 13.8608C2.09945 13.8137 2.06227 13.7578 2.03712 13.6962C2.01198 13.6346 1.99938 13.5686 2.00005 13.5021C2.00073 13.4356 2.01467 13.3699 2.04106 13.3088C2.06745 13.2477 2.10576 13.1926 2.15375 13.1465L5.42393 9.8763C4.74758 9.04457 4.3406 7.98545 4.3406 6.83333C4.3406 4.16988 6.51048 2 9.17393 2ZM9.17393 3C7.05091 3 5.3406 4.71032 5.3406 6.83333C5.3406 7.86754 5.74853 8.80191 6.41026 9.49023C6.45105 9.52021 6.48705 9.55622 6.51703 9.597C7.20536 10.2587 8.13973 10.6667 9.17393 10.6667C11.2969 10.6667 13.0073 8.95635 13.0073 6.83333C13.0073 4.71032 11.2969 3 9.17393 3Z" fill="#737373"/>
</svg>