<svg width="16" height="16" viewBox="0 0 16 16" fill="none" xmlns="http://www.w3.org/2000/svg">
<g id="cancel">
<path id="vector" d="M12.9942 2.32357C12.818 2.32772 12.6507 2.40146 12.5287 2.52864L8.00006 7.05729L3.47141 2.52864C3.40921 2.4647 3.33481 2.41389 3.25261 2.37923C3.17042 2.34456 3.0821 2.32674 2.9929 2.32682C2.86033 2.32699 2.73082 2.36666 2.62091 2.44079C2.51101 2.51492 2.42569 2.62012 2.37587 2.74297C2.32605 2.86582 2.31397 3.00073 2.3412 3.13047C2.36842 3.26021 2.4337 3.37889 2.5287 3.47135L7.05735 8L2.5287 12.5286C2.46472 12.5901 2.41364 12.6637 2.37845 12.7451C2.34326 12.8265 2.32467 12.9141 2.32376 13.0028C2.32286 13.0915 2.33967 13.1795 2.37319 13.2616C2.40672 13.3437 2.45629 13.4183 2.51901 13.481C2.58173 13.5438 2.65633 13.5933 2.73845 13.6269C2.82057 13.6604 2.90855 13.6772 2.99725 13.6763C3.08594 13.6754 3.17356 13.6568 3.25498 13.6216C3.3364 13.5864 3.40998 13.5353 3.47141 13.4714L8.00006 8.94271L12.5287 13.4714C12.5901 13.5353 12.6637 13.5864 12.7451 13.6216C12.8266 13.6568 12.9142 13.6754 13.0029 13.6763C13.0916 13.6772 13.1795 13.6604 13.2617 13.6269C13.3438 13.5933 13.4184 13.5438 13.4811 13.481C13.5438 13.4183 13.5934 13.3437 13.6269 13.2616C13.6604 13.1795 13.6773 13.0915 13.6764 13.0028C13.6754 12.9141 13.6569 12.8265 13.6217 12.7451C13.5865 12.6637 13.5354 12.5901 13.4714 12.5286L8.94277 8L13.4714 3.47135C13.5684 3.37833 13.6351 3.25816 13.6626 3.12661C13.6901 2.99505 13.6772 2.85825 13.6256 2.73415C13.574 2.61005 13.4861 2.50443 13.3734 2.43116C13.2608 2.3579 13.1286 2.32039 12.9942 2.32357Z" fill="#737373"/>
</g>
</svg>
